{
.appVersion = "3151";
.formatVersion = 3;
DisplayStrings = (
"Tomorrow never dies."
);
customParameters = (
{
name = vendorID;
value = XXXX;
},
{
name = panose;
value = (
0,
0,
0,
0,
0,
0,
0,
0,
0,
0
);
},
{
name = unicodeRanges;
value = (
0,
1,
2,
31,
38
);
},
{
name = codePageRanges;
value = (
"1252",
"1250"
);
},
{
name = fsType;
value = (
);
},
{
name = glyphOrder;
value = (
.notdef,
null,
controlLF,
controlCR,
space,
exclam,
quotedbl,
numbersign,
dollar,
percent,
ampersand,
quotesingle,
parenleft,
parenright,
plus,
comma,
hyphen,
period,
zero,
one,
two,
three,
four,
five,
six,
seven,
eight,
nine,
colon,
semicolon,
less,
equal,
greater,
question,
at,
A,
B,
C,
D,
E,
F,
G,
H,
I,
J,
K,
L,
M,
N,
O,
P,
Q,
R,
S,
T,
U,
V,
W,
X,
Y,
Z,
underscore,
a,
b,
c,
d,
e,
f,
g,
h,
i,
j,
k,
l,
m,
n,
o,
p,
q,
r,
s,
t,
u,
v,
w,
x,
y,
z,
asciitilde,
nonbreakingspace,
softhyphen,
multiply,
divide,
minus
);
}
);
date = "2023-11-14 15:13:02 +0000";
familyName = Swoosh;
fontMaster = (
{
customParameters = (
{
name = typoAscender;
value = 900;
},
{
name = typoDescender;
value = -200;
},
{
name = typoLineGap;
value = 0;
},
{
name = winAscent;
value = 875;
},
{
name = winDescent;
value = 161;
},
{
name = hheaAscender;
value = 900;
},
{
name = hheaDescender;
value = -200;
},
{
name = strikeoutPosition;
value = 258;
},
{
name = strikeoutSize;
value = 49;
}
);
id = m01;
metricValues = (
{
pos = 900;
},
{
pos = 700;
},
{
pos = 500;
},
{
},
{
pos = -200;
},
{
}
);
name = Regular;
}
);
glyphs = (
{
glyphname = exclam;
layers = (
{
layerId = m01;
shapes = (
{
closed = 1;
nodes = (
(237,223,o),
(239,236,o),
(239,240,cs),
(239,255,o),
(242,269,o),
(244,284,cs),
(245,290,o),
(244,296,o),
(245,302,cs),
(246,309,o),
(252,344,o),
(251,351,cs),
(250,364,o),
(244,436,o),
(243,448,cs),
(235,499,o),
(229,550,o),
(224,601,cs),
(222,617,o),
(216,699,o),
(212,714,cs),
(209,728,o),
(204,743,o),
(194,754,cs),
(171,782,o),
(130,784,o),
(103,761,cs),
(90,749,o),
(81,732,o),
(77,715,cs),
(70,692,o),
(69,669,o),
(69,645,cs),
(68,588,o),
(72,531,o),
(78,474,cs),
(83,432,o),
(90,388,o),
(106,349,cs),
(108,344,o),
(117,319,o),
(120,314,cs),
(127,305,o),
(157,262,o),
(165,255,cs),
(170,250,o),
(195,219,o),
(200,214,cs),
(210,204,o),
(228,207,o),
(235,220,cs)
);
},
{
closed = 1;
nodes = (
(318,-149,o),
(355,-88,o),
(335,-30,cs),
(324,1,o),
(310,32,o),
(288,58,cs),
(277,71,o),
(262,83,o),
(246,90,cs),
(229,97,o),
(207,92,o),
(192,82,cs),
(182,74,o),
(169,50,o),
(169,37,cs),
(169,20,o),
(184,7,o),
(201,9,cs),
(212,10,o),
(215,23,o),
(207,29,cs),
(205,30,o),
(201,30,o),
(202,32,cs),
(203,36,o),
(211,44,o),
(215,46,cs),
(225,53,o),
(229,37,o),
(232,25,cs),
(239,3,o),
(248,-20,o),
(244,-42,c),
(239,-43,o),
(216,-45,o),
(212,-45,cs),
(193,-44,o),
(174,-43,o),
(156,-36,cs),
(138,-28,o),
(121,-16,o),
(105,-4,cs),
(98,2,o),
(92,10,o),
(87,18,cs),
(82,26,o),
(82,36,o),
(82,45,cs),
(85,76,o),
(104,109,o),
(131,126,cs),
(165,148,o),
(217,146,o),
(254,128,cs),
(269,121,o),
(284,111,o),
(301,111,cs),
(310,111,o),
(313,124,o),
(304,127,c),
(302,127,o),
(291,128,o),
(290,129,c),
(286,130,o),
(273,140,o),
(270,142,cs),
(238,163,o),
(194,170,o),
(156,164,cs),
(121,158,o),
(89,132,o),
(70,102,cs),
(56,81,o),
(44,57,o),
(41,32,cs),
(38,13,o),
(43,-8,o),
(51,-25,cs),
(61,-46,o),
(72,-67,o),
(87,-84,cs),
(119,-119,o),
(165,-145,o),
(211,-154,cs),
(226,-157,o),
(242,-156,o),
(257,-155,cs)
);
}
);
width = 351;
}
);
note = exclam;
unicode = 33;
},
{
glyphname = quotedbl;
layers = (
{
layerId = m01;
shapes = (
{
closed = 1;
nodes = (
(390,413,o),
(384,450,o),
(383,461,cs),
(380,478,o),
(384,496,o),
(384,514,cs),
(385,523,o),
(386,577,o),
(387,586,cs),
(388,593,o),
(392,627,o),
(393,634,c),
(400,658,o),
(404,684,o),
(419,704,cs),
(421,707,o),
(424,711,o),
(427,710,cs),
(436,707,o),
(443,718,o),
(436,724,c),
(434,725,o),
(424,730,o),
(422,731,cs),
(416,734,o),
(405,727,o),
(399,722,cs),
(386,711,o),
(376,697,o),
(365,684,cs),
(345,658,o),
(330,629,o),
(319,598,cs),
(308,571,o),
(300,543,o),
(299,514,cs),
(298,491,o),
(303,467,o),
(310,445,cs),
(315,426,o),
(326,410,o),
(339,395,cs),
(353,378,o),
(379,383,o),
(387,403,cs)
);
},
{
closed = 1;
nodes = (
(149,388,o),
(144,399,o),
(145,408,cs),
(146,440,o),
(147,471,o),
(146,502,cs),
(146,534,o),
(148,566,o),
(150,597,cs),
(151,607,o),
(156,664,o),
(156,674,cs),
(156,677,o),
(154,696,o),
(154,699,cs),
(154,725,o),
(122,737,o),
(105,717,cs),
(98,709,o),
(92,701,o),
(86,693,cs),
(73,674,o),
(46,594,o),
(43,571,cs),
(40,553,o),
(37,535,o),
(36,516,cs),
(36,508,o),
(36,474,o),
(38,466,cs),
(42,453,o),
(46,439,o),
(51,425,cs),
(57,409,o),
(68,395,o),
(79,382,cs),
(99,359,o),
(135,351,o),
(145,379,cs)
);
}
);
width = 448;
}
);
note = quotedbl;
unicode = (34,171,187,8220,8221,8222,8223);
},
{
glyphname = numbersign;
layers = (
{
layerId = m01;
shapes = (
{
closed = 1;
nodes = (
(224,62,o),
(226,72,o),
(228,82,cs),
(233,114,o),
(247,143,o),
(254,175,c),
(299,172,o),
(344,170,o),
(388,170,c),
(384,141,o),
(379,109,o),
(389,81,cs),
(393,69,o),
(401,59,o),
(411,53,cs),
(428,43,o),
(450,44,o),
(459,62,c),
(460,66,o),
(473,79,o),
(475,82,cs),
(485,94,o),
(523,154,o),
(530,168,c),
(554,168,o),
(695,166,o),
(719,165,cs),
(745,165,o),
(771,163,o),
(797,159,c),
(796,157,o),
(789,151,o),
(788,149,c),
(773,131,o),
(786,103,o),
(809,103,cs),
(830,103,o),
(851,103,o),
(871,106,cs),
(886,109,o),
(901,116,o),
(912,126,cs),
(927,139,o),
(937,157,o),
(942,176,cs),
(953,216,o),
(922,266,o),
(885,284,cs),
(830,310,o),
(765,313,o),
(705,308,cs),
(690,307,o),
(603,298,o),
(587,296,c),
(592,306,o),
(619,370,o),
(623,381,c),
(712,388,o),
(801,395,o),
(890,391,c),
(894,390,o),
(914,390,o),
(919,388,c),
(918,381,o),
(915,375,o),
(915,368,cs),
(915,353,o),
(931,343,o),
(944,351,cs),
(947,353,o),
(960,366,o),
(962,369,cs),
(967,374,o),
(970,380,o),
(973,386,cs),
(991,417,o),
(976,460,o),
(948,480,cs),
(943,483,o),
(924,494,o),
(919,495,cs),
(894,502,o),
(868,507,o),
(843,506,cs),
(781,503,o),
(719,496,o),
(659,480,c),
(669,513,o),
(679,546,o),
(681,581,cs),
(682,601,o),
(678,624,o),
(666,641,cs),
(652,661,o),
(624,654,o),
(605,638,cs),
(592,627,o),
(583,612,o),
(574,598,cs),
(546,558,o),
(525,513,o),
(503,470,cs),
(500,464,o),
(483,427,o),
(480,421,c),
(438,405,o),
(395,390,o),
(352,377,cs),
(335,371,o),
(317,368,o),
(299,364,c),
(311,415,o),
(321,468,o),
(325,521,cs),
(326,536,o),
(326,552,o),
(323,567,cs),
(317,609,o),
(282,645,o),
(244,627,cs),
(237,624,o),
(223,608,o),
(219,601,cs),
(207,581,o),
(201,557,o),
(192,534,cs),
(172,481,o),
(157,426,o),
(145,371,c),
(111,383,o),
(77,401,o),
(55,429,cs),
(53,431,o),
(47,439,o),
(47,442,c),
(45,446,o),
(50,456,o),
(52,460,c),
(54,462,o),
(67,473,o),
(70,475,c),
(75,482,o),
(67,492,o),
(59,488,cs),
(44,479,o),
(33,461,o),
(30,444,cs),
(28,427,o),
(47,398,o),
(60,387,cs),
(82,368,o),
(111,356,o),
(139,347,c),
(133,319,o),
(128,290,o),
(123,262,c),
(112,260,o),
(108,245,o),
(101,237,cs),
(94,228,o),
(92,215,o),
(98,206,cs),
(102,199,o),
(109,194,o),
(116,191,c),
(113,163,o),
(116,135,o),
(122,108,cs),
(125,92,o),
(132,76,o),
(138,62,cs),
(143,51,o),
(166,31,o),
(177,27,cs),
(183,25,o),
(189,23,o),
(195,22,cs),
(213,18,o),
(229,34,o),
(226,52,cs)
);
},
{
closed = 1;
nodes = (
(314,337,o),
(431,353,o),
(452,357,c),
(440,328,o),
(428,298,o),
(417,268,c),
(398,265,o),
(291,248,o),
(272,246,c),
(274,257,o),
(290,324,o),
(293,335,c)
);
}
);
width = 1015;
}
);
note = numbersign;
unicode = 35;
},
{
glyphname = dollar;
layers = (
{
layerId = m01;
shapes = (
{
closed = 1;
nodes = (
(354,56,o),
(397,105,o),
(439,154,cs),
(480,202,o),
(520,250,o),
(556,302,cs),
(568,319,o),
(579,337,o),
(587,355,cs),
(591,362,o),
(590,371,o),
(593,378,cs),
(598,392,o),
(598,410,o),
(593,424,cs),
(589,436,o),
(583,451,o),
(572,456,cs),
(559,462,o),
(545,467,o),
(530,469,cs),
(517,470,o),
(503,462,o),
(491,457,cs),
(486,454,o),
(479,453,o),
(474,449,cs),
(460,439,o),
(447,426,o),
(435,412,cs),
(433,410,o),
(423,407,o),
(420,406,c),
(420,430,o),
(421,575,o),
(422,599,c),
(444,594,o),
(467,587,o),
(487,575,c),
(489,564,o),
(505,567,o),
(510,578,cs),
(512,583,o),
(511,590,o),
(508,594,cs),
(496,608,o),
(440,622,o),
(422,627,c),
(424,704,o),
(430,780,o),
(437,857,cs),
(438,870,o),
(425,881,o),
(415,873,cs),
(407,868,o),
(408,845,o),
(407,836,cs),
(398,770,o),
(388,703,o),
(384,636,c),
(354,643,o),
(322,644,o),
(290,642,c),
(284,695,o),
(285,750,o),
(276,802,cs),
(273,816,o),
(266,829,o),
(256,838,cs),
(231,862,o),
(193,844,o),
(182,811,cs),
(175,789,o),
(173,765,o),
(172,742,cs),
(169,702,o),
(171,662,o),
(173,622,c),
(136,610,o),
(100,590,o),
(73,562,cs),
(47,537,o),
(34,498,o),
(32,462,cs),
(31,433,o),
(36,403,o),
(49,377,cs),
(60,356,o),
(77,338,o),
(97,326,cs),
(134,304,o),
(183,297,o),
(226,303,c),
(236,270,o),
(247,238,o),
(259,206,c),
(233,178,o),
(206,151,o),
(180,124,cs),
(169,114,o),
(164,99,o),
(161,84,cs),
(152,53,o),
(168,9,o),
(198,-5,cs),
(216,-14,o),
(238,-17,o),
(258,-15,cs),
(276,-13,o),
(293,-1,o),
(307,11,cs)
);
},
{
closed = 1;
nodes = (
(310,477,o),
(297,585,o),
(295,604,c),
(324,606,o),
(353,605,o),
(382,604,c),
(379,534,o),
(378,464,o),
(380,393,c),
(372,391,o),
(324,374,o),
(316,371,c),
(316,382,o),
(312,448,o),
(311,458,cs)
);
},
{
closed = 1;
nodes = (
(105,367,o),
(85,389,o),
(78,417,cs),
(69,453,o),
(72,498,o),
(94,529,cs),
(113,555,o),
(146,570,o),
(176,581,c),
(180,541,o),
(185,500,o),
(190,460,cs),
(192,445,o),
(212,361,o),
(215,346,c),
(187,343,o),
(158,347,o),
(132,357,cs)
);
},
{
closed = 1;
nodes = (
(339,339,o),
(360,347,o),
(381,356,c),
(382,356,o),
(382,349,o),
(381,348,cs),
(360,323,o),
(339,297,o),
(317,272,c),
(318,280,o),
(319,322,o),
(318,330,c)
);
}
);
width = 625;
}
);
note = dollar;
unicode = 36;
},
{
glyphname = percent;
layers = (
{
layerId = m01;
shapes = (
{
closed = 1;
nodes = (
(216,-26,o),
(240,-12,o),
(266,-1,cs),
(276,4,o),
(333,36,o),
(343,40,cs),
(348,42,o),
(367,50,o),
(371,53,cs),
(383,64,o),
(378,85,o),
(361,88,cs),
(353,89,o),
(315,82,o),
(307,81,cs),
(297,80,o),
(248,78,o),
(238,79,c),
(241,87,o),
(244,95,o),
(248,102,cs),
(294,185,o),
(355,259,o),
(418,329,cs),
(440,353,o),
(563,487,o),
(582,513,cs),
(596,531,o),
(610,550,o),
(622,571,cs),
(629,583,o),
(633,597,o),
(636,610,cs),
(640,623,o),
(642,637,o),
(639,651,cs),
(637,660,o),
(632,668,o),
(628,676,c),
(623,692,o),
(604,699,o),
(589,691,cs),
(586,689,o),
(570,686,o),
(568,684,c),
(565,683,o),
(550,675,o),
(547,673,cs),
(490,644,o),
(309,451,o),
(266,404,cs),
(208,339,o),
(152,271,o),
(112,195,cs),
(97,166,o),
(85,135,o),
(78,104,cs),
(73,79,o),
(73,53,o),
(81,29,cs),
(85,18,o),
(92,7,o),
(100,-3,cs),
(113,-18,o),
(133,-28,o),
(153,-33,cs),
(159,-35,o),
(182,-35,o),
(189,-33,cs)
);
},
{
closed = 1;
nodes = (
(196,353,o),
(217,364,o),
(231,380,cs),
(273,431,o),
(269,518,o),
(224,566,cs),
(213,578,o),
(202,589,o),
(189,599,cs),
(188,600,o),
(199,603,o),
(199,603,c),
(207,608,o),
(203,620,o),
(194,618,c),
(191,618,o),
(175,612,o),
(172,611,c),
(160,619,o),
(147,626,o),
(133,630,cs),
(121,633,o),
(107,636,o),
(96,631,c),
(85,628,o),
(78,615,o),
(79,603,cs),
(80,590,o),
(91,578,o),
(102,570,c),
(76,547,o),
(53,518,o),
(45,485,cs),
(36,449,o),
(47,402,o),
(74,377,cs),
(100,353,o),
(142,341,o),
(176,348,cs)
);
},
{
closed = 1;
nodes = (
(114,605,o),
(123,598,o),
(133,592,c),
(128,589,o),
(123,585,o),
(117,582,c),
(110,587,o),
(101,597,o),
(103,607,c)
);
},
{
closed = 1;
nodes = (
(138,576,o),
(143,579,o),
(149,583,c),
(168,570,o),
(186,556,o),
(201,539,c),
(178,549,o),
(155,560,o),
(132,572,c)
);
},
{
closed = 1;
nodes = (
(65,438,o),
(61,458,o),
(64,476,cs),
(68,509,o),
(92,539,o),
(117,560,c),
(147,544,o),
(179,532,o),
(211,519,cs),
(213,518,o),
(215,519,o),
(216,517,cs),
(234,482,o),
(229,429,o),
(203,400,cs),
(195,391,o),
(184,385,o),
(172,381,cs),
(137,370,o),
(89,388,o),
(73,422,cs)
);
},
{
closed = 1;
nodes = (
(679,195,o),
(677,211,o),
(670,227,cs),
(659,255,o),
(634,276,o),
(610,295,c),
(615,297,o),
(621,297,o),
(626,298,cs),
(636,300,o),
(635,314,o),
(625,314,cs),
(619,314,o),
(614,313,o),
(609,314,cs),
(585,318,o),
(560,312,o),
(542,298,cs),
(506,270,o),
(481,227,o),
(472,184,cs),
(466,155,o),
(463,125,o),
(465,96,cs),
(467,77,o),
(474,58,o),
(486,43,cs),
(500,27,o),
(526,16,o),
(548,18,cs),
(627,23,o),
(683,99,o),
(680,178,cs)
);
},
{
closed = 1;
nodes = (
(504,175,o),
(523,236,o),
(567,277,cs),
(573,283,o),
(581,287,o),
(589,289,c),
(604,276,o),
(620,263,o),
(632,247,cs),
(643,233,o),
(652,214,o),
(652,196,cs),
(652,164,o),
(636,132,o),
(614,109,cs),
(595,90,o),
(566,78,o),
(540,78,cs),
(524,78,o),
(517,99,o),
(514,114,cs)
);
}
);
width = 720;
}
);
note = percent;
unicode = 37;
},
{
glyphname = ampersand;
layers = (
{
layerId = m01;
shapes = (
{
closed = 1;
nodes = (
(408,12,o),
(472,79,o),
(519,150,c),
(540,138,o),
(560,126,o),
(582,116,cs),
(607,105,o),
(635,98,o),
(662,92,cs),
(671,90,o),
(716,83,o),
(726,83,cs),
(736,83,o),
(737,98,o),
(726,99,cs),
(686,104,o),
(645,109,o),
(606,123,cs),
(578,132,o),
(552,147,o),
(527,162,c),
(533,172,o),
(539,181,o),
(544,190,cs),
(559,213,o),
(566,267,o),
(552,291,cs),
(545,304,o),
(533,312,o),
(518,315,cs),
(504,317,o),
(488,315,o),
(475,310,cs),
(466,307,o),
(437,291,o),
(431,285,cs),
(427,282,o),
(403,258,o),
(399,254,c),
(363,285,o),
(329,319,o),
(300,357,c),
(308,367,o),
(358,425,o),
(366,434,cs),
(418,490,o),
(474,542,o),
(525,599,cs),
(540,615,o),
(550,635,o),
(560,655,cs),
(572,682,o),
(569,718,o),
(554,744,cs),
(545,760,o),
(526,770,o),
(507,776,cs),
(486,783,o),
(465,787,o),
(443,788,cs),
(441,788,o),
(435,788,o),
(434,788,cs),
(395,793,o),
(353,793,o),
(317,779,cs),
(214,739,o),
(177,601,o),
(207,495,c),
(172,462,o),
(141,425,o),
(113,386,cs),
(88,350,o),
(65,312,o),
(51,271,cs),
(40,240,o),
(34,207,o),
(34,174,cs),
(35,138,o),
(44,103,o),
(61,71,cs),
(84,28,o),
(128,-6,o),
(174,-22,cs),
(224,-40,o),
(280,-39,o),
(329,-20,cs)
);
},
{
closed = 1;
nodes = (
(278,724,o),
(299,744,o),
(324,755,cs),
(355,767,o),
(391,770,o),
(423,763,cs),
(435,760,o),
(469,741,o),
(478,732,cs),
(481,729,o),
(489,719,o),
(489,714,c),
(488,711,o),
(481,704,o),
(479,702,cs),
(439,659,o),
(384,632,o),
(336,598,cs),
(297,571,o),
(259,543,o),
(224,512,c),
(211,575,o),
(224,649,o),
(262,701,cs)
);
},
{
closed = 1;
nodes = (
(199,188,o),
(208,216,o),
(220,239,cs),
(239,276,o),
(263,311,o),
(289,343,c),
(318,307,o),
(351,273,o),
(387,243,c),
(351,207,o),
(319,166,o),
(274,142,cs),
(249,128,o),
(212,134,o),
(205,162,cs)
);
}
);
width = 736;
}
);
note = ampersand;
unicode = 38;
},
{
glyphname = quotesingle;
layers = (
{
layerId = m01;
shapes = (
{
closed = 1;
nodes = (
(165,422,o),
(177,447,o),
(180,453,cs),
(185,464,o),
(188,508,o),
(187,520,cs),
(182,580,o),
(180,641,o),
(167,699,cs),
(163,721,o),
(155,742,o),
(141,759,cs),
(123,780,o),
(92,787,o),
(71,769,cs),
(57,758,o),
(51,739,o),
(47,721,cs),
(41,695,o),
(39,668,o),
(38,641,cs),
(35,597,o),
(35,552,o),
(41,507,cs),
(43,497,o),
(56,459,o),
(63,450,cs),
(68,442,o),
(73,433,o),
(81,427,cs),
(85,424,o),
(104,411,o),
(108,409,cs),
(114,405,o),
(121,404,o),
(128,403,cs),
(140,402,o),
(152,409,o),
(161,417,c)
);
}
);
width = 223;
}
);
note = quotesingle;
unicode = (39,8216,8217,8218,8219,8249,8250);
},
{
glyphname = parenleft;
layers = (
{
layerId = m01;
shapes = (
{
closed = 1;
nodes = (
(345,87,o),
(379,100,o),
(386,107,cs),
(399,118,o),
(392,139,o),
(374,139,cs),
(371,139,o),
(368,138,o),
(365,137,cs),
(331,128,o),
(293,134,o),
(259,145,cs),
(235,152,o),
(211,161,o),
(190,175,cs),
(174,186,o),
(158,199,o),
(147,216,cs),
(121,257,o),
(119,313,o),
(127,361,cs),
(136,416,o),
(154,471,o),
(181,520,cs),
(204,559,o),
(234,595,o),
(264,629,cs),
(280,647,o),
(356,721,o),
(377,734,cs),
(379,735,o),
(381,732,o),
(382,730,cs),
(383,728,o),
(386,715,o),
(388,712,cs),
(392,704,o),
(404,709,o),
(403,718,cs),
(402,725,o),
(397,733,o),
(397,741,cs),
(397,751,o),
(386,760,o),
(376,762,cs),
(366,764,o),
(356,759,o),
(348,754,cs),
(294,725,o),
(245,685,o),
(201,643,cs),
(155,598,o),
(115,546,o),
(88,489,cs),
(65,442,o),
(50,391,o),
(43,340,cs),
(37,286,o),
(38,226,o),
(64,178,cs),
(81,149,o),
(106,124,o),
(135,107,cs),
(193,73,o),
(271,68,o),
(336,85,cs)
);
}
);
width = 411;
}
);
note = parenleft;
unicode = 40;
},
{
glyphname = parenright;
layers = (
{
layerId = m01;
shapes = (
{
closed = 1;
nodes = (
(110,38,o),
(134,54,o),
(140,57,cs),
(144,60,o),
(171,76,o),
(175,79,cs),
(195,91,o),
(289,156,o),
(306,172,cs),
(344,207,o),
(386,241,o),
(412,286,cs),
(430,316,o),
(444,349,o),
(448,383,cs),
(452,412,o),
(450,442,o),
(443,470,cs),
(432,513,o),
(410,555,o),
(379,587,cs),
(351,617,o),
(316,642,o),
(281,664,cs),
(245,687,o),
(205,702,o),
(165,718,cs),
(133,731,o),
(98,736,o),
(63,742,cs),
(44,745,o),
(23,744,o),
(4,739,cs),
(-6,736,o),
(-18,731,o),
(-22,721,cs),
(-26,708,o),
(-17,695,o),
(-3,699,cs),
(19,705,o),
(43,693,o),
(64,683,cs),
(82,674,o),
(171,619,o),
(188,607,cs),
(210,593,o),
(230,576,o),
(250,559,cs),
(273,539,o),
(295,517,o),
(311,491,cs),
(321,473,o),
(329,452,o),
(331,431,cs),
(333,408,o),
(329,384,o),
(321,362,cs),
(308,324,o),
(284,288,o),
(258,257,cs),
(250,247,o),
(204,194,o),
(196,185,cs),
(181,170,o),
(96,84,o),
(82,68,cs),
(69,52,o),
(85,29,o),
(105,36,cs)
);
}
);
width = 486;
}
);
note = parenright;
unicode = 41;
},
{
glyphname = plus;
layers = (
{
layerId = m01;
shapes = (
{
closed = 1;
nodes = (
(340,130,o),
(348,131,o),
(356,133,cs),
(372,139,o),
(378,160,o),
(366,174,cs),
(361,180,o),
(361,209,o),
(360,218,cs),
(357,239,o),
(360,348,o),
(361,369,c),
(390,367,o),
(537,362,o),
(565,365,cs),
(575,366,o),
(614,369,o),
(623,366,cs),
(636,361,o),
(648,373,o),
(643,386,cs),
(640,393,o),
(623,403,o),
(615,405,cs),
(585,416,o),
(552,419,o),
(520,422,cs),
(469,426,o),
(417,425,o),
(365,427,c),
(368,450,o),
(372,473,o),
(376,495,cs),
(379,513,o),
(410,621,o),
(413,638,c),
(413,641,o),
(415,657,o),
(415,660,cs),
(415,670,o),
(413,679,o),
(414,688,cs),
(417,709,o),
(395,722,o),
(379,709,cs),
(371,703,o),
(361,700,o),
(353,695,cs),
(316,668,o),
(289,627,o),
(269,586,cs),
(244,536,o),
(225,483,o),
(217,428,c),
(159,429,o),
(102,427,o),
(44,427,c),
(40,432,o),
(27,427,o),
(21,425,cs),
(12,422,o),
(14,410,o),
(22,406,c),
(27,402,o),
(54,400,o),
(61,398,c),
(110,390,o),
(161,384,o),
(211,380,c),
(206,330,o),
(208,279,o),
(221,231,cs),
(227,208,o),
(236,185,o),
(251,167,cs),
(270,144,o),
(302,127,o),
(332,129,cs)
);
}
);
width = 660;
}
);
note = plus;
unicode = 43;
},
{
glyphname = comma;
layers = (
{
layerId = m01;
shapes = (
{
closed = 1;
nodes = (
(141,-6,o),
(163,8,o),
(184,23,cs),
(227,54,o),
(264,102,o),
(274,154,cs),
(279,182,o),
(278,213,o),
(267,239,cs),
(259,259,o),
(245,276,o),
(230,291,cs),
(211,310,o),
(189,326,o),
(165,336,cs),
(152,342,o),
(138,345,o),
(124,343,cs),
(113,341,o),
(103,336,o),
(94,329,cs),
(79,319,o),
(68,284,o),
(69,266,cs),
(71,251,o),
(75,236,o),
(81,223,cs),
(92,199,o),
(110,180,o),
(128,162,cs),
(134,155,o),
(162,137,o),
(171,134,cs),
(188,130,o),
(206,122,o),
(223,127,c),
(214,105,o),
(200,85,o),
(183,69,cs),
(161,47,o),
(109,3,o),
(78,9,cs),
(67,12,o),
(57,19,o),
(47,26,c),
(52,32,o),
(47,41,o),
(40,40,cs),
(32,39,o),
(26,32,o),
(27,25,cs),
(30,11,o),
(56,-5,o),
(68,-11,cs),
(83,-18,o),
(101,-18,o),
(116,-13,cs)
);
}
);
width = 310;
}
);
note = comma;
unicode = 44;
},
{
glyphname = hyphen;
layers = (
{
layerId = m01;
shapes = (
{
closed = 1;
nodes = (
(54,222,o),
(81,230,o),
(86,230,c),
(102,233,o),
(119,235,o),
(135,237,cs),
(146,239,o),
(214,243,o),
(226,244,cs),
(257,248,o),
(446,265,o),
(477,268,cs),
(531,272,o),
(586,283,o),
(640,280,cs),
(642,280,o),
(651,281,o),
(653,281,cs),
(663,282,o),
(706,277,o),
(716,275,cs),
(725,274,o),
(735,271,o),
(743,275,cs),
(761,284,o),
(769,305,o),
(758,321,cs),
(756,325,o),
(743,345,o),
(740,348,cs),
(737,352,o),
(717,368,o),
(713,371,cs),
(697,382,o),
(679,387,o),
(662,395,cs),
(632,407,o),
(509,412,o),
(477,411,cs),
(454,410,o),
(332,397,o),
(309,394,cs),
(256,385,o),
(203,374,o),
(152,355,cs),
(131,347,o),
(111,336,o),
(91,326,cs),
(84,323,o),
(60,304,o),
(55,299,cs),
(44,286,o),
(32,274,o),
(26,258,cs),
(23,251,o),
(23,243,o),
(23,235,cs),
(23,222,o),
(37,215,o),
(49,221,c)
);
}
);
width = 789;
}
);
note = hyphen;
unicode = 45;
},
{
glyphname = period;
layers = (
{
layerId = m01;
shapes = (
{
closed = 1;
nodes = (
(209,0,o),
(233,15,o),
(250,35,cs),
(266,54,o),
(280,79,o),
(282,105,cs),
(284,131,o),
(275,160,o),
(258,180,cs),
(219,228,o),
(149,241,o),
(98,211,cs),
(81,202,o),
(66,188,o),
(57,171,cs),
(51,161,o),
(47,149,o),
(44,137,c),
(43,136,o),
(42,129,o),
(42,128,cs),
(41,125,o),
(33,110,o),
(33,107,c),
(9,21,o),
(102,-45,o),
(185,-10,cs)
);
}
);
width = 311;
}
);
note = period;
unicode = 46;
},
{
glyphname = zero;
layers = (
{
layerId = m01;
shapes = (
{
closed = 1;
nodes = (
(426,-31,o),
(440,-8,o),
(446,16,cs),
(454,44,o),
(456,74,o),
(454,104,cs),
(449,160,o),
(438,217,o),
(424,272,cs),
(413,312,o),
(401,353,o),
(386,392,cs),
(373,424,o),
(356,454,o),
(336,482,cs),
(330,490,o),
(305,510,o),
(297,514,cs),
(294,516,o),
(283,520,o),
(281,522,cs),
(256,547,o),
(221,566,o),
(186,567,cs),
(161,567,o),
(135,555,o),
(116,539,cs),
(84,511,o),
(64,470,o),
(53,430,cs),
(35,359,o),
(40,281,o),
(59,210,cs),
(76,149,o),
(107,92,o),
(145,41,cs),
(149,36,o),
(153,31,o),
(156,25,cs),
(163,14,o),
(199,-20,o),
(209,-27,cs),
(243,-53,o),
(285,-75,o),
(328,-76,cs),
(356,-77,o),
(386,-65,o),
(407,-47,cs)
);
},
{
closed = 1;
nodes = (
(237,127,o),
(204,167,o),
(196,176,cs),
(163,220,o),
(138,271,o),
(125,324,cs),
(115,363,o),
(112,405,o),
(121,443,cs),
(126,468,o),
(140,492,o),
(158,511,cs),
(175,528,o),
(205,533,o),
(228,527,c),
(214,524,o),
(202,515,o),
(192,506,cs),
(175,489,o),
(171,458,o),
(179,436,cs),
(185,419,o),
(192,401,o),
(205,389,cs),
(207,387,o),
(214,381,o),
(215,379,cs),
(251,290,o),
(277,197,o),
(291,102,c),
(291,98,o),
(292,94,o),
(292,90,c),
(276,99,o),
(262,110,o),
(247,120,cs)
);
}
);
width = 492;
}
);
note = zero;
unicode = 48;
},
{
glyphname = one;
layers = (
{
layerId = m01;
shapes = (
{
closed = 1;
nodes = (
(543,-40,o),
(554,-3,o),
(549,26,cs),
(546,44,o),
(535,60,o),
(524,74,cs),
(514,85,o),
(501,93,o),
(489,102,cs),
(471,114,o),
(395,131,o),
(374,134,c),
(352,227,o),
(345,325,o),
(355,420,cs),
(361,467,o),
(370,513,o),
(377,560,cs),
(379,571,o),
(382,581,o),
(382,592,cs),
(382,657,o),
(303,685,o),
(261,635,cs),
(259,633,o),
(248,622,o),
(246,620,c),
(217,579,o),
(203,528,o),
(194,478,c),
(171,466,o),
(147,455,o),
(122,446,cs),
(108,440,o),
(94,435,o),
(79,434,cs),
(74,434,o),
(71,439,o),
(67,438,cs),
(56,436,o),
(58,421,o),
(68,417,cs),
(87,409,o),
(110,411,o),
(129,416,cs),
(149,420,o),
(169,426,o),
(188,433,c),
(177,337,o),
(181,238,o),
(199,142,c),
(165,140,o),
(131,137,o),
(99,129,cs),
(79,123,o),
(58,115,o),
(45,99,cs),
(27,77,o),
(24,44,o),
(38,18,cs),
(46,4,o),
(60,-9,o),
(76,-13,cs),
(124,-26,o),
(174,-22,o),
(223,-23,cs),
(286,-25,o),
(350,-30,o),
(411,-46,c),
(413,-46,o),
(430,-51,o),
(433,-51,c),
(460,-56,o),
(488,-54,o),
(515,-47,cs)
);
}
);
width = 558;
}
);
note = one;
unicode = 49;
},
{
glyphname = two;
layers = (
{
layerId = m01;
shapes = (
{
closed = 1;
nodes = (
(548,-85,o),
(563,-73,o),
(576,-60,cs),
(587,-50,o),
(603,-11,o),
(605,3,cs),
(606,14,o),
(608,64,o),
(606,74,cs),
(602,95,o),
(602,117,o),
(592,135,cs),
(581,154,o),
(555,158,o),
(544,139,cs),
(541,132,o),
(516,105,o),
(511,100,cs),
(503,91,o),
(497,80,o),
(489,72,c),
(450,88,o),
(412,106,o),
(372,120,cs),
(314,140,o),
(253,153,o),
(192,152,c),
(257,184,o),
(325,213,o),
(384,254,cs),
(433,288,o),
(478,329,o),
(511,378,cs),
(563,454,o),
(554,569,o),
(482,627,cs),
(464,641,o),
(441,651,o),
(418,654,cs),
(376,659,o),
(333,644,o),
(296,625,cs),
(232,590,o),
(176,535,o),
(141,471,cs),
(128,447,o),
(115,420,o),
(116,393,cs),
(116,370,o),
(145,362,o),
(157,382,cs),
(159,386,o),
(160,389,o),
(161,393,cs),
(182,453,o),
(226,503,o),
(268,549,cs),
(301,586,o),
(345,617,o),
(393,627,cs),
(412,631,o),
(433,630,o),
(451,623,cs),
(482,610,o),
(507,580,o),
(519,549,cs),
(535,508,o),
(536,458,o),
(518,418,cs),
(492,357,o),
(438,309,o),
(382,274,cs),
(300,221,o),
(207,187,o),
(120,142,cs),
(118,141,o),
(107,138,o),
(105,138,c),
(89,131,o),
(74,123,o),
(61,112,c),
(60,110,o),
(51,101,o),
(49,100,c),
(37,90,o),
(26,79,o),
(22,64,cs),
(17,46,o),
(23,24,o),
(34,8,cs),
(41,-2,o),
(53,-7,o),
(65,-9,cs),
(83,-13,o),
(101,-9,o),
(119,-6,cs),
(169,2,o),
(221,-5,o),
(269,-20,cs),
(313,-34,o),
(356,-52,o),
(399,-71,cs),
(423,-81,o),
(448,-92,o),
(474,-95,cs),
(493,-98,o),
(513,-97,o),
(531,-91,cs)
);
}
);
width = 639;
}
);
note = two;
unicode = 50;
},
{
glyphname = three;
layers = (
{
layerId = m01;
shapes = (
{
closed = 1;
nodes = (
(507,50,o),
(584,89,o),
(651,142,cs),
(681,165,o),
(710,192,o),
(726,226,cs),
(735,247,o),
(736,273,o),
(728,295,cs),
(720,317,o),
(704,336,o),
(686,351,cs),
(652,377,o),
(607,390,o),
(565,394,c),
(593,411,o),
(621,429,o),
(645,452,cs),
(656,462,o),
(668,475,o),
(671,490,cs),
(677,518,o),
(666,551,o),
(644,570,cs),
(624,586,o),
(598,595,o),
(573,598,cs),
(529,604,o),
(483,599,o),
(439,590,cs),
(389,580,o),
(340,569,o),
(289,562,cs),
(260,558,o),
(229,563,o),
(202,573,cs),
(192,576,o),
(184,584,o),
(177,592,cs),
(162,611,o),
(157,638,o),
(139,654,cs),
(130,661,o),
(116,655,o),
(116,643,cs),
(116,636,o),
(114,630,o),
(113,623,cs),
(109,595,o),
(110,565,o),
(119,538,cs),
(131,505,o),
(156,475,o),
(186,458,cs),
(209,445,o),
(235,435,o),
(261,433,cs),
(290,430,o),
(319,430,o),
(347,435,cs),
(390,443,o),
(431,458,o),
(471,475,cs),
(502,487,o),
(586,529,o),
(617,518,cs),
(630,513,o),
(642,501,o),
(637,488,cs),
(629,472,o),
(583,445,o),
(567,437,cs),
(552,429,o),
(478,390,o),
(461,385,cs),
(438,379,o),
(416,371,o),
(394,363,cs),
(379,358,o),
(365,350,o),
(354,340,cs),
(350,336,o),
(333,315,o),
(329,312,cs),
(312,298,o),
(325,273,o),
(347,276,cs),
(352,277,o),
(383,278,o),
(388,279,cs),
(411,283,o),
(434,289,o),
(458,289,cs),
(490,290,o),
(600,279,o),
(628,263,c),
(616,246,o),
(598,232,o),
(580,220,cs),
(531,187,o),
(476,163,o),
(419,145,cs),
(379,132,o),
(337,120,o),
(295,119,cs),
(279,118,o),
(263,118,o),
(248,123,cs),
(229,129,o),
(210,142,o),
(202,160,cs),
(195,177,o),
(172,258,o),
(169,276,cs),
(166,292,o),
(168,308,o),
(160,322,cs),
(151,337,o),
(134,343,o),
(118,337,cs),
(103,332,o),
(93,318,o),
(82,307,cs),
(72,297,o),
(49,257,o),
(45,243,cs),
(37,211,o),
(33,176,o),
(42,143,cs),
(55,95,o),
(80,44,o),
(121,16,cs),
(152,-6,o),
(188,-22,o),
(225,-25,cs),
(294,-31,o),
(367,-15,o),
(430,14,cs)
);
}
);
width = 767;
}
);
note = three;
unicode = 51;
},
{
glyphname = four;
layers = (
{
layerId = m01;
shapes = (
{
closed = 1;
nodes = (
(465,67,o),
(478,84,o),
(487,101,cs),
(498,121,o),
(501,144,o),
(503,167,cs),
(507,213,o),
(469,421,o),
(461,466,cs),
(456,495,o),
(430,643,o),
(420,671,cs),
(414,688,o),
(404,704,o),
(391,716,cs),
(378,727,o),
(360,732,o),
(344,733,cs),
(331,734,o),
(318,729,o),
(307,724,cs),
(295,718,o),
(287,707,o),
(279,697,cs),
(273,687,o),
(266,654,o),
(267,643,cs),
(275,551,o),
(292,459,o),
(307,368,c),
(283,373,o),
(259,380,o),
(235,388,cs),
(215,394,o),
(194,402,o),
(176,415,cs),
(165,423,o),
(155,433,o),
(150,446,cs),
(135,481,o),
(130,520,o),
(125,558,cs),
(118,603,o),
(112,650,o),
(97,694,cs),
(91,713,o),
(78,733,o),
(60,727,cs),
(40,720,o),
(42,696,o),
(58,682,c),
(52,619,o),
(42,556,o),
(39,492,cs),
(38,459,o),
(40,424,o),
(51,392,cs),
(61,363,o),
(79,336,o),
(103,318,cs),
(138,292,o),
(178,272,o),
(219,259,cs),
(254,248,o),
(291,238,o),
(328,237,c),
(333,197,o),
(336,156,o),
(347,117,cs),
(348,112,o),
(359,92,o),
(361,87,c),
(370,72,o),
(383,55,o),
(400,49,cs),
(415,43,o),
(434,49,o),
(449,57,cs)
);
}
);
width = 547;
}
);
note = four;
unicode = 52;
},
{
glyphname = five;
layers = (
{
layerId = m01;
shapes = (
{
closed = 1;
nodes = (
(303,-39,o),
(364,-15,o),
(422,10,cs),
(487,38,o),
(552,71,o),
(600,121,cs),
(629,151,o),
(650,194,o),
(650,236,cs),
(650,266,o),
(639,298,o),
(619,321,cs),
(603,338,o),
(586,356,o),
(565,367,cs),
(524,390,o),
(478,404,o),
(431,409,cs),
(374,415,o),
(317,417,o),
(260,413,cs),
(236,412,o),
(212,408,o),
(188,405,c),
(196,413,o),
(204,420,o),
(210,429,cs),
(239,468,o),
(251,522,o),
(248,571,c),
(309,538,o),
(381,528,o),
(450,520,cs),
(463,519,o),
(535,513,o),
(548,513,cs),
(575,513,o),
(603,515,o),
(631,517,cs),
(640,518,o),
(691,526,o),
(701,528,cs),
(718,532,o),
(735,540,o),
(753,545,c),
(755,535,o),
(746,505,o),
(743,495,cs),
(738,483,o),
(750,472,o),
(758,482,cs),
(764,489,o),
(780,524,o),
(783,533,cs),
(787,545,o),
(791,558,o),
(788,571,cs),
(783,592,o),
(767,611,o),
(749,622,cs),
(737,630,o),
(724,636,o),
(711,641,cs),
(700,645,o),
(643,655,o),
(632,657,cs),
(618,659,o),
(549,665,o),
(535,664,cs),
(515,664,o),
(389,665,o),
(369,664,cs),
(342,664,o),
(315,667,o),
(288,669,cs),
(281,670,o),
(251,676,o),
(245,678,cs),
(240,680,o),
(240,688,o),
(237,692,cs),
(233,696,o),
(227,696,o),
(222,695,cs),
(213,694,o),
(198,678,o),
(193,670,cs),
(185,656,o),
(187,634,o),
(195,619,cs),
(202,608,o),
(211,599,o),
(220,590,c),
(225,562,o),
(221,531,o),
(215,503,cs),
(207,463,o),
(184,423,o),
(152,399,c),
(124,393,o),
(97,386,o),
(71,378,cs),
(61,375,o),
(35,366,o),
(30,358,cs),
(25,348,o),
(31,339,o),
(42,338,cs),
(70,335,o),
(97,349,o),
(123,361,c),
(157,366,o),
(192,370,o),
(227,370,cs),
(292,370,o),
(358,361,o),
(421,345,cs),
(453,337,o),
(485,325,o),
(513,308,cs),
(542,289,o),
(564,253,o),
(543,225,cs),
(532,210,o),
(515,198,o),
(499,189,cs),
(474,175,o),
(447,166,o),
(421,156,cs),
(411,152,o),
(351,132,o),
(341,129,c),
(340,134,o),
(331,150,o),
(328,154,c),
(314,179,o),
(301,206,o),
(280,226,cs),
(276,230,o),
(256,241,o),
(250,243,c),
(230,253,o),
(205,255,o),
(183,251,cs),
(154,245,o),
(127,228,o),
(109,206,cs),
(85,176,o),
(71,136,o),
(70,98,cs),
(69,61,o),
(81,20,o),
(106,-8,cs),
(121,-24,o),
(140,-37,o),
(160,-45,cs),
(185,-54,o),
(214,-55,o),
(240,-50,cs)
);
},
{
closed = 1;
nodes = (
(259,116,o),
(272,115,o),
(283,114,c),
(271,111,o),
(258,109,o),
(246,107,cs),
(244,107,o),
(247,111,o),
(249,111,c)
);
}
);
width = 812;
}
);
note = five;
unicode = 53;
},
{
glyphname = six;
layers = (
{
layerId = m01;
shapes = (
{
closed = 1;
nodes = (
(523,68,o),
(531,114,o),
(531,157,cs),
(532,201,o),
(526,245,o),
(514,287,cs),
(505,320,o),
(491,352,o),
(471,379,cs),
(450,406,o),
(420,430,o),
(387,436,cs),
(359,442,o),
(328,434,o),
(302,422,cs),
(277,410,o),
(252,395,o),
(235,373,cs),
(226,362,o),
(220,347,o),
(217,332,cs),
(213,316,o),
(217,298,o),
(223,282,cs),
(248,215,o),
(282,149,o),
(322,89,c),
(289,77,o),
(247,69,o),
(211,68,cs),
(206,68,o),
(181,71,o),
(175,73,cs),
(165,75,o),
(155,78,o),
(146,83,cs),
(120,96,o),
(97,120,o),
(84,146,cs),
(66,181,o),
(59,224,o),
(62,263,cs),
(65,300,o),
(76,335,o),
(91,369,cs),
(116,424,o),
(152,475,o),
(193,518,cs),
(214,540,o),
(237,559,o),
(263,574,cs),
(269,577,o),
(292,588,o),
(296,593,cs),
(302,600,o),
(299,610,o),
(291,612,cs),
(279,615,o),
(252,601,o),
(242,594,cs),
(229,584,o),
(216,573,o),
(205,561,cs),
(141,488,o),
(82,405,o),
(55,312,cs),
(39,258,o),
(35,197,o),
(48,142,cs),
(62,79,o),
(98,18,o),
(147,-24,cs),
(155,-30,o),
(192,-52,o),
(201,-56,cs),
(227,-69,o),
(256,-76,o),
(285,-79,cs),
(372,-90,o),
(459,-46,o),
(502,31,cs)
);
},
{
closed = 1;
nodes = (
(295,238,o),
(292,252,o),
(289,266,cs),
(288,270,o),
(286,275,o),
(290,276,c),
(296,276,o),
(330,283,o),
(336,284,c),
(357,242,o),
(363,192,o),
(361,146,cs),
(360,130,o),
(355,111,o),
(343,100,c),
(336,116,o),
(305,208,o),
(300,225,cs)
);
}
);
width = 569;
}
);
note = six;
unicode = 54;
},
{
glyphname = seven;
layers = (
{
layerId = m01;
shapes = (
{
closed = 1;
nodes = (
(545,-40,o),
(561,-24,o),
(576,-9,cs),
(585,0,o),
(614,50,o),
(621,60,cs),
(658,119,o),
(696,178,o),
(729,239,c),
(750,234,o),
(873,203,o),
(894,197,cs),
(906,194,o),
(910,212,o),
(898,215,cs),
(846,232,o),
(795,249,o),
(741,261,c),
(768,313,o),
(792,367,o),
(802,424,cs),
(808,460,o),
(808,499,o),
(800,536,cs),
(793,565,o),
(780,594,o),
(761,616,cs),
(736,644,o),
(696,665,o),
(659,661,cs),
(637,660,o),
(616,655,o),
(597,646,cs),
(578,638,o),
(558,630,o),
(542,617,c),
(540,616,o),
(531,611,o),
(529,610,cs),
(497,592,o),
(310,465,o),
(279,447,cs),
(233,421,o),
(186,395,o),
(135,382,c),
(130,380,o),
(108,377,o),
(103,378,cs),
(89,379,o),
(76,390,o),
(68,401,cs),
(66,403,o),
(59,418,o),
(57,420,cs),
(56,421,o),
(50,425,o),
(50,426,cs),
(49,441,o),
(50,457,o),
(51,473,cs),
(51,483,o),
(37,485,o),
(35,475,cs),
(33,467,o),
(33,430,o),
(34,423,c),
(29,419,o),
(26,413,o),
(26,407,cs),
(28,380,o),
(43,350,o),
(66,335,cs),
(84,324,o),
(106,321,o),
(127,321,cs),
(161,321,o),
(195,331,o),
(228,340,cs),
(257,347,o),
(285,358,o),
(314,368,cs),
(322,371,o),
(368,390,o),
(376,394,cs),
(394,403,o),
(499,455,o),
(517,464,cs),
(555,485,o),
(596,504,o),
(638,514,c),
(646,476,o),
(635,436,o),
(620,400,cs),
(602,356,o),
(578,314,o),
(554,273,c),
(517,268,o),
(344,236,o),
(309,223,cs),
(291,217,o),
(313,191,o),
(320,210,c),
(330,213,o),
(339,215,o),
(349,217,cs),
(413,232,o),
(477,245,o),
(542,254,c),
(530,234,o),
(458,122,o),
(448,102,cs),
(440,89,o),
(434,75,o),
(431,60,cs),
(425,35,o),
(428,5,o),
(440,-17,cs),
(457,-46,o),
(493,-59,o),
(524,-48,cs)
);
}
);
width = 924;
}
);
note = seven;
unicode = 55;
},
{
glyphname = eight;
layers = (
{
layerId = m01;
shapes = (
{
closed = 1;
nodes = (
(400,8,o),
(439,49,o),
(468,94,cs),
(482,117,o),
(492,142,o),
(502,166,cs),
(515,201,o),
(523,238,o),
(525,274,cs),
(526,294,o),
(525,315,o),
(518,333,cs),
(510,357,o),
(493,378,o),
(472,391,cs),
(445,406,o),
(412,411,o),
(381,411,c),
(392,426,o),
(401,443,o),
(407,461,cs),
(417,492,o),
(399,526,o),
(366,532,cs),
(335,537,o),
(300,527,o),
(272,512,cs),
(227,486,o),
(193,445,o),
(164,403,c),
(140,406,o),
(115,416,o),
(101,434,cs),
(84,457,o),
(78,488,o),
(82,516,cs),
(94,596,o),
(174,647,o),
(252,625,cs),
(300,612,o),
(345,581,o),
(375,542,c),
(376,540,o),
(383,534,o),
(384,532,c),
(391,527,o),
(401,535,o),
(397,543,cs),
(382,569,o),
(358,589,o),
(334,608,cs),
(303,632,o),
(264,647,o),
(225,652,cs),
(184,656,o),
(139,641,o),
(107,614,cs),
(73,586,o),
(49,542,o),
(44,498,cs),
(40,466,o),
(48,430,o),
(68,405,cs),
(85,384,o),
(113,371,o),
(139,365,c),
(104,304,o),
(82,234,o),
(76,164,cs),
(72,118,o),
(79,68,o),
(102,28,cs),
(116,4,o),
(136,-17,o),
(159,-31,cs),
(183,-44,o),
(212,-51,o),
(239,-51,cs),
(278,-51,o),
(318,-36,o),
(353,-18,cs)
);
},
{
closed = 1;
nodes = (
(282,279,o),
(309,319,o),
(339,355,c),
(366,354,o),
(396,354,o),
(421,342,cs),
(446,331,o),
(437,298,o),
(427,272,cs),
(414,240,o),
(396,208,o),
(371,183,cs),
(355,167,o),
(335,153,o),
(315,142,cs),
(294,130,o),
(271,120,o),
(248,117,c),
(239,156,o),
(251,198,o),
(265,236,cs)
);
}
);
width = 560;
}
);
note = eight;
unicode = 56;
},
{
glyphname = nine;
layers = (
{
layerId = m01;
shapes = (
{
closed = 1;
nodes = (
(521,-31,o),
(555,-18,o),
(585,1,cs),
(640,35,o),
(687,86,o),
(714,145,cs),
(746,212,o),
(764,288,o),
(759,362,cs),
(756,419,o),
(747,478,o),
(723,529,cs),
(718,539,o),
(694,586,o),
(688,595,cs),
(669,619,o),
(645,640,o),
(618,652,cs),
(609,657,o),
(599,662,o),
(589,664,cs),
(580,665,o),
(570,664,o),
(561,668,cs),
(547,673,o),
(529,669,o),
(518,658,c),
(505,665,o),
(489,668,o),
(474,670,cs),
(438,673,o),
(400,665,o),
(368,648,cs),
(337,631,o),
(308,606,o),
(286,577,cs),
(262,545,o),
(241,509,o),
(234,470,cs),
(228,443,o),
(235,417,o),
(253,397,cs),
(295,349,o),
(383,354,o),
(436,388,cs),
(495,426,o),
(538,493,o),
(555,560,c),
(560,549,o),
(564,537,o),
(568,526,cs),
(569,524,o),
(574,514,o),
(574,512,c),
(582,485,o),
(587,456,o),
(590,428,cs),
(595,391,o),
(597,353,o),
(592,316,cs),
(586,278,o),
(576,239,o),
(556,207,cs),
(543,186,o),
(526,166,o),
(506,151,cs),
(468,125,o),
(419,114,o),
(373,114,cs),
(335,115,o),
(295,122,o),
(261,140,cs),
(233,155,o),
(201,175,o),
(193,206,c),
(199,209,o),
(227,221,o),
(232,225,cs),
(248,239,o),
(250,263,o),
(236,278,cs),
(225,292,o),
(180,303,o),
(163,305,cs),
(147,306,o),
(131,306,o),
(115,303,cs),
(63,294,o),
(26,235,o),
(29,182,cs),
(31,147,o),
(47,113,o),
(66,85,cs),
(97,41,o),
(144,7,o),
(192,-15,cs),
(284,-58,o),
(388,-67,o),
(486,-41,cs)
);
},
{
closed = 1;
nodes = (
(303,408,o),
(281,415,o),
(271,431,cs),
(247,469,o),
(286,537,o),
(316,571,cs),
(343,603,o),
(378,632,o),
(419,642,cs),
(448,650,o),
(480,654,o),
(508,643,c),
(501,625,o),
(506,608,o),
(522,595,c),
(522,581,o),
(519,567,o),
(515,555,cs),
(499,513,o),
(475,472,o),
(441,442,cs),
(409,415,o),
(363,400,o),
(322,405,cs)
);
}
);
width = 803;
}
);
note = nine;
unicode = 57;
},
{
glyphname = colon;
layers = (
{
layerId = m01;
shapes = (
{
closed = 1;
nodes = (
(175,350,o),
(193,360,o),
(206,374,cs),
(228,396,o),
(244,425,o),
(252,455,cs),
(259,481,o),
(258,512,o),
(244,536,cs),
(227,564,o),
(192,583,o),
(159,581,cs),
(134,579,o),
(109,569,o),
(90,553,cs),
(53,525,o),
(22,468,o),
(45,427,cs),
(46,425,o),
(48,424,o),
(47,422,c),
(45,404,o),
(48,384,o),
(57,368,cs),
(76,336,o),
(124,328,o),
(158,343,cs)
);
},
{
closed = 1;
nodes = (
(125,443,o),
(136,459,o),
(151,468,c),
(148,457,o),
(130,429,o),
(119,422,cs),
(118,421,o),
(114,425,o),
(115,427,cs)
);
},
{
closed = 1;
nodes = (
(192,-21,o),
(225,-2,o),
(246,25,cs),
(268,52,o),
(281,90,o),
(280,125,cs),
(279,136,o),
(276,147,o),
(273,158,cs),
(271,169,o),
(263,178,o),
(255,185,cs),
(254,186,o),
(256,189,o),
(256,191,c),
(260,210,o),
(238,224,o),
(219,220,cs),
(203,218,o),
(190,208,o),
(178,198,cs),
(155,178,o),
(136,155,o),
(116,132,cs),
(112,127,o),
(90,98,o),
(87,93,c),
(74,77,o),
(65,56,o),
(65,35,cs),
(65,-11,o),
(113,-41,o),
(158,-30,cs)
);
}
);
width = 319;
}
);
note = colon;
unicode = 58;
},
{
glyphname = semicolon;
layers = (
{
layerId = m01;
shapes = (
{
closed = 1;
nodes = (
(312,358,o),
(383,436,o),
(360,510,cs),
(352,535,o),
(330,557,o),
(305,567,cs),
(284,576,o),
(260,579,o),
(237,576,cs),
(207,572,o),
(177,559,o),
(154,540,c),
(134,540,o),
(113,533,o),
(97,522,cs),
(71,505,o),
(51,478,o),
(39,449,cs),
(31,432,o),
(27,411,o),
(30,392,cs),
(34,368,o),
(49,345,o),
(69,332,cs),
(81,325,o),
(94,320,o),
(108,316,cs),
(151,304,o),
(200,308,o),
(241,326,cs)
);
},
{
closed = 1;
nodes = (
(67,398,o),
(69,433,o),
(78,456,cs),
(88,480,o),
(106,504,o),
(129,516,c),
(124,509,o),
(95,473,o),
(90,466,cs),
(81,456,o),
(95,442,o),
(105,451,cs),
(108,453,o),
(124,470,o),
(126,472,cs),
(146,490,o),
(169,507,o),
(194,516,cs),
(197,517,o),
(210,513,o),
(214,513,cs),
(219,513,o),
(222,517,o),
(222,522,c),
(240,523,o),
(259,521,o),
(276,514,cs),
(282,512,o),
(295,502,o),
(296,496,cs),
(299,487,o),
(296,476,o),
(292,467,cs),
(286,454,o),
(276,443,o),
(266,432,cs),
(239,404,o),
(202,381,o),
(163,374,cs),
(138,369,o),
(109,371,o),
(88,385,cs)
);
},
{
closed = 1;
nodes = (
(328,18,o),
(352,71,o),
(341,125,cs),
(333,169,o),
(306,209,o),
(269,235,cs),
(245,252,o),
(213,263,o),
(184,257,cs),
(169,253,o),
(153,245,o),
(142,233,cs),
(131,219,o),
(125,198,o),
(127,180,cs),
(128,165,o),
(139,152,o),
(149,141,cs),
(157,134,o),
(168,131,o),
(177,126,cs),
(189,121,o),
(213,96,o),
(217,84,cs),
(218,79,o),
(216,65,o),
(214,60,cs),
(212,53,o),
(193,42,o),
(187,39,cs),
(183,37,o),
(161,29,o),
(157,27,cs),
(140,21,o),
(140,-5,o),
(157,-11,cs),
(163,-13,o),
(191,-19,o),
(196,-20,cs),
(224,-26,o),
(256,-24,o),
(280,-10,cs)
);
}
);
width = 404;
}
);
note = semicolon;
unicode = 59;
},
{
glyphname = less;
layers = (
{
layerId = m01;
shapes = (
{
closed = 1;
nodes = (
(363,184,o),
(349,210,o),
(332,229,cs),
(297,267,o),
(256,301,o),
(213,330,cs),
(202,338,o),
(132,383,o),
(121,391,c),
(150,404,o),
(279,466,o),
(303,486,cs),
(311,493,o),
(320,499,o),
(329,505,cs),
(363,529,o),
(391,560,o),
(414,594,cs),
(422,606,o),
(459,678,o),
(465,691,cs),
(471,702,o),
(457,710,o),
(451,699,cs),
(444,685,o),
(407,613,o),
(398,600,cs),
(379,572,o),
(349,550,o),
(319,533,cs),
(307,526,o),
(294,522,o),
(282,517,cs),
(215,488,o),
(149,458,o),
(80,434,c),
(48,443,o),
(19,412,o),
(25,378,cs),
(28,363,o),
(36,349,o),
(46,337,cs),
(69,310,o),
(95,285,o),
(120,260,cs),
(158,222,o),
(200,188,o),
(236,148,cs),
(253,128,o),
(273,105,o),
(299,100,cs),
(334,94,o),
(363,123,o),
(363,158,cs)
);
}
);
width = 482;
}
);
note = less;
unicode = 60;
},
{
glyphname = equal;
layers = (
{
layerId = m01;
shapes = (
{
closed = 1;
nodes = (
(467,397,o),
(549,414,o),
(565,420,cs),
(580,426,o),
(595,434,o),
(605,446,cs),
(615,458,o),
(623,474,o),
(621,489,cs),
(618,503,o),
(609,516,o),
(599,525,cs),
(586,535,o),
(570,539,o),
(555,542,cs),
(501,554,o),
(280,493,o),
(226,485,cs),
(218,484,o),
(168,473,o),
(160,472,cs),
(130,469,o),
(98,473,o),
(71,485,c),
(71,488,o),
(68,492,o),
(65,493,cs),
(60,495,o),
(52,492,o),
(47,495,cs),
(33,503,o),
(15,491,o),
(21,475,cs),
(30,452,o),
(82,414,o),
(106,405,cs),
(133,394,o),
(162,388,o),
(190,384,cs),
(213,381,o),
(235,382,o),
(257,380,cs),
(287,378,o),
(421,389,o),
(450,394,cs)
);
},
{
closed = 1;
nodes = (
(508,155,o),
(608,173,o),
(629,183,cs),
(639,188,o),
(659,199,o),
(668,192,cs),
(681,181,o),
(700,190,o),
(700,207,cs),
(700,216,o),
(688,234,o),
(681,240,cs),
(666,252,o),
(646,256,o),
(628,262,cs),
(585,277,o),
(429,247,o),
(385,239,cs),
(374,237,o),
(308,224,o),
(297,222,cs),
(284,220,o),
(203,200,o),
(190,198,c),
(194,203,o),
(199,207,o),
(204,212,cs),
(211,220,o),
(201,231,o),
(193,224,cs),
(181,214,o),
(171,201,o),
(163,187,cs),
(159,180,o),
(163,172,o),
(170,167,cs),
(179,162,o),
(220,151,o),
(229,149,cs),
(233,148,o),
(257,144,o),
(261,143,cs),
(335,130,o),
(412,140,o),
(485,151,cs)
);
}
);
width = 724;
}
);
note = equal;
unicode = 61;
},
{
glyphname = greater;
layers = (
{
layerId = m01;
shapes = (
{
closed = 1;
nodes = (
(233,156,o),
(227,178,o),
(220,198,c),
(234,218,o),
(253,233,o),
(272,248,cs),
(304,273,o),
(337,296,o),
(370,320,cs),
(410,349,o),
(451,380,o),
(481,420,cs),
(483,422,o),
(495,427,o),
(497,429,cs),
(527,454,o),
(500,501,o),
(462,491,cs),
(458,490,o),
(439,485,o),
(434,485,cs),
(357,494,o),
(279,509,o),
(203,527,cs),
(171,535,o),
(137,545,o),
(110,565,cs),
(89,580,o),
(72,602,o),
(65,627,cs),
(63,634,o),
(65,641,o),
(62,647,c),
(61,652,o),
(68,663,o),
(70,668,cs),
(71,670,o),
(70,673,o),
(70,676,cs),
(70,677,o),
(63,680,o),
(62,680,c),
(54,675,o),
(51,665,o),
(47,656,cs),
(46,654,o),
(40,643,o),
(40,640,cs),
(39,626,o),
(42,611,o),
(48,597,cs),
(60,566,o),
(84,538,o),
(113,521,cs),
(145,502,o),
(180,489,o),
(216,478,cs),
(251,468,o),
(286,459,o),
(321,452,c),
(242,419,o),
(162,377,o),
(101,317,cs),
(76,292,o),
(59,257,o),
(51,222,cs),
(36,152,o),
(95,80,o),
(166,83,cs),
(196,84,o),
(222,106,o),
(228,135,cs)
);
}
);
width = 530;
}
);
note = greater;
unicode = 62;
},
{
glyphname = question;
layers = (
{
layerId = m01;
shapes = (
{
closed = 1;
nodes = (
(353,262,o),
(368,271,o),
(378,284,cs),
(390,299,o),
(396,318,o),
(400,336,cs),
(408,374,o),
(391,442,o),
(360,464,c),
(373,465,o),
(445,470,o),
(459,474,cs),
(511,487,o),
(565,501,o),
(612,528,cs),
(631,539,o),
(651,553,o),
(662,572,cs),
(669,585,o),
(672,601,o),
(672,616,cs),
(672,647,o),
(660,680,o),
(639,704,cs),
(606,742,o),
(555,765,o),
(506,776,cs),
(464,786,o),
(420,783,o),
(377,779,cs),
(288,772,o),
(200,744,o),
(121,703,cs),
(95,689,o),
(71,670,o),
(50,649,cs),
(20,620,o),
(13,568,o),
(39,536,cs),
(58,513,o),
(91,507,o),
(117,522,cs),
(119,523,o),
(131,533,o),
(133,534,cs),
(163,553,o),
(196,565,o),
(229,576,cs),
(288,596,o),
(350,608,o),
(411,614,cs),
(425,616,o),
(502,621,o),
(515,621,cs),
(534,622,o),
(583,619,o),
(596,604,c),
(599,602,o),
(601,593,o),
(600,589,c),
(599,573,o),
(586,559,o),
(574,550,cs),
(543,526,o),
(503,512,o),
(465,508,cs),
(440,506,o),
(416,503,o),
(392,499,cs),
(383,497,o),
(327,484,o),
(318,482,cs),
(317,482,o),
(311,482,o),
(309,482,cs),
(296,482,o),
(281,476,o),
(272,465,cs),
(260,451,o),
(255,431,o),
(252,412,cs),
(251,405,o),
(240,373,o),
(237,366,cs),
(227,345,o),
(228,317,o),
(238,296,cs),
(248,274,o),
(271,253,o),
(296,251,cs),
(310,250,o),
(325,249,o),
(339,255,cs)
);
},
{
closed = 1;
nodes = (
(351,-72,o),
(386,-64,o),
(416,-46,cs),
(433,-36,o),
(449,-22,o),
(457,-4,cs),
(463,9,o),
(466,24,o),
(463,38,cs),
(459,65,o),
(443,91,o),
(421,108,cs),
(412,115,o),
(401,120,o),
(390,122,cs),
(368,126,o),
(344,119,o),
(325,108,cs),
(315,102,o),
(285,79,o),
(280,69,cs),
(272,56,o),
(271,37,o),
(277,24,cs),
(293,-11,o),
(342,-15,o),
(361,18,cs),
(366,27,o),
(368,38,o),
(367,48,c),
(364,60,o),
(367,75,o),
(376,84,cs),
(392,100,o),
(416,79,o),
(423,57,cs),
(424,52,o),
(426,46,o),
(425,40,cs),
(419,8,o),
(359,-20,o),
(327,-30,cs),
(270,-47,o),
(217,8,o),
(239,64,cs),
(257,109,o),
(304,141,o),
(349,159,cs),
(360,163,o),
(373,164,o),
(383,159,cs),
(388,157,o),
(390,152,o),
(394,149,cs),
(401,143,o),
(411,152,o),
(407,159,cs),
(401,168,o),
(390,173,o),
(380,175,cs),
(347,184,o),
(284,142,o),
(259,119,cs),
(232,95,o),
(208,59,o),
(210,22,cs),
(212,-35,o),
(260,-80,o),
(317,-75,cs)
);
}
);
width = 694;
}
);
note = question;
unicode = 63;
},
{
glyphname = at;
layers = (
{
layerId = m01;
shapes = (
{
closed = 1;
nodes = (
(363,56,o),
(398,139,o),
(394,188,cs),
(393,197,o),
(393,205,o),
(390,213,cs),
(384,230,o),
(372,245,o),
(356,254,cs),
(330,270,o),
(290,265,o),
(269,243,c),
(258,262,o),
(247,281,o),
(236,300,cs),
(224,320,o),
(175,425,o),
(167,447,cs),
(159,468,o),
(147,488,o),
(145,510,cs),
(145,517,o),
(152,541,o),
(154,548,cs),
(160,562,o),
(172,573,o),
(184,584,cs),
(227,622,o),
(284,649,o),
(341,660,cs),
(390,669,o),
(441,673,o),
(490,664,cs),
(502,662,o),
(515,659,o),
(527,654,cs),
(567,639,o),
(596,598,o),
(597,555,cs),
(597,525,o),
(589,495,o),
(581,466,cs),
(576,447,o),
(545,353,o),
(536,335,c),
(528,360,o),
(522,387,o),
(516,413,cs),
(511,431,o),
(507,448,o),
(499,464,c),
(499,494,o),
(474,517,o),
(444,515,cs),
(430,513,o),
(418,502,o),
(409,492,c),
(378,506,o),
(341,516,o),
(309,508,cs),
(293,504,o),
(276,499,o),
(265,488,cs),
(253,477,o),
(248,459,o),
(248,443,cs),
(248,414,o),
(256,386,o),
(264,358,cs),
(265,355,o),
(268,351,o),
(269,348,cs),
(284,308,o),
(331,294,o),
(369,311,cs),
(385,319,o),
(399,332,o),
(410,346,c),
(419,306,o),
(434,264,o),
(463,235,cs),
(475,222,o),
(489,210,o),
(505,203,cs),
(522,197,o),
(544,197,o),
(560,206,cs),
(574,214,o),
(582,229,o),
(592,242,c),
(596,249,o),
(608,282,o),
(610,289,cs),
(624,331,o),
(638,372,o),
(643,416,cs),
(650,463,o),
(654,512,o),
(646,560,cs),
(640,597,o),
(626,634,o),
(604,664,cs),
(585,690,o),
(555,709,o),
(525,719,cs),
(493,728,o),
(459,727,o),
(426,724,cs),
(354,717,o),
(282,698,o),
(215,668,cs),
(168,648,o),
(120,622,o),
(85,584,cs),
(77,574,o),
(70,562,o),
(63,551,cs),
(60,545,o),
(60,539,o),
(57,533,cs),
(47,510,o),
(41,484,o),
(41,458,cs),
(40,441,o),
(39,423,o),
(43,407,c),
(44,406,o),
(44,400,o),
(44,399,cs),
(49,351,o),
(63,304,o),
(81,259,cs),
(92,228,o),
(105,197,o),
(120,168,cs),
(143,124,o),
(168,79,o),
(205,46,cs),
(219,33,o),
(238,23,o),
(257,20,cs),
(279,17,o),
(302,21,o),
(321,31,cs)
);
},
{
closed = 1;
nodes = (
(284,433,o),
(274,458,o),
(280,467,cs),
(285,476,o),
(296,481,o),
(305,484,cs),
(334,495,o),
(369,490,o),
(398,480,c),
(371,447,o),
(354,407,o),
(326,376,c),
(309,388,o),
(297,405,o),
(289,423,cs)
);
}
);
width = 691;
}
);
note = at;
unicode = 64;
},
{
glyphname = A;
layers = (
{
layerId = m01;
shapes = (
{
closed = 1;
nodes = (
(639,-88,o),
(657,-76,o),
(665,-59,cs),
(674,-40,o),
(679,-17,o),
(674,3,cs),
(663,45,o),
(655,88,o),
(647,130,cs),
(637,184,o),
(628,238,o),
(620,292,c),
(647,292,o),
(742,286,o),
(766,300,cs),
(778,306,o),
(778,320,o),
(769,330,c),
(763,335,o),
(739,340,o),
(731,341,cs),
(692,350,o),
(651,355,o),
(611,359,c),
(607,389,o),
(588,561,o),
(582,591,cs),
(575,626,o),
(566,662,o),
(547,692,cs),
(525,726,o),
(491,755,o),
(452,766,cs),
(412,777,o),
(360,713,o),
(333,680,cs),
(296,634,o),
(261,584,o),
(234,531,cs),
(208,480,o),
(190,424,o),
(176,369,c),
(150,365,o),
(125,359,o),
(100,352,cs),
(81,346,o),
(63,341,o),
(47,331,cs),
(31,321,o),
(16,306,o),
(10,289,cs),
(3,271,o),
(8,245,o),
(23,232,cs),
(35,222,o),
(53,220,o),
(69,222,cs),
(97,227,o),
(123,237,o),
(150,244,c),
(142,181,o),
(140,114,o),
(159,54,cs),
(164,37,o),
(176,13,o),
(194,14,cs),
(198,14,o),
(202,10,o),
(206,11,cs),
(213,12,o),
(215,21,o),
(210,25,cs),
(208,27,o),
(204,27,o),
(203,30,cs),
(201,37,o),
(193,41,o),
(188,47,cs),
(185,52,o),
(178,72,o),
(177,77,cs),
(166,134,o),
(170,192,o),
(177,249,c),
(199,254,o),
(326,276,o),
(349,278,cs),
(362,280,o),
(436,289,o),
(449,290,c),
(456,235,o),
(493,-4,o),
(517,-54,cs),
(518,-57,o),
(527,-69,o),
(528,-71,cs),
(547,-98,o),
(592,-110,o),
(622,-96,cs)
);
},
{
closed = 1;
nodes = (
(279,377,o),
(239,375,o),
(199,371,c),
(213,426,o),
(231,481,o),
(257,531,cs),
(278,570,o),
(304,607,o),
(334,640,cs),
(359,668,o),
(388,696,o),
(423,711,c),
(426,700,o),
(423,651,o),
(423,639,cs),
(423,618,o),
(422,596,o),
(423,575,cs),
(426,507,o),
(432,439,o),
(439,371,c),
(399,375,o),
(359,373,o),
(319,375,cs)
);
}
);
width = 779;
}
);
note = A;
unicode = (65,192,193,194,195,196,197);
},
{
glyphname = B;
layers = (
{
layerId = m01;
shapes = (
{
closed = 1;
nodes = (
(615,60,o),
(679,125,o),
(708,201,cs),
(723,241,o),
(727,286,o),
(725,330,cs),
(722,370,o),
(706,412,o),
(683,445,cs),
(666,470,o),
(640,491,o),
(612,502,cs),
(570,518,o),
(522,521,o),
(477,515,c),
(487,542,o),
(498,570,o),
(498,599,cs),
(497,626,o),
(484,659,o),
(460,671,cs),
(443,679,o),
(422,678,o),
(403,673,cs),
(382,668,o),
(363,659,o),
(343,650,cs),
(323,641,o),
(303,631,o),
(284,618,c),
(294,652,o),
(297,689,o),
(288,723,cs),
(285,738,o),
(273,752,o),
(258,748,c),
(247,751,o),
(235,749,o),
(225,743,cs),
(207,734,o),
(193,717,o),
(182,700,cs),
(160,666,o),
(146,626,o),
(131,588,cs),
(93,494,o),
(57,396,o),
(42,295,cs),
(30,211,o),
(31,123,o),
(47,39,cs),
(52,17,o),
(65,-6,o),
(85,-16,cs),
(102,-24,o),
(123,-22,o),
(138,-9,cs),
(148,-1,o),
(154,10,o),
(160,21,c),
(176,5,o),
(197,-5,o),
(218,-13,cs),
(254,-27,o),
(294,-32,o),
(333,-32,cs),
(406,-33,o),
(482,-17,o),
(545,19,cs)
);
},
{
closed = 1;
nodes = (
(236,473,o),
(317,582,o),
(334,601,cs),
(355,625,o),
(383,645,o),
(414,654,cs),
(429,659,o),
(453,659,o),
(461,645,cs),
(470,628,o),
(462,588,o),
(452,571,cs),
(447,562,o),
(440,554,o),
(434,546,cs),
(428,537,o),
(389,505,o),
(381,498,cs),
(380,497,o),
(375,493,o),
(374,492,c),
(316,473,o),
(259,449,o),
(208,415,c),
(210,421,o),
(218,447,o),
(222,452,cs)
);
},
{
closed = 1;
nodes = (
(245,161,o),
(231,167,o),
(220,177,cs),
(216,180,o),
(200,201,o),
(197,205,cs),
(189,213,o),
(181,224,o),
(170,228,cs),
(167,229,o),
(175,230,o),
(178,230,cs),
(210,229,o),
(241,245,o),
(267,263,cs),
(282,273,o),
(360,303,o),
(377,309,cs),
(427,327,o),
(481,340,o),
(535,338,cs),
(558,337,o),
(586,333,o),
(601,315,cs),
(605,310,o),
(600,294,o),
(599,287,cs),
(597,280,o),
(593,274,o),
(589,268,cs),
(585,261,o),
(563,235,o),
(557,230,cs),
(525,200,o),
(485,175,o),
(443,162,cs),
(384,145,o),
(318,141,o),
(259,157,cs)
);
}
);
width = 748;
}
);
note = B;
unicode = 66;
},
{
glyphname = C;
layers = (
{
layerId = m01;
shapes = (
{
closed = 1;
nodes = (
(620,33,o),
(682,76,o),
(715,134,cs),
(742,182,o),
(755,236,o),
(751,291,cs),
(750,316,o),
(743,340,o),
(736,364,cs),
(730,380,o),
(716,393,o),
(702,403,cs),
(691,410,o),
(675,405,o),
(666,395,cs),
(661,389,o),
(650,361,o),
(648,354,cs),
(646,346,o),
(646,338,o),
(645,330,cs),
(642,315,o),
(638,301,o),
(635,286,cs),
(631,265,o),
(618,246,o),
(603,230,cs),
(581,208,o),
(552,193,o),
(522,184,cs),
(486,172,o),
(446,167,o),
(408,170,cs),
(350,175,o),
(292,198,o),
(247,234,cs),
(228,249,o),
(213,268,o),
(198,287,cs),
(167,329,o),
(152,382,o),
(140,433,cs),
(139,440,o),
(134,475,o),
(135,483,cs),
(135,489,o),
(141,513,o),
(144,519,cs),
(151,532,o),
(159,547,o),
(170,556,cs),
(185,569,o),
(204,580,o),
(223,580,cs),
(254,581,o),
(286,576,o),
(314,564,cs),
(347,550,o),
(373,518,o),
(392,487,c),
(385,451,o),
(383,412,o),
(394,377,cs),
(398,364,o),
(407,353,o),
(417,344,cs),
(433,328,o),
(462,329,o),
(480,343,cs),
(490,352,o),
(498,364,o),
(503,376,cs),
(511,395,o),
(510,417,o),
(513,437,cs),
(518,475,o),
(534,510,o),
(552,544,cs),
(558,556,o),
(594,621,o),
(598,634,cs),
(603,647,o),
(608,659,o),
(609,672,cs),
(611,711,o),
(598,758,o),
(559,763,cs),
(551,764,o),
(542,763,o),
(535,758,cs),
(519,748,o),
(504,735,o),
(493,720,cs),
(471,689,o),
(452,655,o),
(436,620,cs),
(420,587,o),
(406,552,o),
(398,516,c),
(383,537,o),
(366,557,o),
(346,573,cs),
(323,592,o),
(295,607,o),
(267,617,cs),
(249,622,o),
(231,622,o),
(213,620,cs),
(189,618,o),
(166,610,o),
(145,599,cs),
(126,588,o),
(109,574,o),
(90,561,cs),
(68,546,o),
(48,520,o),
(39,495,cs),
(23,450,o),
(21,400,o),
(30,353,cs),
(42,289,o),
(65,225,o),
(102,171,cs),
(130,131,o),
(162,91,o),
(203,64,cs),
(241,38,o),
(283,16,o),
(327,4,cs),
(403,-18,o),
(483,-15,o),
(557,11,cs)
);
}
);
width = 772;
}
);
note = C;
unicode = (67,199);
},
{
glyphname = D;
layers = (
{
layerId = m01;
shapes = (
{
closed = 1;
nodes = (
(321,-29,o),
(327,-19,o),
(328,-18,cs),
(353,6,o),
(383,24,o),
(413,39,cs),
(464,65,o),
(517,83,o),
(570,105,cs),
(627,128,o),
(683,155,o),
(734,190,cs),
(749,201,o),
(761,218,o),
(768,236,cs),
(777,259,o),
(776,287,o),
(768,310,cs),
(760,333,o),
(744,354,o),
(726,371,cs),
(692,405,o),
(647,427,o),
(602,444,cs),
(577,453,o),
(423,502,o),
(398,511,cs),
(332,533,o),
(267,560,o),
(206,595,cs),
(177,612,o),
(150,632,o),
(120,648,cs),
(118,649,o),
(105,656,o),
(103,657,cs),
(85,667,o),
(69,682,o),
(50,689,cs),
(44,691,o),
(37,692,o),
(31,691,cs),
(6,686,o),
(5,654,o),
(9,628,cs),
(14,599,o),
(23,571,o),
(35,544,cs),
(46,519,o),
(66,499,o),
(86,481,cs),
(128,444,o),
(179,418,o),
(229,395,c),
(239,367,o),
(237,336,o),
(233,307,cs),
(231,290,o),
(203,206,o),
(199,190,cs),
(192,163,o),
(191,134,o),
(190,106,cs),
(189,85,o),
(190,64,o),
(194,43,cs),
(200,14,o),
(217,-14,o),
(238,-35,cs),
(261,-58,o),
(297,-53,o),
(320,-30,cs)
);
},
{
closed = 1;
nodes = (
(281,229,o),
(306,304,o),
(284,372,c),
(343,349,o),
(403,330,o),
(463,310,cs),
(499,299,o),
(535,289,o),
(569,274,c),
(572,272,o),
(576,272,o),
(574,270,c),
(534,243,o),
(487,227,o),
(444,206,cs),
(408,189,o),
(375,167,o),
(345,142,cs),
(329,129,o),
(314,114,o),
(299,100,c),
(289,117,o),
(285,138,o),
(284,158,cs)
);
}
);
width = 786;
}
);
note = D;
unicode = 68;
},
{
glyphname = E;
layers = (
{
layerId = m01;
shapes = (
{
closed = 1;
nodes = (
(574,-12,o),
(609,7,o),
(640,32,cs),
(674,60,o),
(702,98,o),
(719,140,cs),
(738,190,o),
(741,248,o),
(729,300,cs),
(722,326,o),
(708,351,o),
(688,371,cs),
(678,381,o),
(654,387,o),
(641,380,cs),
(624,372,o),
(616,350,o),
(612,331,cs),
(608,318,o),
(608,303,o),
(608,289,cs),
(608,282,o),
(611,243,o),
(610,236,cs),
(609,224,o),
(601,213,o),
(594,204,cs),
(581,189,o),
(565,178,o),
(549,168,cs),
(512,148,o),
(472,133,o),
(431,128,cs),
(387,123,o),
(342,129,o),
(300,141,cs),
(271,149,o),
(244,162,o),
(218,175,cs),
(188,190,o),
(158,207,o),
(130,226,cs),
(113,237,o),
(97,252,o),
(88,270,c),
(104,280,o),
(125,283,o),
(144,280,cs),
(185,273,o),
(224,259,o),
(264,251,c),
(295,229,o),
(329,212,o),
(364,199,cs),
(374,195,o),
(405,201,o),
(416,205,cs),
(432,211,o),
(442,229,o),
(448,245,cs),
(459,279,o),
(454,311,o),
(434,340,cs),
(431,344,o),
(412,361,o),
(408,364,cs),
(399,373,o),
(385,376,o),
(373,381,cs),
(339,395,o),
(308,415,o),
(275,431,cs),
(263,437,o),
(214,457,o),
(205,467,cs),
(203,470,o),
(200,472,o),
(198,475,c),
(167,506,o),
(147,553,o),
(182,578,cs),
(203,593,o),
(259,577,o),
(284,567,c),
(301,522,o),
(333,482,o),
(368,449,cs),
(377,440,o),
(412,417,o),
(423,414,cs),
(464,404,o),
(495,443,o),
(500,485,cs),
(504,522,o),
(494,553,o),
(468,578,cs),
(462,585,o),
(453,588,o),
(445,593,cs),
(435,600,o),
(427,609,o),
(419,618,cs),
(402,636,o),
(387,657,o),
(378,680,cs),
(361,724,o),
(348,800,o),
(302,789,cs),
(289,786,o),
(279,773,o),
(272,760,cs),
(256,727,o),
(258,687,o),
(263,650,cs),
(265,631,o),
(268,612,o),
(274,594,c),
(244,601,o),
(211,608,o),
(180,601,cs),
(171,599,o),
(161,595,o),
(154,588,cs),
(146,579,o),
(142,566,o),
(139,554,cs),
(133,527,o),
(136,498,o),
(141,471,cs),
(147,437,o),
(156,403,o),
(170,371,c),
(133,366,o),
(92,357,o),
(62,334,cs),
(47,322,o),
(32,308,o),
(24,290,cs),
(13,263,o),
(14,231,o),
(23,203,cs),
(29,184,o),
(35,166,o),
(45,149,cs),
(56,132,o),
(67,116,o),
(79,100,cs),
(90,85,o),
(105,72,o),
(118,59,cs),
(193,-11,o),
(292,-51,o),
(394,-53,cs),
(443,-54,o),
(492,-43,o),
(537,-26,cs)
);
}
);
width = 756;
}
);
note = E;
unicode = (69,200,201,202,203);
},
{
glyphname = F;
layers = (
{
layerId = m01;
shapes = (
{
closed = 1;
nodes = (
(460,-61,o),
(492,-42,o),
(501,-29,cs),
(509,-18,o),
(517,-6,o),
(522,7,cs),
(534,40,o),
(533,80,o),
(520,112,cs),
(501,159,o),
(462,198,o),
(418,222,c),
(480,243,o),
(544,256,o),
(608,263,cs),
(620,265,o),
(651,268,o),
(659,277,cs),
(669,289,o),
(660,305,o),
(645,309,cs),
(625,315,o),
(603,315,o),
(582,314,cs),
(501,310,o),
(421,287,o),
(346,257,c),
(265,293,o),
(177,315,o),
(100,358,cs),
(97,360,o),
(95,362,o),
(93,364,cs),
(89,368,o),
(84,370,o),
(80,373,cs),
(71,381,o),
(60,391,o),
(56,403,cs),
(54,413,o),
(59,424,o),
(64,433,cs),
(77,453,o),
(99,468,o),
(121,478,cs),
(169,498,o),
(223,503,o),
(274,503,c),
(337,444,o),
(421,403,o),
(505,392,cs),
(531,388,o),
(557,386,o),
(583,384,cs),
(611,382,o),
(654,406,o),
(666,432,cs),
(669,439,o),
(672,446,o),
(673,454,cs),
(678,482,o),
(663,515,o),
(641,533,cs),
(629,544,o),
(613,551,o),
(597,553,cs),
(556,556,o),
(514,559,o),
(475,573,cs),
(440,586,o),
(407,608,o),
(378,632,cs),
(364,645,o),
(290,720,o),
(277,733,cs),
(257,753,o),
(221,764,o),
(196,753,cs),
(185,748,o),
(174,741,o),
(166,732,cs),
(156,719,o),
(149,702,o),
(149,686,cs),
(149,670,o),
(156,654,o),
(165,640,cs),
(189,602,o),
(214,565,o),
(245,533,c),
(200,531,o),
(153,525,o),
(111,508,cs),
(82,496,o),
(55,476,o),
(36,450,cs),
(19,427,o),
(8,394,o),
(14,366,cs),
(16,353,o),
(21,340,o),
(28,329,cs),
(32,321,o),
(36,311,o),
(44,305,cs),
(46,304,o),
(48,302,o),
(49,300,c),
(68,277,o),
(90,258,o),
(112,240,cs),
(118,235,o),
(157,209,o),
(163,204,cs),
(168,200,o),
(201,180,o),
(206,176,c),
(180,150,o),
(162,108,o),
(191,84,cs),
(199,78,o),
(211,86,o),
(207,96,cs),
(205,100,o),
(201,104,o),
(201,108,cs),
(202,125,o),
(233,144,o),
(247,152,c),
(288,127,o),
(333,105,o),
(364,67,cs),
(367,64,o),
(369,59,o),
(369,54,cs),
(370,47,o),
(361,24,o),
(359,18,cs),
(350,-5,o),
(357,-32,o),
(376,-47,cs),
(387,-55,o),
(400,-61,o),
(413,-63,cs),
(423,-65,o),
(434,-63,o),
(444,-62,cs)
);
}
);
width = 692;
}
);
note = F;
unicode = 70;
},
{
glyphname = G;
layers = (
{
layerId = m01;
shapes = (
{
closed = 1;
nodes = (
(451,31,o),
(474,40,o),
(490,55,cs),
(502,67,o),
(511,82,o),
(514,97,cs),
(516,109,o),
(515,121,o),
(510,132,c),
(554,123,o),
(598,111,o),
(642,107,cs),
(660,106,o),
(679,110,o),
(696,117,cs),
(717,126,o),
(739,148,o),
(741,171,cs),
(742,183,o),
(742,196,o),
(737,207,cs),
(728,227,o),
(712,244,o),
(694,256,cs),
(672,269,o),
(647,276,o),
(621,282,cs),
(503,308,o),
(384,331,o),
(265,353,cs),
(251,356,o),
(181,370,o),
(168,375,cs),
(157,379,o),
(145,383,o),
(133,383,cs),
(98,383,o),
(69,358,o),
(63,323,cs),
(59,302,o),
(68,278,o),
(80,260,cs),
(84,255,o),
(102,239,o),
(107,236,cs),
(148,207,o),
(200,196,o),
(249,185,cs),
(278,179,o),
(458,143,o),
(488,137,c),
(509,103,o),
(482,65,o),
(444,52,cs),
(423,45,o),
(399,45,o),
(377,47,cs),
(341,51,o),
(306,62,o),
(273,76,cs),
(198,109,o),
(129,166,o),
(84,234,cs),
(53,281,o),
(39,342,o),
(39,398,cs),
(39,436,o),
(53,476,o),
(76,506,cs),
(87,520,o),
(101,532,o),
(116,540,cs),
(144,556,o),
(177,563,o),
(208,563,cs),
(256,563,o),
(303,550,o),
(347,533,c),
(371,497,o),
(402,464,o),
(436,437,cs),
(458,420,o),
(482,404,o),
(508,394,cs),
(528,386,o),
(553,387,o),
(574,393,cs),
(597,399,o),
(625,430,o),
(627,454,cs),
(628,471,o),
(626,490,o),
(617,505,cs),
(608,521,o),
(593,533,o),
(577,542,cs),
(527,573,o),
(483,611,o),
(439,649,cs),
(415,669,o),
(392,692,o),
(366,711,cs),
(346,725,o),
(317,737,o),
(308,715,cs),
(294,676,o),
(303,629,o),
(319,591,c),
(275,594,o),
(230,593,o),
(186,586,cs),
(149,579,o),
(110,564,o),
(82,538,cs),
(49,506,o),
(27,458,o),
(24,411,cs),
(19,348,o),
(33,278,o),
(68,224,cs),
(127,134,o),
(229,66,o),
(334,39,cs),
(365,31,o),
(397,25,o),
(429,28,cs)
);
}
);
width = 751;
}
);
note = G;
unicode = 71;
},
{
glyphname = H;
kernLeft = H;
layers = (
{
layerId = m01;
shapes = (
{
closed = 1;
nodes = (
(532,-84,o),
(542,-75,o),
(552,-66,cs),
(559,-58,o),
(572,-30,o),
(573,-20,cs),
(575,-5,o),
(575,10,o),
(573,24,cs),
(557,155,o),
(548,288,o),
(554,420,cs),
(554,432,o),
(557,501,o),
(559,513,cs),
(560,521,o),
(565,559,o),
(564,567,cs),
(564,573,o),
(558,604,o),
(557,609,cs),
(550,652,o),
(499,670,o),
(466,642,cs),
(457,635,o),
(447,629,o),
(438,620,cs),
(425,606,o),
(416,587,o),
(411,568,cs),
(401,532,o),
(393,496,o),
(389,459,c),
(322,427,o),
(257,387,o),
(202,336,c),
(198,376,o),
(198,417,o),
(198,457,cs),
(198,504,o),
(204,551,o),
(199,598,cs),
(198,613,o),
(195,629,o),
(187,643,cs),
(182,652,o),
(169,655,o),
(160,650,cs),
(138,639,o),
(120,620,o),
(104,601,cs),
(99,596,o),
(82,569,o),
(79,563,cs),
(50,501,o),
(37,430,o),
(37,361,cs),
(38,256,o),
(63,151,o),
(91,49,cs),
(95,35,o),
(101,22,o),
(110,11,cs),
(115,5,o),
(123,0,o),
(129,-6,cs),
(145,-22,o),
(172,-34,o),
(195,-28,cs),
(206,-25,o),
(219,-21,o),
(227,-13,cs),
(236,-4,o),
(245,6,o),
(248,17,cs),
(249,22,o),
(256,46,o),
(257,51,cs),
(259,64,o),
(258,79,o),
(254,92,cs),
(236,165,o),
(216,238,o),
(205,312,c),
(214,322,o),
(224,332,o),
(235,340,cs),
(280,375,o),
(333,400,o),
(386,422,c),
(381,359,o),
(382,296,o),
(385,234,cs),
(389,153,o),
(394,72,o),
(406,-8,cs),
(415,-64,o),
(466,-108,o),
(519,-89,cs)
);
}
);
width = 616;
}
);
note = H;
unicode = 72;
},
{
glyphname = I;
layers = (
{
layerId = m01;
shapes = (
{
closed = 1;
nodes = (
(113,607,o),
(119,637,o),
(100,653,cs),
(97,655,o),
(94,658,o),
(91,662,cs),
(85,673,o),
(72,676,o),
(62,670,cs),
(48,662,o),
(37,641,o),
(41,626,cs),
(47,604,o),
(69,591,o),
(91,599,cs)
);
},
{
closed = 1;
nodes = (
(249,20,o),
(256,32,o),
(261,44,cs),
(266,54,o),
(269,84,o),
(266,95,cs),
(258,127,o),
(245,158,o),
(236,190,cs),
(229,215,o),
(200,352,o),
(196,379,cs),
(192,406,o),
(190,435,o),
(175,459,cs),
(166,474,o),
(152,488,o),
(135,494,cs),
(94,508,o),
(55,480,o),
(41,439,cs),
(33,416,o),
(33,389,o),
(35,364,cs),
(43,274,o),
(60,183,o),
(87,96,cs),
(94,76,o),
(102,57,o),
(111,38,cs),
(125,12,o),
(158,-7,o),
(188,-7,cs),
(206,-7,o),
(225,0,o),
(238,11,cs)
);
}
);
width = 287;
}
);
note = I;
unicode = (73,204,205,206,207);
},
{
glyphname = J;
kernRight = J;
layers = (
{
layerId = m01;
shapes = (
{
closed = 1;
nodes = (
(372,-65,o),
(415,-54,o),
(423,-52,cs),
(461,-42,o),
(491,5,o),
(487,45,cs),
(483,90,o),
(460,132,o),
(442,174,cs),
(420,224,o),
(400,277,o),
(393,332,cs),
(385,396,o),
(390,463,o),
(402,526,cs),
(407,549,o),
(415,572,o),
(424,594,cs),
(431,614,o),
(441,637,o),
(436,658,cs),
(430,679,o),
(418,701,o),
(399,710,cs),
(387,715,o),
(374,720,o),
(361,719,cs),
(348,718,o),
(334,716,o),
(324,709,cs),
(308,698,o),
(292,685,o),
(280,670,cs),
(261,645,o),
(250,615,o),
(242,585,cs),
(231,544,o),
(226,502,o),
(222,460,cs),
(214,367,o),
(224,269,o),
(256,182,cs),
(272,138,o),
(292,96,o),
(313,55,c),
(283,57,o),
(253,67,o),
(225,78,cs),
(179,97,o),
(136,128,o),
(108,168,cs),
(72,220,o),
(52,289,o),
(59,352,c),
(60,355,o),
(59,358,o),
(59,361,c),
(57,365,o),
(64,380,o),
(65,385,cs),
(67,392,o),
(58,397,o),
(52,392,cs),
(49,390,o),
(44,370,o),
(42,367,c),
(34,359,o),
(31,346,o),
(29,334,cs),
(22,292,o),
(21,247,o),
(28,205,cs),
(35,159,o),
(53,114,o),
(79,76,cs),
(121,13,o),
(191,-33,o),
(263,-57,cs),
(295,-68,o),
(330,-69,o),
(364,-66,cs)
);
}
);
width = 507;
}
);
note = J;
unicode = 74;
},
{
glyphname = K;
layers = (
{
layerId = m01;
shapes = (
{
closed = 1;
nodes = (
(252,-43,o),
(261,-30,o),
(266,-15,cs),
(274,6,o),
(272,30,o),
(269,52,cs),
(264,84,o),
(255,116,o),
(246,148,c),
(293,125,o),
(341,105,o),
(389,84,cs),
(423,70,o),
(457,57,o),
(492,48,cs),
(529,38,o),
(569,33,o),
(606,39,cs),
(678,52,o),
(736,109,o),
(749,182,cs),
(753,205,o),
(750,230,o),
(742,251,cs),
(731,281,o),
(710,307,o),
(686,329,cs),
(673,340,o),
(660,352,o),
(648,366,cs),
(635,381,o),
(611,364,o),
(621,346,cs),
(626,337,o),
(637,307,o),
(636,296,cs),
(634,283,o),
(632,268,o),
(625,256,cs),
(615,238,o),
(604,217,o),
(585,207,cs),
(559,193,o),
(482,219,o),
(453,227,cs),
(392,245,o),
(330,263,o),
(267,269,c),
(289,306,o),
(323,336,o),
(359,359,cs),
(402,386,o),
(449,407,o),
(496,427,cs),
(508,432,o),
(505,447,o),
(493,442,cs),
(436,420,o),
(379,400,o),
(327,369,cs),
(283,343,o),
(241,311,o),
(210,270,c),
(207,336,o),
(215,403,o),
(230,467,cs),
(239,507,o),
(254,547,o),
(268,586,cs),
(273,601,o),
(276,617,o),
(281,632,cs),
(286,648,o),
(289,665,o),
(289,681,cs),
(288,705,o),
(277,731,o),
(253,731,cs),
(246,731,o),
(225,724,o),
(219,721,cs),
(194,708,o),
(174,687,o),
(154,667,cs),
(149,662,o),
(128,633,o),
(124,627,cs),
(105,594,o),
(87,558,o),
(75,522,cs),
(44,427,o),
(34,324,o),
(43,225,cs),
(48,171,o),
(54,117,o),
(68,65,cs),
(75,36,o),
(84,8,o),
(97,-18,cs),
(126,-71,o),
(194,-92,o),
(240,-53,cs)
);
}
);
width = 764;
}
);
note = K;
unicode = 75;
},
{
glyphname = L;
layers = (
{
layerId = m01;
shapes = (
{
closed = 1;
nodes = (
(202,-11,o),
(224,16,o),
(244,43,cs),
(253,56,o),
(281,100,o),
(298,105,cs),
(303,107,o),
(330,109,o),
(335,110,c),
(370,111,o),
(572,112,o),
(607,111,cs),
(624,111,o),
(640,107,o),
(657,109,cs),
(662,110,o),
(677,118,o),
(681,122,cs),
(714,156,o),
(721,210,o),
(696,252,cs),
(689,264,o),
(680,275,o),
(668,281,cs),
(655,287,o),
(640,288,o),
(626,290,cs),
(590,294,o),
(417,290,o),
(381,286,cs),
(351,283,o),
(321,280,o),
(292,269,cs),
(286,266,o),
(262,250,o),
(257,245,cs),
(248,236,o),
(239,228,o),
(233,218,cs),
(211,187,o),
(195,153,o),
(180,118,cs),
(173,104,o),
(151,50,o),
(140,40,c),
(133,43,o),
(127,49,o),
(123,55,cs),
(103,80,o),
(93,112,o),
(87,143,cs),
(83,169,o),
(80,195,o),
(80,221,cs),
(79,282,o),
(83,344,o),
(99,402,cs),
(116,464,o),
(136,527,o),
(168,582,cs),
(181,604,o),
(228,674,o),
(250,685,cs),
(261,691,o),
(262,708,o),
(250,711,cs),
(244,713,o),
(234,704,o),
(229,700,cs),
(215,687,o),
(201,671,o),
(189,656,cs),
(119,572,o),
(74,466,o),
(50,360,cs),
(30,276,o),
(23,184,o),
(48,102,cs),
(61,61,o),
(78,20,o),
(106,-12,cs),
(114,-22,o),
(125,-31,o),
(137,-35,cs),
(149,-39,o),
(164,-37,o),
(175,-30,cs)
);
}
);
width = 722;
}
);
note = L;
unicode = 76;
},
{
glyphname = M;
layers = (
{
layerId = m01;
shapes = (
{
closed = 1;
nodes = (
(818,-74,o),
(833,-49,o),
(839,-25,cs),
(842,-14,o),
(839,28,o),
(837,39,cs),
(832,62,o),
(796,185,o),
(790,207,cs),
(773,267,o),
(763,329,o),
(761,390,cs),
(760,425,o),
(762,460,o),
(764,495,cs),
(766,526,o),
(769,556,o),
(769,587,cs),
(769,589,o),
(770,591,o),
(770,592,cs),
(772,599,o),
(770,606,o),
(769,613,cs),
(766,633,o),
(750,650,o),
(729,647,cs),
(696,643,o),
(642,573,o),
(623,546,cs),
(574,477,o),
(542,397,o),
(514,317,c),
(513,381,o),
(515,446,o),
(509,510,cs),
(506,539,o),
(493,570,o),
(470,588,cs),
(444,610,o),
(408,616,o),
(375,603,cs),
(355,596,o),
(336,582,o),
(320,566,cs),
(276,523,o),
(236,475,o),
(200,424,cs),
(176,390,o),
(154,356,o),
(136,320,c),
(135,372,o),
(136,424,o),
(132,477,cs),
(129,508,o),
(120,540,o),
(103,566,cs),
(87,589,o),
(64,610,o),
(38,619,c),
(37,623,o),
(33,626,o),
(29,625,cs),
(26,625,o),
(16,621,o),
(14,619,cs),
(8,614,o),
(12,605,o),
(20,606,c),
(26,608,o),
(40,595,o),
(45,591,cs),
(66,575,o),
(85,553,o),
(94,528,cs),
(105,496,o),
(107,460,o),
(107,426,cs),
(106,363,o),
(100,300,o),
(100,237,cs),
(100,233,o),
(94,218,o),
(93,214,cs),
(91,208,o),
(84,177,o),
(82,171,cs),
(74,149,o),
(79,105,o),
(95,89,cs),
(103,81,o),
(112,74,o),
(122,70,cs),
(136,65,o),
(153,66,o),
(167,71,cs),
(186,78,o),
(202,93,o),
(214,109,cs),
(215,111,o),
(219,122,o),
(220,123,cs),
(227,134,o),
(257,197,o),
(263,208,cs),
(286,253,o),
(313,296,o),
(344,336,c),
(344,290,o),
(348,244,o),
(355,199,cs),
(362,161,o),
(369,123,o),
(386,88,cs),
(393,73,o),
(424,51,o),
(440,48,cs),
(457,45,o),
(473,50,o),
(485,60,cs),
(495,69,o),
(513,99,o),
(514,112,cs),
(516,141,o),
(514,170,o),
(514,200,c),
(514,200,o),
(514,201,o),
(514,201,c),
(537,294,o),
(570,386,o),
(618,468,cs),
(643,512,o),
(674,554,o),
(713,585,c),
(705,557,o),
(697,529,o),
(688,502,cs),
(687,498,o),
(680,477,o),
(679,473,cs),
(679,472,o),
(679,466,o),
(678,465,c),
(656,393,o),
(638,317,o),
(639,241,cs),
(640,201,o),
(644,161,o),
(651,122,cs),
(655,99,o),
(679,-15,o),
(688,-38,cs),
(696,-57,o),
(713,-77,o),
(731,-87,cs),
(753,-98,o),
(776,-98,o),
(797,-87,cs)
);
}
);
width = 860;
}
);
note = M;
unicode = 77;
},
{
glyphname = N;
layers = (
{
layerId = m01;
shapes = (
{
closed = 1;
nodes = (
(239,-76,o),
(239,-70,o),
(239,-69,c),
(240,-67,o),
(246,-58,o),
(247,-56,cs),
(249,-51,o),
(244,-46,o),
(238,-46,c),
(237,-33,o),
(224,41,o),
(223,54,cs),
(220,69,o),
(207,155,o),
(206,170,cs),
(203,209,o),
(200,247,o),
(200,286,cs),
(200,315,o),
(202,345,o),
(211,373,c),
(254,270,o),
(283,161,o),
(337,64,cs),
(347,46,o),
(360,29,o),
(374,13,cs),
(388,-4,o),
(406,-21,o),
(428,-29,cs),
(459,-40,o),
(499,-27,o),
(513,3,cs),
(518,14,o),
(523,26,o),
(522,38,cs),
(521,48,o),
(519,58,o),
(517,67,cs),
(509,96,o),
(518,210,o),
(522,239,cs),
(527,270,o),
(533,301,o),
(541,332,cs),
(557,397,o),
(589,460,o),
(632,512,cs),
(647,531,o),
(663,549,o),
(682,562,c),
(684,559,o),
(694,546,o),
(696,543,cs),
(697,541,o),
(704,526,o),
(705,523,c),
(714,509,o),
(737,515,o),
(737,532,cs),
(737,540,o),
(735,548,o),
(735,556,cs),
(734,570,o),
(732,585,o),
(725,598,cs),
(718,610,o),
(704,621,o),
(690,623,cs),
(672,625,o),
(653,617,o),
(640,606,cs),
(601,572,o),
(574,524,o),
(553,477,cs),
(546,459,o),
(540,441,o),
(534,423,cs),
(503,326,o),
(499,223,o),
(494,122,c),
(475,165,o),
(454,208,o),
(437,253,cs),
(410,324,o),
(387,397,o),
(355,467,cs),
(336,507,o),
(307,547,o),
(267,566,cs),
(237,580,o),
(205,582,o),
(173,570,cs),
(144,560,o),
(119,539,o),
(99,515,cs),
(79,491,o),
(64,462,o),
(53,432,cs),
(33,371,o),
(31,304,o),
(36,241,cs),
(42,177,o),
(54,113,o),
(76,53,cs),
(92,7,o),
(121,-34,o),
(153,-71,cs),
(164,-83,o),
(176,-94,o),
(189,-101,c),
(190,-102,o),
(193,-103,o),
(194,-103,c),
(214,-120,o),
(244,-104,o),
(239,-78,cs)
);
}
);
width = 742;
}
);
note = N;
unicode = (78,209);
},
{
glyphname = O;
layers = (
{
layerId = m01;
shapes = (
{
closed = 1;
nodes = (
(456,-113,o),
(507,-99,o),
(549,-72,cs),
(621,-28,o),
(674,44,o),
(696,125,cs),
(702,148,o),
(707,170,o),
(707,193,cs),
(710,272,o),
(682,354,o),
(631,413,cs),
(601,449,o),
(561,478,o),
(517,494,cs),
(464,513,o),
(400,514,o),
(347,496,cs),
(246,461,o),
(186,349,o),
(214,245,cs),
(218,231,o),
(222,217,o),
(230,204,cs),
(245,180,o),
(268,160,o),
(292,145,cs),
(302,140,o),
(330,131,o),
(341,133,cs),
(368,138,o),
(384,170,o),
(368,193,cs),
(360,204,o),
(352,215,o),
(348,227,cs),
(346,233,o),
(343,261,o),
(343,267,cs),
(343,291,o),
(352,317,o),
(369,334,cs),
(376,341,o),
(386,347,o),
(396,350,cs),
(433,360,o),
(476,347,o),
(501,319,cs),
(527,289,o),
(546,250,o),
(547,210,cs),
(548,176,o),
(534,141,o),
(515,112,cs),
(499,87,o),
(475,66,o),
(448,54,cs),
(425,43,o),
(398,40,o),
(373,38,cs),
(340,36,o),
(307,35,o),
(275,43,cs),
(231,55,o),
(192,89,o),
(167,127,cs),
(124,193,o),
(108,283,o),
(124,360,cs),
(133,411,o),
(149,462,o),
(179,504,cs),
(213,553,o),
(264,593,o),
(321,613,cs),
(356,625,o),
(395,629,o),
(433,625,cs),
(446,623,o),
(459,617,o),
(472,615,cs),
(482,613,o),
(485,627,o),
(476,631,cs),
(470,633,o),
(437,639,o),
(431,640,cs),
(404,645,o),
(376,646,o),
(349,642,cs),
(296,634,o),
(244,612,o),
(201,580,cs),
(122,523,o),
(63,431,o),
(41,336,cs),
(33,299,o),
(27,261,o),
(28,223,cs),
(31,141,o),
(61,56,o),
(112,-8,cs),
(143,-48,o),
(188,-79,o),
(235,-97,cs),
(289,-116,o),
(349,-119,o),
(406,-116,cs)
);
}
);
width = 730;
}
);
note = O;
unicode = (79,210,211,212,213,214,216);
},
{
glyphname = P;
layers = (
{
layerId = m01;
shapes = (
{
closed = 1;
nodes = (
(343,-9,o),
(352,-4,o),
(359,2,cs),
(376,17,o),
(389,40,o),
(393,62,cs),
(396,80,o),
(393,99,o),
(390,116,cs),
(382,154,o),
(370,191,o),
(357,227,c),
(396,231,o),
(434,246,o),
(467,266,cs),
(520,299,o),
(569,346,o),
(593,403,cs),
(608,437,o),
(611,478,o),
(599,513,cs),
(588,549,o),
(561,579,o),
(532,602,cs),
(492,633,o),
(440,650,o),
(391,664,cs),
(388,665,o),
(369,668,o),
(366,669,cs),
(333,680,o),
(297,685,o),
(262,690,cs),
(212,697,o),
(161,709,o),
(110,701,cs),
(68,694,o),
(33,663,o),
(22,621,cs),
(17,604,o),
(16,585,o),
(18,567,cs),
(22,521,o),
(37,476,o),
(56,433,cs),
(83,372,o),
(119,316,o),
(150,256,cs),
(175,208,o),
(194,158,o),
(209,106,cs),
(215,87,o),
(217,67,o),
(222,48,cs),
(225,35,o),
(233,24,o),
(240,13,cs),
(259,-14,o),
(304,-27,o),
(335,-13,cs)
);
},
{
closed = 1;
nodes = (
(213,512,o),
(200,544,o),
(190,578,c),
(232,601,o),
(283,608,o),
(331,613,cs),
(392,620,o),
(460,609,o),
(509,573,cs),
(529,558,o),
(547,540,o),
(557,518,cs),
(565,499,o),
(567,478,o),
(564,458,cs),
(561,435,o),
(552,413,o),
(541,393,cs),
(521,357,o),
(492,323,o),
(457,300,cs),
(424,277,o),
(383,264,o),
(344,262,c),
(313,338,o),
(269,409,o),
(230,481,cs)
);
}
);
width = 622;
}
);
note = P;
unicode = 80;
},
{
glyphname = Q;
kernRight = Q;
layers = (
{
layerId = m01;
shapes = (
{
closed = 1;
nodes = (
(748,-69,o),
(758,-16,o),
(742,25,cs),
(730,57,o),
(710,86,o),
(689,112,cs),
(659,151,o),
(623,185,o),
(585,215,c),
(618,254,o),
(647,299,o),
(659,349,cs),
(669,389,o),
(664,435,o),
(651,474,cs),
(633,529,o),
(591,575,o),
(544,607,cs),
(488,645,o),
(417,662,o),
(350,660,cs),
(304,658,o),
(257,648,o),
(217,628,cs),
(189,614,o),
(165,593,o),
(143,571,cs),
(127,555,o),
(116,534,o),
(106,513,cs),
(99,497,o),
(91,481,o),
(87,465,cs),
(70,403,o),
(70,331,o),
(87,269,cs),
(89,263,o),
(92,256,o),
(94,250,c),
(69,229,o),
(46,203,o),
(35,173,cs),
(25,146,o),
(20,115,o),
(25,86,cs),
(30,65,o),
(40,42,o),
(57,28,cs),
(62,23,o),
(73,12,o),
(80,15,cs),
(87,18,o),
(86,26,o),
(80,31,c),
(70,37,o),
(62,46,o),
(55,55,cs),
(40,74,o),
(37,103,o),
(40,127,cs),
(42,147,o),
(50,167,o),
(64,181,cs),
(80,198,o),
(102,209,o),
(124,217,cs),
(146,224,o),
(170,229,o),
(193,225,cs),
(195,225,o),
(209,223,o),
(211,223,c),
(224,220,o),
(284,196,o),
(297,192,cs),
(328,180,o),
(358,163,o),
(388,148,c),
(347,128,o),
(302,109,o),
(257,112,cs),
(220,115,o),
(184,131,o),
(158,158,cs),
(148,167,o),
(133,158,o),
(142,147,cs),
(166,118,o),
(203,97,o),
(240,89,cs),
(307,73,o),
(381,87,o),
(444,114,c),
(492,81,o),
(534,39,o),
(568,-7,cs),
(578,-22,o),
(588,-37,o),
(599,-51,cs),
(613,-67,o),
(629,-82,o),
(649,-89,cs),
(667,-96,o),
(690,-96,o),
(708,-88,cs)
);
},
{
closed = 1;
nodes = (
(350,314,o),
(293,319,o),
(281,318,cs),
(261,316,o),
(240,316,o),
(220,311,cs),
(200,305,o),
(180,299,o),
(162,289,cs),
(156,286,o),
(151,283,o),
(145,280,c),
(145,307,o),
(151,333,o),
(157,359,cs),
(163,381,o),
(175,400,o),
(186,419,cs),
(203,446,o),
(227,469,o),
(254,487,cs),
(285,508,o),
(323,521,o),
(361,527,cs),
(377,530,o),
(393,532,o),
(408,531,cs),
(439,530,o),
(470,522,o),
(496,507,cs),
(526,490,o),
(552,464,o),
(567,433,cs),
(577,410,o),
(582,384,o),
(580,359,cs),
(576,320,o),
(555,282,o),
(528,253,c),
(477,282,o),
(420,304,o),
(362,312,cs)
);
}
);
width = 755;
}
);
note = Q;
unicode = 81;
},
{
glyphname = R;
layers = (
{
layerId = m01;
shapes = (
{
closed = 1;
nodes = (
(747,-6,o),
(769,23,o),
(771,52,cs),
(774,84,o),
(768,117,o),
(756,146,cs),
(753,153,o),
(739,191,o),
(737,199,cs),
(731,221,o),
(699,220,o),
(691,199,cs),
(683,177,o),
(671,156,o),
(661,135,c),
(619,151,o),
(579,174,o),
(540,197,cs),
(474,235,o),
(410,276,o),
(347,320,c),
(396,330,o),
(444,341,o),
(490,358,cs),
(543,376,o),
(596,400,o),
(634,440,cs),
(661,468,o),
(678,508,o),
(683,546,cs),
(685,566,o),
(679,589,o),
(664,602,cs),
(645,619,o),
(617,625,o),
(592,627,cs),
(543,630,o),
(492,623,o),
(446,608,cs),
(413,597,o),
(382,581,o),
(353,563,c),
(353,575,o),
(345,588,o),
(335,595,cs),
(308,614,o),
(264,583,o),
(239,561,cs),
(212,536,o),
(189,507,o),
(168,477,cs),
(111,395,o),
(60,306,o),
(34,210,cs),
(25,176,o),
(18,140,o),
(21,105,cs),
(23,78,o),
(31,48,o),
(48,27,cs),
(76,-6,o),
(125,-11,o),
(152,21,cs),
(167,38,o),
(168,63,o),
(168,85,cs),
(168,108,o),
(168,131,o),
(172,153,cs),
(179,190,o),
(194,225,o),
(209,260,c),
(214,256,o),
(240,228,o),
(245,223,cs),
(291,181,o),
(337,139,o),
(388,104,cs),
(455,57,o),
(524,11,o),
(600,-19,cs),
(620,-27,o),
(642,-31,o),
(664,-33,cs),
(683,-35,o),
(703,-27,o),
(721,-19,cs)
);
},
{
closed = 1;
nodes = (
(310,356,o),
(296,355,o),
(293,358,cs),
(289,362,o),
(269,374,o),
(264,377,c),
(273,396,o),
(324,500,o),
(335,518,cs),
(337,521,o),
(342,533,o),
(345,535,cs),
(385,561,o),
(429,583,o),
(475,596,cs),
(517,607,o),
(561,613,o),
(604,608,cs),
(625,605,o),
(650,598,o),
(661,579,cs),
(669,565,o),
(666,546,o),
(662,529,cs),
(655,496,o),
(637,463,o),
(611,441,cs),
(559,398,o),
(490,378,o),
(424,367,cs),
(405,364,o),
(333,350,o),
(314,355,cs)
);
}
);
width = 786;
}
);
note = R;
unicode = 82;
},
{
glyphname = S;
layers = (
{
layerId = m01;
shapes = (
{
closed = 1;
nodes = (
(303,-97,o),
(312,-95,o),
(320,-90,cs),
(343,-77,o),
(360,-55,o),
(379,-36,cs),
(408,-5,o),
(439,25,o),
(467,57,cs),
(511,110,o),
(552,166,o),
(591,223,cs),
(609,248,o),
(624,276,o),
(630,306,cs),
(635,331,o),
(630,358,o),
(619,379,cs),
(610,396,o),
(594,410,o),
(578,420,cs),
(547,438,o),
(508,441,o),
(473,438,cs),
(391,431,o),
(311,406,o),
(229,396,cs),
(206,393,o),
(180,392,o),
(158,400,cs),
(142,406,o),
(130,423,o),
(123,439,cs),
(117,454,o),
(118,471,o),
(118,487,cs),
(118,506,o),
(125,524,o),
(133,541,cs),
(147,571,o),
(169,598,o),
(197,616,cs),
(222,632,o),
(252,642,o),
(281,647,cs),
(349,659,o),
(487,641,o),
(530,587,cs),
(543,570,o),
(553,550,o),
(570,536,cs),
(578,529,o),
(588,541,o),
(581,548,cs),
(577,552,o),
(561,568,o),
(559,572,c),
(550,584,o),
(544,598,o),
(534,609,cs),
(514,631,o),
(486,645,o),
(459,655,cs),
(422,670,o),
(383,678,o),
(344,685,cs),
(282,696,o),
(214,687,o),
(158,659,cs),
(105,632,o),
(61,582,o),
(37,527,cs),
(30,509,o),
(23,490,o),
(21,471,cs),
(16,434,o),
(21,394,o),
(37,360,cs),
(57,318,o),
(91,286,o),
(136,270,cs),
(173,256,o),
(213,255,o),
(253,255,cs),
(317,257,o),
(381,272,o),
(445,279,c),
(415,240,o),
(382,203,o),
(347,168,cs),
(309,131,o),
(269,96,o),
(233,56,cs),
(209,30,o),
(200,1,o),
(203,-35,cs),
(204,-45,o),
(216,-71,o),
(223,-79,cs),
(231,-87,o),
(258,-106,o),
(269,-107,cs),
(278,-108,o),
(288,-107,o),
(295,-102,cs)
);
}
);
width = 651;
}
);
note = S;
unicode = 83;
},
{
glyphname = T;
lastChange = "2023-11-14 18:48:09 +0000";
layers = (
{
layerId = m01;
shapes = (
{
closed = 1;
nodes = (
(468,28,o),
(485,53,o),
(493,80,cs),
(494,85,o),
(499,110,o),
(500,115,cs),
(502,129,o),
(501,145,o),
(499,159,c),
(499,170,o),
(486,210,o),
(480,220,cs),
(468,241,o),
(441,244,o),
(421,229,cs),
(397,212,o),
(374,195,o),
(355,171,cs),
(347,163,o),
(309,120,o),
(299,113,cs),
(291,106,o),
(277,105,o),
(265,105,cs),
(243,105,o),
(217,113,o),
(203,129,cs),
(197,136,o),
(187,159,o),
(186,167,cs),
(184,189,o),
(182,211,o),
(185,232,cs),
(193,295,o),
(226,351,o),
(263,402,cs),
(277,423,o),
(301,439,o),
(324,451,cs),
(327,453,o),
(329,459,o),
(332,458,cs),
(373,438,o),
(415,421,o),
(459,409,cs),
(517,393,o),
(579,384,o),
(638,398,cs),
(668,404,o),
(698,418,o),
(722,437,cs),
(751,459,o),
(773,498,o),
(773,535,cs),
(773,583,o),
(738,625,o),
(690,625,cs),
(673,625,o),
(657,620,o),
(642,612,cs),
(637,610,o),
(613,590,o),
(608,586,cs),
(582,570,o),
(512,587,o),
(484,597,cs),
(364,641,o),
(257,715,o),
(149,782,cs),
(129,794,o),
(103,796,o),
(80,794,cs),
(71,793,o),
(62,788,o),
(53,784,cs),
(37,776,o),
(25,759,o),
(18,743,cs),
(13,734,o),
(13,724,o),
(12,715,cs),
(11,697,o),
(20,680,o),
(28,663,cs),
(38,641,o),
(105,592,o),
(125,579,cs),
(185,536,o),
(248,499,o),
(314,467,c),
(262,434,o),
(222,384,o),
(185,334,cs),
(155,291,o),
(130,245,o),
(111,195,cs),
(96,154,o),
(92,107,o),
(103,65,cs),
(104,58,o),
(116,35,o),
(119,30,cs),
(139,-4,o),
(172,-32,o),
(207,-48,cs),
(291,-86,o),
(393,-64,o),
(449,6,cs)
);
}
);
width = 708;
}
);
note = T;
unicode = 84;
},
{
glyphname = U;
layers = (
{
layerId = m01;
shapes = (
{
closed = 1;
nodes = (
(391,50,o),
(421,83,o),
(442,120,cs),
(479,182,o),
(499,256,o),
(502,328,cs),
(504,391,o),
(498,454,o),
(484,515,cs),
(477,546,o),
(473,578,o),
(465,609,cs),
(463,615,o),
(458,642,o),
(453,647,cs),
(443,659,o),
(424,654,o),
(421,639,cs),
(419,627,o),
(421,571,o),
(422,559,cs),
(423,549,o),
(423,496,o),
(423,486,cs),
(422,426,o),
(419,364,o),
(401,307,cs),
(390,273,o),
(375,239,o),
(353,212,cs),
(333,187,o),
(311,162,o),
(283,147,cs),
(257,134,o),
(227,119,o),
(198,125,cs),
(191,126,o),
(181,131,o),
(179,139,cs),
(176,151,o),
(177,163,o),
(178,175,cs),
(179,192,o),
(183,210,o),
(186,228,cs),
(188,244,o),
(212,331,o),
(216,347,cs),
(225,385,o),
(235,423,o),
(241,462,cs),
(246,499,o),
(251,537,o),
(251,575,cs),
(251,626,o),
(248,680,o),
(226,726,cs),
(220,739,o),
(210,749,o),
(198,756,cs),
(180,768,o),
(148,755,o),
(162,739,cs),
(164,737,o),
(169,729,o),
(169,725,cs),
(169,714,o),
(158,655,o),
(156,644,cs),
(146,586,o),
(131,529,o),
(114,473,cs),
(83,368,o),
(34,265,o),
(25,156,cs),
(22,122,o),
(31,87,o),
(46,57,cs),
(68,10,o),
(123,-22,o),
(174,-30,cs),
(237,-39,o),
(309,-17,o),
(358,23,cs)
);
}
);
width = 539;
}
);
note = U;
unicode = (85,217,218,219,220);
},
{
glyphname = V;
kernRight = V;
layers = (
{
layerId = m01;
shapes = (
{
closed = 1;
nodes = (
(297,3,o),
(304,7,o),
(308,13,c),
(316,21,o),
(321,32,o),
(323,43,cs),
(324,50,o),
(328,55,o),
(330,62,cs),
(339,90,o),
(350,118,o),
(363,145,cs),
(449,325,o),
(555,497,o),
(619,685,cs),
(627,709,o),
(627,738,o),
(613,759,cs),
(609,765,o),
(592,791,o),
(586,795,cs),
(577,802,o),
(565,807,o),
(553,806,cs),
(538,805,o),
(496,790,o),
(485,780,cs),
(478,773,o),
(471,766,o),
(467,758,cs),
(460,747,o),
(438,684,o),
(433,672,cs),
(378,535,o),
(304,407,o),
(240,274,c),
(239,330,o),
(237,387,o),
(222,441,cs),
(208,490,o),
(181,538,o),
(142,569,cs),
(117,589,o),
(86,604,o),
(55,607,cs),
(40,609,o),
(11,614,o),
(3,601,cs),
(1,597,o),
(1,591,o),
(2,586,cs),
(3,576,o),
(18,577,o),
(18,587,cs),
(18,588,o),
(17,592,o),
(17,592,c),
(37,597,o),
(87,578,o),
(105,567,cs),
(148,540,o),
(179,493,o),
(196,445,cs),
(220,378,o),
(219,304,o),
(221,233,cs),
(221,228,o),
(212,210,o),
(210,205,cs),
(194,164,o),
(179,119,o),
(183,75,cs),
(184,65,o),
(188,54,o),
(193,45,cs),
(198,34,o),
(201,22,o),
(209,13,cs),
(216,4,o),
(226,-3,o),
(237,-7,c),
(238,-7,o),
(241,-7,o),
(242,-8,cs),
(256,-26,o),
(285,-23,o),
(294,-3,cs)
);
}
);
width = 626;
}
);
note = V;
unicode = 86;
},
{
glyphname = W;
kernRight = W;
layers = (
{
layerId = m01;
shapes = (
{
closed = 1;
nodes = (
(636,-2,o),
(661,24,o),
(671,52,cs),
(681,81,o),
(679,114,o),
(674,144,cs),
(662,216,o),
(640,286,o),
(630,359,cs),
(623,410,o),
(620,463,o),
(625,515,cs),
(626,528,o),
(628,542,o),
(634,554,c),
(635,555,o),
(638,556,o),
(639,557,c),
(659,567,o),
(749,572,o),
(771,573,c),
(776,574,o),
(798,576,o),
(802,577,cs),
(826,586,o),
(825,618,o),
(802,627,cs),
(766,641,o),
(727,651,o),
(689,658,cs),
(654,664,o),
(616,668,o),
(582,657,cs),
(554,648,o),
(528,625,o),
(513,599,cs),
(489,557,o),
(481,506,o),
(476,458,cs),
(468,382,o),
(474,305,o),
(485,229,c),
(433,294,o),
(392,367,o),
(344,435,cs),
(330,455,o),
(316,476,o),
(297,492,cs),
(285,501,o),
(271,508,o),
(256,511,cs),
(237,515,o),
(215,512,o),
(198,502,cs),
(182,493,o),
(171,476,o),
(163,460,cs),
(159,450,o),
(155,412,o),
(155,401,cs),
(156,368,o),
(152,335,o),
(151,302,cs),
(151,233,o),
(153,164,o),
(145,95,c),
(125,115,o),
(111,141,o),
(100,167,cs),
(86,199,o),
(78,233,o),
(71,267,cs),
(62,314,o),
(56,361,o),
(58,408,cs),
(59,451,o),
(67,494,o),
(80,535,cs),
(86,554,o),
(92,573,o),
(103,589,c),
(121,586,o),
(112,619,o),
(99,607,cs),
(86,596,o),
(80,579,o),
(74,564,cs),
(41,484,o),
(33,393,o),
(39,308,cs),
(43,247,o),
(51,186,o),
(73,130,cs),
(86,94,o),
(111,60,o),
(143,38,cs),
(151,32,o),
(164,30,o),
(173,34,cs),
(189,40,o),
(200,57,o),
(205,72,cs),
(210,86,o),
(230,161,o),
(233,175,cs),
(240,206,o),
(248,237,o),
(254,268,c),
(298,193,o),
(349,120,o),
(411,59,cs),
(446,24,o),
(491,-5,o),
(539,-15,cs),
(562,-20,o),
(586,-19,o),
(608,-12,cs)
);
}
);
width = 820;
}
);
note = W;
unicode = 87;
},
{
glyphname = X;
layers = (
{
layerId = m01;
shapes = (
{
closed = 1;
nodes = (
(279,10,o),
(283,13,o),
(287,16,cs),
(304,30,o),
(317,49,o),
(328,69,cs),
(340,90,o),
(327,118,o),
(303,121,cs),
(288,122,o),
(274,117,o),
(260,117,cs),
(255,117,o),
(250,119,o),
(244,120,cs),
(242,120,o),
(227,121,o),
(224,122,c),
(215,123,o),
(207,127,o),
(198,130,c),
(200,153,o),
(207,175,o),
(216,196,c),
(219,201,o),
(231,227,o),
(233,232,c),
(252,265,o),
(275,298,o),
(297,329,c),
(355,243,o),
(421,157,o),
(507,97,cs),
(536,76,o),
(572,62,o),
(607,53,cs),
(614,52,o),
(647,49,o),
(655,49,cs),
(681,51,o),
(710,56,o),
(732,71,cs),
(756,88,o),
(778,111,o),
(789,139,cs),
(799,163,o),
(798,192,o),
(793,218,cs),
(790,233,o),
(784,247,o),
(779,261,cs),
(768,292,o),
(766,325,o),
(758,356,cs),
(755,371,o),
(735,369,o),
(734,354,cs),
(733,337,o),
(734,320,o),
(733,303,cs),
(732,288,o),
(728,272,o),
(719,260,cs),
(710,247,o),
(696,238,o),
(682,232,cs),
(680,231,o),
(670,223,o),
(668,223,c),
(659,219,o),
(647,218,o),
(637,221,cs),
(614,226,o),
(594,242,o),
(576,257,cs),
(509,313,o),
(460,387,o),
(413,459,c),
(470,520,o),
(533,575,o),
(596,630,cs),
(608,641,o),
(672,691,o),
(687,699,c),
(694,695,o),
(703,702,o),
(699,710,cs),
(694,718,o),
(689,720,o),
(679,717,cs),
(672,715,o),
(638,699,o),
(632,695,c),
(571,666,o),
(516,625,o),
(462,585,cs),
(450,576,o),
(386,526,o),
(375,516,c),
(341,569,o),
(305,624,o),
(258,666,cs),
(233,688,o),
(198,704,o),
(164,704,cs),
(126,704,o),
(88,687,o),
(56,665,cs),
(41,654,o),
(24,641,o),
(18,623,cs),
(12,608,o),
(22,590,o),
(37,588,c),
(38,587,o),
(46,584,o),
(48,584,c),
(51,583,o),
(55,584,o),
(58,585,c),
(61,587,o),
(69,578,o),
(72,577,cs),
(78,576,o),
(82,581,o),
(82,586,c),
(95,586,o),
(127,586,o),
(136,577,cs),
(156,555,o),
(233,430,o),
(249,404,c),
(224,380,o),
(199,356,o),
(176,329,cs),
(145,294,o),
(118,255,o),
(93,215,cs),
(88,207,o),
(69,168,o),
(67,159,cs),
(62,141,o),
(56,122,o),
(56,104,cs),
(57,78,o),
(65,51,o),
(81,31,cs),
(94,14,o),
(113,2,o),
(133,-7,cs),
(169,-23,o),
(244,-19,o),
(275,6,cs)
);
}
);
width = 816;
}
);
note = X;
unicode = 88;
},
{
glyphname = Y;
kernRight = Y;
layers = (
{
layerId = m01;
shapes = (
{
closed = 1;
nodes = (
(261,-30,o),
(268,-8,o),
(270,14,cs),
(270,23,o),
(265,52,o),
(261,60,cs),
(260,62,o),
(256,68,o),
(257,70,cs),
(274,121,o),
(303,168,o),
(331,214,cs),
(381,297,o),
(439,376,o),
(502,450,cs),
(543,500,o),
(588,549,o),
(613,609,cs),
(624,638,o),
(624,674,o),
(610,702,cs),
(603,717,o),
(590,732,o),
(573,736,cs),
(560,739,o),
(545,735,o),
(534,726,cs),
(523,717,o),
(517,703,o),
(508,691,cs),
(491,669,o),
(384,543,o),
(367,522,cs),
(332,476,o),
(298,429,o),
(267,381,c),
(264,436,o),
(248,492,o),
(218,538,cs),
(198,569,o),
(173,598,o),
(148,625,cs),
(123,652,o),
(96,678,o),
(67,700,cs),
(54,710,o),
(26,724,o),
(11,717,cs),
(4,713,o),
(0,703,o),
(-1,695,cs),
(-2,683,o),
(4,669,o),
(15,672,c),
(23,666,o),
(32,661,o),
(39,654,cs),
(91,602,o),
(143,549,o),
(180,486,cs),
(208,436,o),
(219,378,o),
(230,322,c),
(191,257,o),
(152,190,o),
(134,116,cs),
(125,82,o),
(123,44,o),
(132,9,cs),
(138,-14,o),
(150,-39,o),
(168,-54,cs),
(193,-75,o),
(230,-74,o),
(249,-48,cs)
);
}
);
width = 626;
}
);
note = Y;
unicode = (89,221,376);
},
{
glyphname = Z;
layers = (
{
layerId = m01;
shapes = (
{
closed = 1;
nodes = (
(603,13,o),
(628,24,o),
(643,44,cs),
(668,77,o),
(674,124,o),
(658,164,cs),
(652,177,o),
(644,189,o),
(634,198,cs),
(621,208,o),
(603,214,o),
(588,210,cs),
(577,208,o),
(569,200,o),
(561,193,cs),
(559,191,o),
(556,184,o),
(553,183,cs),
(517,173,o),
(479,171,o),
(441,176,cs),
(390,182,o),
(340,204,o),
(297,232,cs),
(280,243,o),
(264,256,o),
(246,266,c),
(325,338,o),
(416,395,o),
(506,451,cs),
(522,460,o),
(600,507,o),
(617,514,cs),
(624,516,o),
(632,518,o),
(638,523,cs),
(665,545,o),
(663,596,o),
(644,627,cs),
(633,646,o),
(615,660,o),
(596,670,cs),
(574,682,o),
(549,686,o),
(526,686,cs),
(456,686,o),
(387,673,o),
(319,664,cs),
(271,657,o),
(223,652,o),
(176,655,cs),
(155,657,o),
(135,666,o),
(114,671,cs),
(108,673,o),
(79,678,o),
(72,678,cs),
(34,677,o),
(30,626,o),
(42,589,cs),
(49,568,o),
(59,546,o),
(74,529,cs),
(94,508,o),
(120,491,o),
(148,483,cs),
(179,474,o),
(212,474,o),
(245,476,cs),
(331,481,o),
(417,503,o),
(504,506,cs),
(508,506,o),
(536,506,o),
(541,506,c),
(491,470,o),
(435,444,o),
(382,414,cs),
(308,373,o),
(236,328,o),
(169,277,cs),
(168,276,o),
(159,273,o),
(157,272,cs),
(152,270,o),
(134,258,o),
(130,255,cs),
(124,251,o),
(100,226,o),
(96,220,cs),
(87,209,o),
(76,201,o),
(67,191,cs),
(56,180,o),
(48,168,o),
(40,155,cs),
(17,118,o),
(22,65,o),
(58,41,cs),
(69,34,o),
(85,36,o),
(97,41,cs),
(107,46,o),
(156,83,o),
(165,88,c),
(170,92,o),
(187,103,o),
(194,103,cs),
(200,102,o),
(219,87,o),
(224,83,cs),
(272,49,o),
(325,20,o),
(382,6,cs),
(446,-9,o),
(516,-11,o),
(579,7,cs)
);
}
);
width = 694;
}
);
note = Z;
unicode = 90;
},
{
glyphname = underscore;
layers = (
{
layerId = m01;
shapes = (
{
closed = 1;
nodes = (
(789,30,o),
(773,57,o),
(758,80,cs),
(753,87,o),
(728,112,o),
(721,117,cs),
(692,138,o),
(660,156,o),
(626,169,cs),
(569,190,o),
(505,197,o),
(445,192,cs),
(394,187,o),
(343,176,o),
(294,162,cs),
(281,159,o),
(215,137,o),
(203,131,cs),
(190,125,o),
(119,95,o),
(107,88,cs),
(81,73,o),
(55,58,o),
(34,37,cs),
(28,30,o),
(24,22,o),
(21,13,cs),
(17,2,o),
(20,-11,o),
(26,-21,cs),
(29,-26,o),
(39,-34,o),
(46,-34,cs),
(49,-34,o),
(54,-42,o),
(57,-44,cs),
(64,-50,o),
(73,-42,o),
(69,-34,cs),
(68,-32,o),
(60,-25,o),
(60,-23,c),
(59,-20,o),
(58,-14,o),
(61,-12,cs),
(77,0,o),
(152,15,o),
(171,20,cs),
(200,28,o),
(352,50,o),
(381,52,cs),
(424,57,o),
(469,56,o),
(511,49,cs),
(541,44,o),
(572,36,o),
(599,22,cs),
(610,16,o),
(663,-15,o),
(673,-23,cs),
(680,-28,o),
(686,-35,o),
(694,-39,c),
(696,-41,o),
(706,-45,o),
(708,-47,cs),
(739,-73,o),
(777,-37,o),
(784,3,cs)
);
}
);
width = 807;
}
);
note = underscore;
unicode = 95;
},
{
glyphname = a;
layers = (
{
layerId = m01;
shapes = (
{
closed = 1;
nodes = (
(473,-13,o),
(484,-6,o),
(492,4,cs),
(505,18,o),
(511,38,o),
(512,57,cs),
(514,71,o),
(498,142,o),
(497,156,cs),
(493,215,o),
(503,274,o),
(518,331,cs),
(534,389,o),
(557,444,o),
(572,503,cs),
(581,538,o),
(567,576,o),
(538,597,cs),
(511,615,o),
(468,617,o),
(441,599,cs),
(390,563,o),
(354,507,o),
(320,454,c),
(295,468,o),
(266,476,o),
(237,481,cs),
(200,487,o),
(159,479,o),
(126,461,cs),
(110,453,o),
(96,441,o),
(85,427,cs),
(66,406,o),
(56,379,o),
(47,352,cs),
(37,318,o),
(32,283,o),
(29,248,cs),
(26,212,o),
(26,175,o),
(32,139,cs),
(34,130,o),
(43,91,o),
(47,83,cs),
(59,53,o),
(77,24,o),
(102,4,cs),
(115,-7,o),
(132,-14,o),
(149,-13,cs),
(167,-12,o),
(185,-4,o),
(199,6,cs),
(212,16,o),
(263,74,o),
(274,87,cs),
(293,111,o),
(310,135,o),
(327,160,c),
(329,121,o),
(334,82,o),
(348,46,cs),
(354,32,o),
(362,19,o),
(370,7,cs),
(388,-19,o),
(433,-32,o),
(461,-18,cs)
);
},
{
closed = 1;
nodes = (
(88,207,o),
(84,240,o),
(86,273,cs),
(89,315,o),
(93,361,o),
(118,395,cs),
(135,418,o),
(164,431,o),
(192,437,cs),
(229,444,o),
(268,437,o),
(303,425,c),
(242,320,o),
(195,208,o),
(136,101,c),
(116,121,o),
(103,148,o),
(96,176,cs)
);
}
);
width = 595;
}
);
note = a;
unicode = (97,224,225,226,227,228,229);
},
{
glyphname = b;
kernLeft = H;
layers = (
{
layerId = m01;
shapes = (
{
closed = 1;
nodes = (
(400,-97,o),
(441,-54,o),
(460,-7,cs),
(471,21,o),
(479,50,o),
(486,80,cs),
(487,86,o),
(491,123,o),
(492,130,cs),
(495,153,o),
(505,254,o),
(500,277,cs),
(497,298,o),
(497,318,o),
(490,338,cs),
(486,349,o),
(479,359,o),
(470,367,cs),
(444,394,o),
(411,410,o),
(374,413,cs),
(355,416,o),
(335,414,o),
(318,407,cs),
(277,390,o),
(240,358,o),
(217,320,c),
(216,319,o),
(215,317,o),
(215,319,cs),
(206,429,o),
(203,543,o),
(231,650,cs),
(242,688,o),
(252,727,o),
(256,766,cs),
(258,788,o),
(249,811,o),
(233,827,cs),
(227,833,o),
(217,837,o),
(207,839,cs),
(186,845,o),
(151,826,o),
(138,808,cs),
(127,792,o),
(115,777,o),
(106,760,cs),
(75,701,o),
(55,636,o),
(48,570,cs),
(38,480,o),
(39,388,o),
(47,298,cs),
(55,206,o),
(71,112,o),
(111,29,cs),
(136,-22,o),
(175,-72,o),
(225,-100,cs),
(264,-122,o),
(312,-127,o),
(353,-113,cs)
);
},
{
closed = 1;
nodes = (
(259,102,o),
(249,135,o),
(240,166,c),
(248,209,o),
(260,253,o),
(280,292,cs),
(293,317,o),
(310,339,o),
(333,355,cs),
(347,366,o),
(365,372,o),
(383,373,cs),
(410,374,o),
(455,361,o),
(465,335,cs),
(468,327,o),
(469,319,o),
(469,310,cs),
(468,290,o),
(441,216,o),
(433,198,cs),
(430,192,o),
(414,162,o),
(411,156,c),
(400,140,o),
(387,124,o),
(375,108,c),
(371,104,o),
(353,85,o),
(349,82,cs),
(335,70,o),
(321,59,o),
(306,50,c),
(295,56,o),
(287,67,o),
(279,77,cs)
);
}
);
width = 528;
}
);
note = b;
unicode = 98;
},
{
glyphname = c;
layers = (
{
layerId = m01;
shapes = (
{
closed = 1;
nodes = (
(400,-70,o),
(462,-48,o),
(507,-10,cs),
(535,14,o),
(559,45,o),
(574,78,cs),
(588,108,o),
(594,141,o),
(596,174,cs),
(597,192,o),
(584,248,o),
(575,264,cs),
(564,282,o),
(550,311,o),
(536,294,cs),
(531,288,o),
(531,279,o),
(530,271,cs),
(528,260,o),
(506,222,o),
(499,212,cs),
(479,185,o),
(460,155,o),
(432,137,cs),
(399,116,o),
(358,105,o),
(319,108,cs),
(274,111,o),
(230,130,o),
(189,150,cs),
(163,163,o),
(139,179,o),
(116,196,cs),
(110,201,o),
(89,221,o),
(86,227,cs),
(75,245,o),
(65,265,o),
(65,286,cs),
(66,311,o),
(72,335,o),
(80,359,cs),
(94,397,o),
(145,436,o),
(185,434,cs),
(204,432,o),
(223,426,o),
(241,420,c),
(258,374,o),
(293,328,o),
(338,311,cs),
(369,300,o),
(400,327,o),
(413,357,cs),
(422,380,o),
(423,407,o),
(417,430,cs),
(411,454,o),
(395,479,o),
(371,485,c),
(369,486,o),
(366,486,o),
(364,487,cs),
(356,493,o),
(314,529,o),
(306,535,cs),
(302,539,o),
(287,563,o),
(283,568,cs),
(274,581,o),
(255,603,o),
(239,600,cs),
(229,597,o),
(223,580,o),
(221,570,cs),
(217,544,o),
(220,517,o),
(225,490,c),
(182,488,o),
(136,477,o),
(103,450,cs),
(85,435,o),
(71,415,o),
(59,395,cs),
(42,368,o),
(29,336,o),
(27,304,cs),
(25,280,o),
(26,257,o),
(27,233,cs),
(28,194,o),
(33,154,o),
(47,118,cs),
(64,74,o),
(92,33,o),
(128,3,cs),
(155,-20,o),
(188,-37,o),
(221,-49,cs),
(259,-64,o),
(300,-74,o),
(341,-72,cs)
);
}
);
width = 616;
}
);
note = c;
unicode = (99,231);
},
{
glyphname = d;
lastChange = "2023-11-14 18:44:41 +0000";
layers = (
{
layerId = m01;
shapes = (
{
closed = 1;
nodes = (
(339,-34,o),
(362,-29,o),
(382,-19,cs),
(409,-5,o),
(432,17,o),
(449,42,cs),
(450,43,o),
(456,46,o),
(457,47,cs),
(474,62,o),
(483,86,o),
(487,109,cs),
(489,116,o),
(489,153,o),
(489,161,cs),
(488,245,o),
(493,330,o),
(502,414,cs),
(510,480,o),
(521,546,o),
(542,610,cs),
(558,659,o),
(586,705,o),
(596,756,cs),
(600,782,o),
(591,814,o),
(572,833,cs),
(567,838,o),
(551,844,o),
(544,843,cs),
(484,835,o),
(441,725,o),
(423,667,cs),
(383,545,o),
(372,414,o),
(365,286,c),
(325,338,o),
(279,386,o),
(229,429,cs),
(202,453,o),
(174,477,o),
(142,496,cs),
(129,505,o),
(112,511,o),
(96,512,cs),
(45,515,o),
(28,451,o),
(23,400,cs),
(22,388,o),
(17,318,o),
(17,306,cs),
(17,276,o),
(22,247,o),
(28,219,cs),
(54,112,o),
(132,22,o),
(234,-17,cs),
(260,-27,o),
(289,-35,o),
(317,-34,cs)
);
},
{
closed = 1;
nodes = (
(255,155,o),
(218,176,o),
(186,201,cs),
(148,230,o),
(111,264,o),
(88,305,cs),
(75,327,o),
(69,351,o),
(65,376,cs),
(63,385,o),
(65,428,o),
(66,438,cs),
(68,450,o),
(75,463,o),
(86,468,cs),
(102,475,o),
(121,468,o),
(137,460,cs),
(193,433,o),
(240,387,o),
(278,338,cs),
(310,297,o),
(340,252,o),
(363,205,c),
(363,172,l),
(355,162,o),
(346,153,o),
(334,148,cs),
(322,144,o),
(308,145,o),
(295,147,cs)
);
}
);
width = 620;
}
);
note = d;
unicode = 100;
},
{
glyphname = e;
lastChange = "2023-11-14 18:45:34 +0000";
layers = (
{
layerId = m01;
shapes = (
{
closed = 1;
nodes = (
(335,9,o),
(368,25,o),
(373,29,cs),
(394,43,o),
(415,58,o),
(431,77,cs),
(445,94,o),
(455,113,o),
(464,133,cs),
(468,141,o),
(470,172,o),
(470,181,cs),
(470,218,o),
(429,241,o),
(397,223,cs),
(392,220,o),
(386,219,o),
(381,216,cs),
(355,204,o),
(329,192,o),
(302,181,cs),
(283,173,o),
(226,144,o),
(206,149,cs),
(189,154,o),
(185,187,o),
(183,204,cs),
(182,211,o),
(181,244,o),
(182,251,cs),
(184,266,o),
(186,281,o),
(190,296,c),
(216,275,o),
(249,256,o),
(283,253,cs),
(306,251,o),
(331,255,o),
(350,267,cs),
(425,317,o),
(446,429,o),
(403,508,cs),
(393,526,o),
(378,540,o),
(362,553,cs),
(334,575,o),
(299,582,o),
(266,573,cs),
(252,569,o),
(238,565,o),
(225,558,cs),
(182,536,o),
(149,496,o),
(122,456,c),
(103,507,o),
(97,541,o),
(93,574,cs),
(92,579,o),
(81,578,o),
(78,571,cs),
(77,567,o),
(77,562,o),
(78,557,cs),
(86,515,o),
(95,474,o),
(107,433,c),
(72,374,o),
(47,308,o),
(31,241,cs),
(29,232,o),
(25,191,o),
(25,181,cs),
(26,163,o),
(26,144,o),
(31,125,cs),
(39,97,o),
(51,69,o),
(70,46,cs),
(97,14,o),
(137,-11,o),
(178,-18,cs),
(228,-26,o),
(282,-15,o),
(328,6,cs)
);
},
{
closed = 1;
nodes = (
(248,302,o),
(222,316,o),
(201,333,c),
(207,351,o),
(214,369,o),
(222,386,cs),
(239,428,o),
(265,467,o),
(298,499,cs),
(302,503,o),
(318,511,o),
(324,512,cs),
(331,513,o),
(339,511,o),
(346,507,cs),
(356,500,o),
(364,489,o),
(370,478,cs),
(376,466,o),
(378,451,o),
(378,437,cs),
(379,392,o),
(355,318,o),
(313,302,cs),
(301,297,o),
(287,297,o),
(274,299,cs)
);
}
);
width = 491;
}
);
note = e;
unicode = (101,232,233,234,235);
},
{
glyphname = f;
layers = (
{
layerId = m01;
shapes = (
{
closed = 1;
nodes = (
(419,-110,o),
(436,-85,o),
(444,-59,cs),
(453,-29,o),
(452,5,o),
(440,34,cs),
(432,57,o),
(417,78,o),
(402,98,cs),
(392,110,o),
(348,158,o),
(335,167,cs),
(329,171,o),
(306,196,o),
(301,201,c),
(311,201,o),
(356,199,o),
(366,195,cs),
(383,189,o),
(397,177,o),
(413,167,cs),
(431,157,o),
(451,147,o),
(472,147,cs),
(523,147,o),
(563,192,o),
(554,241,cs),
(550,265,o),
(535,291,o),
(513,301,cs),
(478,318,o),
(438,325,o),
(400,326,cs),
(393,326,o),
(356,323,o),
(349,322,cs),
(309,319,o),
(271,299,o),
(235,279,c),
(208,314,o),
(183,350,o),
(166,390,cs),
(156,415,o),
(145,442,o),
(150,468,c),
(150,471,o),
(152,479,o),
(154,481,cs),
(162,487,o),
(188,483,o),
(198,482,cs),
(263,472,o),
(326,446,o),
(383,413,cs),
(412,397,o),
(441,379,o),
(472,368,cs),
(488,363,o),
(504,359,o),
(520,361,cs),
(540,365,o),
(555,378,o),
(562,396,cs),
(568,412,o),
(566,430,o),
(560,446,cs),
(547,486,o),
(512,516,o),
(478,542,cs),
(442,570,o),
(402,594,o),
(359,609,cs),
(309,626,o),
(254,633,o),
(202,624,cs),
(174,620,o),
(144,611,o),
(122,594,cs),
(107,582,o),
(93,566,o),
(86,548,cs),
(78,523,o),
(75,495,o),
(82,470,cs),
(86,454,o),
(94,440,o),
(102,426,cs),
(107,418,o),
(133,381,o),
(138,374,cs),
(149,362,o),
(211,285,o),
(221,272,c),
(203,262,o),
(185,250,o),
(166,243,cs),
(153,239,o),
(110,237,o),
(97,241,cs),
(85,244,o),
(43,263,o),
(34,271,cs),
(30,275,o),
(29,279,o),
(25,283,cs),
(20,290,o),
(8,284,o),
(12,275,cs),
(16,262,o),
(31,255,o),
(42,249,cs),
(66,236,o),
(88,221,o),
(113,210,cs),
(144,198,o),
(180,195,o),
(214,195,cs),
(235,195,o),
(256,199,o),
(278,200,c),
(282,195,o),
(303,164,o),
(306,158,cs),
(312,146,o),
(342,79,o),
(347,67,cs),
(356,44,o),
(365,21,o),
(368,-4,c),
(368,-13,o),
(367,-23,o),
(362,-31,c),
(353,-29,o),
(345,-23,o),
(337,-19,cs),
(330,-14,o),
(325,-6,o),
(319,-1,cs),
(313,4,o),
(306,9,o),
(300,15,c),
(297,17,o),
(286,34,o),
(283,37,cs),
(269,53,o),
(244,48,o),
(235,29,cs),
(223,4,o),
(224,-26,o),
(228,-53,cs),
(231,-70,o),
(242,-83,o),
(252,-97,cs),
(283,-140,o),
(349,-151,o),
(395,-124,cs)
);
}
);
width = 588;
}
);
note = f;
unicode = 102;
},
{
glyphname = g;
lastChange = "2023-11-14 18:47:46 +0000";
layers = (
{
layerId = m01;
shapes = (
{
closed = 1;
nodes = (
(437,-174,o),
(488,-142,o),
(526,-100,cs),
(557,-66,o),
(577,-22,o),
(587,22,cs),
(599,75,o),
(596,132,o),
(589,186,cs),
(579,266,o),
(560,344,o),
(540,421,cs),
(538,430,o),
(527,490,o),
(524,500,cs),
(522,506,o),
(518,512,o),
(514,518,cs),
(488,565,o),
(424,565,o),
(390,524,cs),
(375,506,o),
(369,481,o),
(369,458,c),
(317,477,o),
(256,440,o),
(232,390,cs),
(218,362,o),
(210,329,o),
(213,298,cs),
(217,255,o),
(230,207,o),
(261,176,cs),
(278,160,o),
(301,147,o),
(324,146,cs),
(344,145,o),
(365,155,o),
(379,168,cs),
(393,181,o),
(405,198,o),
(413,215,c),
(418,188,o),
(423,161,o),
(424,134,cs),
(426,107,o),
(427,79,o),
(420,53,cs),
(416,35,o),
(406,19,o),
(393,6,cs),
(375,-12,o),
(348,-25,o),
(322,-28,cs),
(291,-31,o),
(258,-21,o),
(233,-4,cs),
(206,15,o),
(185,43,o),
(171,74,cs),
(165,89,o),
(160,105,o),
(155,121,cs),
(145,154,o),
(136,189,o),
(141,224,cs),
(142,230,o),
(145,237,o),
(145,244,cs),
(145,267,o),
(118,280,o),
(99,265,cs),
(79,249,o),
(59,231,o),
(47,209,cs),
(32,184,o),
(26,155,o),
(22,127,cs),
(15,79,o),
(25,28,o),
(44,-16,cs),
(62,-59,o),
(90,-99,o),
(126,-129,cs),
(159,-157,o),
(200,-177,o),
(242,-189,cs),
(287,-201,o),
(337,-201,o),
(382,-189,cs)
);
},
{
closed = 1;
nodes = (
(259,257,o),
(245,294,o),
(249,328,cs),
(254,377,o),
(292,438,o),
(340,443,cs),
(350,444,o),
(361,442,o),
(370,438,c),
(374,390,o),
(387,343,o),
(397,296,c),
(391,279,o),
(384,262,o),
(376,245,cs),
(368,229,o),
(346,196,o),
(327,195,cs),
(312,193,o),
(288,215,o),
(279,228,cs)
);
}
);
width = 626;
}
);
note = g;
unicode = 103;
},
{
glyphname = h;
layers = (
{
layerId = m01;
shapes = (
{
closed = 1;
nodes = (
(261,38,o),
(273,61,o),
(284,83,cs),
(318,154,o),
(345,228,o),
(378,299,c),
(409,250,o),
(440,199,o),
(481,157,cs),
(498,140,o),
(521,129,o),
(543,119,cs),
(549,117,o),
(570,113,o),
(576,113,cs),
(592,115,o),
(608,117,o),
(622,125,cs),
(642,137,o),
(658,160,o),
(646,180,cs),
(640,190,o),
(639,203,o),
(634,214,cs),
(617,250,o),
(590,281,o),
(566,313,cs),
(530,362,o),
(498,414,o),
(454,455,cs),
(433,474,o),
(404,487,o),
(376,487,cs),
(346,487,o),
(316,472,o),
(297,448,cs),
(284,432,o),
(273,414,o),
(263,395,cs),
(232,330,o),
(205,263,o),
(176,196,c),
(165,241,o),
(162,287,o),
(161,333,cs),
(160,343,o),
(164,390,o),
(165,400,cs),
(173,444,o),
(181,489,o),
(197,531,cs),
(214,576,o),
(232,620,o),
(255,662,cs),
(273,694,o),
(298,722,o),
(322,749,cs),
(329,756,o),
(358,789,o),
(366,794,c),
(368,796,o),
(374,790,o),
(376,789,cs),
(385,786,o),
(391,797,o),
(384,803,cs),
(382,805,o),
(370,812,o),
(367,813,cs),
(357,817,o),
(332,803,o),
(323,799,cs),
(286,781,o),
(252,756,o),
(225,726,cs),
(198,696,o),
(172,665,o),
(151,630,cs),
(115,575,o),
(88,513,o),
(65,452,cs),
(45,400,o),
(35,345,o),
(31,290,cs),
(28,242,o),
(30,193,o),
(39,146,cs),
(45,110,o),
(61,76,o),
(83,48,cs),
(122,-2,o),
(193,-19,o),
(242,22,cs)
);
}
);
width = 663;
}
);
note = h;
unicode = 104;
},
{
glyphname = i;
layers = (
{
layerId = m01;
shapes = (
{
closed = 1;
nodes = (
(128,505,o),
(144,516,o),
(146,519,c),
(161,533,o),
(171,551,o),
(180,569,cs),
(194,595,o),
(204,624,o),
(206,653,cs),
(209,710,o),
(147,745,o),
(104,708,cs),
(81,689,o),
(71,658,o),
(64,630,cs),
(63,626,o),
(61,607,o),
(59,604,c),
(53,590,o),
(46,577,o),
(43,562,cs),
(41,551,o),
(42,540,o),
(45,529,cs),
(54,498,o),
(97,484,o),
(125,503,cs)
);
},
{
closed = 1;
nodes = (
(170,-60,o),
(183,-53,o),
(195,-45,cs),
(207,-37,o),
(213,-22,o),
(219,-8,cs),
(223,0,o),
(234,48,o),
(237,57,cs),
(247,84,o),
(218,108,o),
(194,94,cs),
(192,93,o),
(185,88,o),
(184,87,c),
(175,116,o),
(173,147,o),
(169,177,cs),
(167,190,o),
(165,256,o),
(165,269,cs),
(165,283,o),
(157,347,o),
(154,361,cs),
(151,371,o),
(149,382,o),
(142,390,cs),
(134,400,o),
(120,401,o),
(111,393,cs),
(91,377,o),
(64,305,o),
(58,280,cs),
(56,268,o),
(43,208,o),
(42,197,cs),
(41,188,o),
(40,180,o),
(38,171,cs),
(37,163,o),
(35,118,o),
(35,110,cs),
(34,67,o),
(42,23,o),
(60,-15,cs),
(70,-35,o),
(89,-50,o),
(109,-59,cs),
(118,-63,o),
(146,-66,o),
(156,-64,cs)
);
}
);
width = 258;
}
);
note = i;
unicode = (105,236,237,238,239);
},
{
glyphname = j;
layers = (
{
layerId = m01;
shapes = (
{
closed = 1;
nodes = (
(295,624,o),
(324,658,o),
(322,686,cs),
(321,697,o),
(318,707,o),
(311,715,cs),
(304,723,o),
(294,729,o),
(284,731,cs),
(255,736,o),
(226,715,o),
(224,687,cs),
(224,685,o),
(219,681,o),
(217,679,cs),
(195,657,o),
(210,615,o),
(242,612,cs),
(250,611,o),
(259,611,o),
(268,614,cs)
);
},
{
closed = 1;
nodes = (
(440,-104,o),
(463,-81,o),
(479,-54,cs),
(499,-20,o),
(506,22,o),
(502,61,cs),
(497,119,o),
(478,175,o),
(456,228,cs),
(442,260,o),
(361,451,o),
(346,483,cs),
(335,507,o),
(321,544,o),
(300,527,cs),
(296,523,o),
(298,515,o),
(301,510,c),
(303,508,o),
(305,497,o),
(306,495,c),
(312,472,o),
(346,343,o),
(350,320,cs),
(359,275,o),
(366,231,o),
(370,185,cs),
(372,173,o),
(373,111,o),
(372,98,cs),
(369,76,o),
(367,52,o),
(355,34,cs),
(347,23,o),
(334,16,o),
(322,12,cs),
(293,2,o),
(257,-1,o),
(230,12,cs),
(183,33,o),
(165,89,o),
(186,136,cs),
(190,143,o),
(213,182,o),
(217,189,cs),
(219,193,o),
(233,199,o),
(236,201,cs),
(259,217,o),
(256,251,o),
(230,261,cs),
(227,262,o),
(213,267,o),
(210,267,cs),
(189,270,o),
(168,265,o),
(148,262,cs),
(142,261,o),
(117,251,o),
(112,248,cs),
(92,237,o),
(75,219,o),
(59,203,cs),
(55,199,o),
(40,177,o),
(38,172,cs),
(31,159,o),
(27,146,o),
(23,132,cs),
(12,91,o),
(14,45,o),
(28,5,cs),
(46,-46,o),
(83,-94,o),
(130,-123,cs),
(214,-175,o),
(328,-174,o),
(413,-121,cs)
);
}
);
width = 520;
}
);
note = j;
unicode = 106;
},
{
glyphname = k;
layers = (
{
layerId = m01;
shapes = (
{
closed = 1;
nodes = (
(750,45,o),
(754,60,o),
(755,74,cs),
(756,84,o),
(751,120,o),
(746,130,cs),
(732,161,o),
(707,190,o),
(678,208,cs),
(641,231,o),
(598,243,o),
(556,255,cs),
(543,258,o),
(467,277,o),
(453,280,cs),
(446,281,o),
(405,289,o),
(398,291,c),
(400,303,o),
(402,314,o),
(404,325,cs),
(409,348,o),
(419,371,o),
(415,393,cs),
(411,417,o),
(395,429,o),
(372,428,cs),
(303,423,o),
(227,298,o),
(196,236,cs),
(177,199,o),
(160,161,o),
(138,127,cs),
(131,116,o),
(113,92,o),
(101,91,cs),
(94,90,o),
(85,100,o),
(82,106,c),
(68,125,o),
(66,151,o),
(65,174,cs),
(64,245,o),
(82,315,o),
(99,384,cs),
(117,458,o),
(141,531,o),
(180,596,cs),
(201,633,o),
(228,666,o),
(258,696,cs),
(264,702,o),
(294,728,o),
(301,733,cs),
(306,736,o),
(337,750,o),
(342,753,cs),
(351,758,o),
(344,771,o),
(334,767,cs),
(329,765,o),
(303,753,o),
(299,750,cs),
(283,739,o),
(269,727,o),
(255,714,cs),
(224,684,o),
(195,651,o),
(171,615,cs),
(142,571,o),
(120,522,o),
(101,472,cs),
(83,428,o),
(68,382,o),
(55,336,cs),
(43,293,o),
(32,250,o),
(27,207,cs),
(23,163,o),
(24,114,o),
(45,77,cs),
(60,51,o),
(91,39,o),
(117,48,cs),
(141,56,o),
(159,79,o),
(171,101,cs),
(201,157,o),
(224,217,o),
(255,273,cs),
(270,300,o),
(287,325,o),
(307,349,cs),
(321,365,o),
(355,399,o),
(376,397,cs),
(378,397,o),
(376,392,o),
(375,391,c),
(368,377,o),
(359,365,o),
(350,353,cs),
(344,346,o),
(313,315,o),
(310,307,cs),
(307,301,o),
(294,274,o),
(293,268,cs),
(290,250,o),
(293,232,o),
(299,215,cs),
(304,203,o),
(313,192,o),
(323,182,cs),
(342,163,o),
(367,151,o),
(392,140,cs),
(453,115,o),
(517,99,o),
(578,75,cs),
(611,63,o),
(645,50,o),
(674,29,cs),
(694,15,o),
(725,16,o),
(741,35,cs)
);
}
);
width = 768;
}
);
note = k;
unicode = 107;
},
{
glyphname = l;
layers = (
{
layerId = m01;
shapes = (
{
closed = 1;
nodes = (
(314,12,o),
(342,25,o),
(364,45,cs),
(379,59,o),
(394,75,o),
(404,94,cs),
(410,104,o),
(424,145,o),
(424,157,cs),
(424,162,o),
(428,192,o),
(428,197,cs),
(428,199,o),
(428,210,o),
(428,212,cs),
(431,234,o),
(405,247,o),
(391,230,cs),
(386,224,o),
(363,201,o),
(357,197,cs),
(339,184,o),
(324,166,o),
(303,160,cs),
(295,158,o),
(286,158,o),
(277,158,cs),
(259,157,o),
(241,170,o),
(231,186,cs),
(216,208,o),
(210,235,o),
(205,261,cs),
(198,297,o),
(197,334,o),
(197,371,cs),
(198,419,o),
(203,468,o),
(214,516,cs),
(226,571,o),
(242,626,o),
(256,681,cs),
(260,699,o),
(259,720,o),
(252,738,cs),
(238,776,o),
(188,787,o),
(159,758,cs),
(150,748,o),
(139,738,o),
(133,725,cs),
(118,696,o),
(103,666,o),
(91,634,cs),
(51,529,o),
(30,413,o),
(36,300,cs),
(40,233,o),
(52,163,o),
(86,106,cs),
(106,74,o),
(133,46,o),
(165,28,cs),
(201,8,o),
(245,-1,o),
(285,6,cs)
);
}
);
width = 444;
}
);
note = l;
unicode = 108;
},
{
glyphname = m;
layers = (
{
layerId = m01;
shapes = (
{
closed = 1;
nodes = (
(852,47,o),
(848,86,o),
(845,124,cs),
(837,227,o),
(826,332,o),
(794,431,cs),
(788,451,o),
(779,469,o),
(773,489,cs),
(771,497,o),
(766,503,o),
(762,510,cs),
(749,536,o),
(736,563,o),
(716,585,c),
(716,586,o),
(714,590,o),
(713,591,c),
(707,606,o),
(669,636,o),
(654,643,cs),
(630,654,o),
(600,654,o),
(574,647,cs),
(545,638,o),
(519,619,o),
(498,598,cs),
(476,575,o),
(456,550,o),
(441,523,c),
(436,533,o),
(410,582,o),
(403,591,cs),
(389,612,o),
(373,633,o),
(350,644,cs),
(336,651,o),
(320,657,o),
(304,657,cs),
(283,657,o),
(262,648,o),
(246,635,cs),
(234,625,o),
(225,613,o),
(218,599,cs),
(201,571,o),
(150,431,o),
(142,399,cs),
(136,375,o),
(132,350,o),
(128,325,c),
(106,394,o),
(81,464,o),
(43,525,c),
(44,528,o),
(44,533,o),
(41,535,cs),
(37,538,o),
(31,540,o),
(27,543,cs),
(18,551,o),
(6,538,o),
(15,531,cs),
(21,526,o),
(35,496,o),
(38,489,cs),
(76,417,o),
(102,338,o),
(122,260,cs),
(123,256,o),
(122,236,o),
(122,232,cs),
(123,215,o),
(124,198,o),
(124,180,cs),
(124,174,o),
(130,134,o),
(130,128,cs),
(130,117,o),
(131,105,o),
(136,96,cs),
(150,71,o),
(185,69,o),
(201,92,cs),
(206,99,o),
(209,108,o),
(209,116,c),
(207,130,o),
(214,198,o),
(216,212,cs),
(226,285,o),
(239,359,o),
(262,429,cs),
(266,444,o),
(272,460,o),
(279,474,c),
(304,421,o),
(324,365,o),
(342,310,cs),
(363,242,o),
(381,173,o),
(395,103,cs),
(398,88,o),
(404,72,o),
(414,60,cs),
(456,10,o),
(537,24,o),
(559,85,cs),
(566,104,o),
(564,124,o),
(561,144,cs),
(559,165,o),
(549,285,o),
(548,306,cs),
(545,371,o),
(549,438,o),
(574,497,cs),
(584,523,o),
(607,543,o),
(631,558,cs),
(635,560,o),
(639,555,o),
(641,551,c),
(642,550,o),
(647,544,o),
(648,542,cs),
(653,525,o),
(654,506,o),
(654,488,cs),
(654,478,o),
(652,468,o),
(653,458,cs),
(655,447,o),
(656,394,o),
(656,384,cs),
(656,364,o),
(666,252,o),
(668,232,cs),
(672,182,o),
(677,131,o),
(678,81,c),
(679,76,o),
(675,71,o),
(675,66,cs),
(673,43,o),
(675,17,o),
(687,-3,cs),
(695,-15,o),
(705,-26,o),
(718,-34,cs),
(731,-41,o),
(747,-44,o),
(762,-46,cs),
(795,-48,o),
(834,-21,o),
(843,11,cs)
);
}
);
width = 875;
}
);
note = m;
unicode = 109;
},
{
glyphname = n;
layers = (
{
layerId = m01;
shapes = (
{
closed = 1;
nodes = (
(469,-5,o),
(478,17,o),
(484,38,cs),
(528,179,o),
(544,332,o),
(523,478,cs),
(519,508,o),
(511,537,o),
(502,566,cs),
(490,602,o),
(465,638,o),
(431,657,cs),
(404,674,o),
(366,675,o),
(337,663,cs),
(311,653,o),
(289,632,o),
(270,611,cs),
(214,547,o),
(165,476,o),
(123,402,c),
(120,423,o),
(118,445,o),
(114,466,cs),
(108,502,o),
(101,538,o),
(85,571,c),
(89,575,o),
(89,582,o),
(84,585,c),
(83,585,o),
(80,587,o),
(79,588,cs),
(74,594,o),
(63,592,o),
(61,584,cs),
(59,579,o),
(64,558,o),
(65,553,cs),
(74,480,o),
(81,407,o),
(85,333,c),
(50,267,o),
(24,189,o),
(31,114,cs),
(32,98,o),
(36,80,o),
(47,69,cs),
(55,61,o),
(65,52,o),
(76,49,cs),
(90,45,o),
(106,44,o),
(119,50,cs),
(135,57,o),
(152,71,o),
(157,88,cs),
(159,96,o),
(159,104,o),
(161,111,cs),
(166,129,o),
(191,240,o),
(197,258,cs),
(218,331,o),
(252,403,o),
(299,463,cs),
(312,480,o),
(327,496,o),
(345,507,c),
(347,501,o),
(354,467,o),
(355,460,cs),
(363,404,o),
(364,346,o),
(360,288,cs),
(355,218,o),
(341,147,o),
(319,80,cs),
(314,65,o),
(311,49,o),
(314,33,cs),
(319,3,o),
(340,-22,o),
(369,-32,cs),
(378,-35,o),
(388,-36,o),
(397,-37,cs),
(416,-39,o),
(436,-29,o),
(452,-18,cs)
);
}
);
width = 570;
}
);
note = n;
unicode = (110,241);
},
{
glyphname = o;
lastChange = "2023-11-14 18:41:13 +0000";
layers = (
{
layerId = m01;
shapes = (
{
closed = 1;
nodes = (
(472,102,o),
(512,132,o),
(541,169,cs),
(564,197,o),
(578,234,o),
(578,270,cs),
(578,290,o),
(572,309,o),
(565,328,cs),
(556,351,o),
(535,371,o),
(512,382,cs),
(463,407,o),
(397,410,o),
(347,388,cs),
(314,373,o),
(282,348,o),
(263,317,cs),
(246,289,o),
(248,247,o),
(269,223,cs),
(284,205,o),
(309,187,o),
(331,191,cs),
(336,192,o),
(352,199,o),
(356,201,cs),
(360,203,o),
(363,208,o),
(363,212,cs),
(364,216,o),
(365,238,o),
(366,242,cs),
(367,245,o),
(368,249,o),
(371,251,cs),
(402,277,o),
(443,295,o),
(483,295,cs),
(490,295,o),
(497,292,o),
(502,288,cs),
(538,256,o),
(525,203,o),
(493,167,cs),
(460,131,o),
(419,102,o),
(374,84,cs),
(315,61,o),
(241,60,o),
(185,89,cs),
(148,108,o),
(119,146,o),
(104,185,cs),
(83,244,o),
(87,308,o),
(117,362,cs),
(134,394,o),
(163,421,o),
(194,439,cs),
(235,462,o),
(286,465,o),
(332,464,cs),
(355,463,o),
(378,462,o),
(399,456,c),
(422,446,ls),
(450,436,o),
(467,473,o),
(451,500,cs),
(443,514,o),
(431,526,o),
(417,534,cs),
(407,540,o),
(397,543,o),
(387,546,cs),
(364,553,o),
(339,556,o),
(314,555,cs),
(309,555,o),
(285,553,o),
(280,552,cs),
(166,521,o),
(68,425,o),
(35,311,cs),
(24,274,o),
(18,233,o),
(25,195,cs),
(32,152,o),
(53,110,o),
(83,79,cs),
(100,61,o),
(120,46,o),
(142,36,cs),
(172,22,o),
(206,16,o),
(239,16,cs),
(307,16,o),
(376,39,o),
(432,76,cs)
);
}
);
width = 595;
}
);
note = o;
unicode = (111,242,243,244,245,246,248);
},
{
glyphname = p;
layers = (
{
layerId = m01;
shapes = (
{
closed = 1;
nodes = (
(260,-50,o),
(259,-39,o),
(254,-32,cs),
(250,-27,o),
(246,-22,o),
(243,-16,cs),
(230,4,o),
(203,111,o),
(196,134,c),
(217,124,o),
(239,120,o),
(262,118,cs),
(296,115,o),
(331,123,o),
(365,132,cs),
(373,134,o),
(407,149,o),
(414,153,cs),
(446,171,o),
(476,193,o),
(499,221,cs),
(521,246,o),
(540,275,o),
(550,307,cs),
(558,331,o),
(562,358,o),
(557,383,cs),
(552,410,o),
(539,436,o),
(521,455,cs),
(489,490,o),
(445,512,o),
(401,528,cs),
(336,552,o),
(269,569,o),
(205,596,cs),
(182,606,o),
(161,619,o),
(139,633,cs),
(117,647,o),
(94,665,o),
(68,666,c),
(56,670,o),
(36,659,o),
(28,649,cs),
(16,635,o),
(12,614,o),
(15,596,cs),
(19,573,o),
(30,551,o),
(43,532,cs),
(64,502,o),
(92,476,o),
(123,457,c),
(120,446,o),
(118,434,o),
(116,422,cs),
(88,299,o),
(100,166,o),
(133,44,cs),
(143,7,o),
(155,-32,o),
(177,-63,cs),
(199,-93,o),
(249,-95,o),
(258,-59,cs)
);
},
{
closed = 1;
nodes = (
(171,344,o),
(160,392,o),
(159,438,c),
(225,407,o),
(297,389,o),
(365,360,cs),
(371,357,o),
(377,353,o),
(384,350,c),
(363,313,o),
(330,282,o),
(294,260,cs),
(283,253,o),
(237,236,o),
(224,235,c),
(215,244,o),
(195,290,o),
(190,301,cs)
);
}
);
width = 577;
}
);
note = p;
unicode = 112;
},
{
glyphname = q;
layers = (
{
layerId = m01;
shapes = (
{
closed = 1;
nodes = (
(561,-84,o),
(563,-48,o),
(552,-22,cs),
(543,-1,o),
(537,20,o),
(532,41,cs),
(525,71,o),
(490,236,o),
(480,264,cs),
(462,315,o),
(445,368,o),
(410,408,cs),
(403,417,o),
(393,424,o),
(383,428,c),
(366,442,o),
(338,444,o),
(322,429,cs),
(312,418,o),
(304,405,o),
(301,391,cs),
(300,388,o),
(300,384,o),
(298,382,c),
(266,334,o),
(237,284,o),
(201,240,cs),
(177,212,o),
(149,183,o),
(114,170,cs),
(94,163,o),
(76,181,o),
(71,202,cs),
(65,225,o),
(66,249,o),
(71,272,cs),
(85,334,o),
(111,395,o),
(149,446,cs),
(169,474,o),
(194,499,o),
(222,519,cs),
(231,525,o),
(255,541,o),
(266,538,cs),
(271,537,o),
(276,521,o),
(279,516,cs),
(284,508,o),
(297,514,o),
(293,523,cs),
(291,529,o),
(283,546,o),
(279,550,cs),
(273,555,o),
(263,557,o),
(255,556,cs),
(244,554,o),
(234,549,o),
(224,544,cs),
(197,530,o),
(173,510,o),
(151,489,cs),
(119,459,o),
(96,421,o),
(75,382,cs),
(57,348,o),
(42,312,o),
(31,275,cs),
(23,247,o),
(16,218,o),
(20,189,cs),
(23,166,o),
(33,142,o),
(50,126,cs),
(68,109,o),
(96,100,o),
(120,105,cs),
(160,112,o),
(195,138,o),
(224,167,cs),
(268,211,o),
(299,267,o),
(332,320,c),
(331,280,o),
(333,240,o),
(336,201,cs),
(340,157,o),
(372,-26,o),
(389,-66,cs),
(397,-85,o),
(406,-104,o),
(422,-117,cs),
(460,-149,o),
(516,-148,o),
(544,-107,cs)
);
}
);
width = 557;
}
);
note = q;
unicode = 113;
},
{
glyphname = r;
lastChange = "2023-11-14 18:48:41 +0000";
layers = (
{
layerId = m01;
shapes = (
{
closed = 1;
nodes = (
(280,39,o),
(291,61,o),
(295,82,cs),
(296,90,o),
(297,97,o),
(298,105,cs),
(299,128,o),
(291,251,o),
(290,274,cs),
(288,315,o),
(286,356,o),
(287,397,c),
(330,370,o),
(380,354,o),
(431,350,cs),
(462,347,o),
(499,350,o),
(523,370,cs),
(567,407,o),
(561,476,o),
(511,505,cs),
(490,517,o),
(464,516,o),
(440,519,cs),
(399,524,o),
(362,546,o),
(328,570,cs),
(309,584,o),
(284,593,o),
(260,594,cs),
(242,595,o),
(223,587,o),
(207,576,cs),
(199,571,o),
(178,543,o),
(173,533,cs),
(163,512,o),
(154,489,o),
(150,465,cs),
(139,404,o),
(142,341,o),
(147,279,c),
(143,298,o),
(113,410,o),
(108,428,cs),
(98,460,o),
(77,514,o),
(44,514,cs),
(37,514,o),
(20,510,o),
(16,504,c),
(12,500,o),
(11,493,o),
(12,488,cs),
(14,479,o),
(27,479,o),
(28,488,c),
(29,489,o),
(28,493,o),
(29,494,c),
(52,507,o),
(67,472,o),
(72,446,cs),
(83,396,o),
(87,344,o),
(88,293,cs),
(88,281,o),
(92,211,o),
(92,199,cs),
(92,187,o),
(99,130,o),
(101,119,cs),
(107,80,o),
(131,42,o),
(163,20,cs),
(179,8,o),
(202,5,o),
(222,7,cs),
(237,8,o),
(252,16,o),
(263,25,cs)
);
}
);
width = 566;
}
);
note = r;
unicode = 114;
},
{
glyphname = s;
layers = (
{
layerId = m01;
shapes = (
{
closed = 1;
nodes = (
(496,0,o),
(547,26,o),
(580,67,cs),
(615,109,o),
(626,167,o),
(608,219,cs),
(598,251,o),
(567,274,o),
(538,289,cs),
(518,299,o),
(495,303,o),
(474,307,cs),
(435,314,o),
(395,313,o),
(356,318,cs),
(322,322,o),
(288,330,o),
(255,337,cs),
(227,342,o),
(199,348,o),
(173,361,cs),
(155,370,o),
(143,389,o),
(134,407,c),
(148,412,o),
(162,418,o),
(177,421,cs),
(220,427,o),
(264,433,o),
(308,431,cs),
(336,430,o),
(365,428,o),
(391,420,cs),
(399,418,o),
(436,401,o),
(444,399,cs),
(453,398,o),
(462,395,o),
(470,398,cs),
(477,401,o),
(484,404,o),
(489,408,cs),
(519,433,o),
(520,488,o),
(500,522,cs),
(473,567,o),
(428,597,o),
(377,604,cs),
(334,609,o),
(291,613,o),
(248,610,cs),
(230,608,o),
(212,606,o),
(195,601,cs),
(165,591,o),
(135,579,o),
(111,559,cs),
(83,536,o),
(69,498,o),
(73,462,cs),
(75,445,o),
(80,427,o),
(91,414,cs),
(127,369,o),
(169,323,o),
(222,302,cs),
(253,291,o),
(287,286,o),
(319,278,cs),
(346,272,o),
(372,265,o),
(397,254,cs),
(415,247,o),
(492,215,o),
(507,203,c),
(465,176,o),
(419,155,o),
(371,143,cs),
(337,135,o),
(302,127,o),
(268,133,cs),
(235,139,o),
(203,151,o),
(174,168,cs),
(154,180,o),
(143,202,o),
(128,220,cs),
(120,231,o),
(109,240,o),
(97,246,cs),
(66,264,o),
(32,236,o),
(24,200,cs),
(20,178,o),
(20,154,o),
(25,132,cs),
(33,103,o),
(50,77,o),
(68,54,cs),
(94,20,o),
(132,-5,o),
(171,-21,cs),
(198,-31,o),
(225,-41,o),
(254,-45,cs),
(318,-55,o),
(385,-41,o),
(446,-18,cs)
);
}
);
width = 633;
}
);
note = s;
unicode = 115;
},
{
glyphname = t;
layers = (
{
layerId = m01;
shapes = (
{
closed = 1;
nodes = (
(393,41,o),
(430,82,o),
(474,114,cs),
(485,122,o),
(497,129,o),
(510,133,cs),
(514,134,o),
(537,137,o),
(541,138,cs),
(561,143,o),
(581,148,o),
(598,159,cs),
(611,166,o),
(622,179,o),
(627,193,cs),
(632,205,o),
(632,219,o),
(627,231,cs),
(622,246,o),
(611,259,o),
(599,271,cs),
(593,278,o),
(562,293,o),
(553,296,cs),
(530,302,o),
(505,303,o),
(482,299,cs),
(449,293,o),
(416,280,o),
(389,260,cs),
(357,238,o),
(327,213,o),
(298,186,c),
(287,216,o),
(276,247,o),
(275,279,cs),
(272,322,o),
(271,366,o),
(280,408,c),
(307,405,o),
(334,403,o),
(362,404,cs),
(406,407,o),
(451,417,o),
(493,434,cs),
(519,444,o),
(545,454,o),
(569,468,cs),
(586,477,o),
(579,502,o),
(560,502,cs),
(510,503,o),
(460,504,o),
(410,500,cs),
(375,498,o),
(339,498,o),
(304,501,c),
(326,560,o),
(356,616,o),
(394,666,c),
(402,669,o),
(410,678,o),
(410,687,cs),
(410,701,o),
(393,702,o),
(381,696,cs),
(368,690,o),
(357,680,o),
(346,670,cs),
(323,650,o),
(303,627,o),
(285,602,cs),
(265,573,o),
(245,543,o),
(229,512,c),
(166,524,o),
(105,547,o),
(49,577,cs),
(43,581,o),
(39,589,o),
(32,591,cs),
(22,595,o),
(13,584,o),
(11,573,cs),
(10,569,o),
(12,565,o),
(13,561,cs),
(14,551,o),
(20,542,o),
(26,533,cs),
(42,508,o),
(68,489,o),
(93,473,cs),
(124,455,o),
(156,440,o),
(190,430,c),
(189,426,o),
(179,400,o),
(178,396,cs),
(160,333,o),
(151,267,o),
(151,201,cs),
(152,152,o),
(161,101,o),
(186,59,cs),
(202,32,o),
(226,6,o),
(256,-3,cs),
(285,-12,o),
(323,-8,o),
(349,10,cs)
);
}
);
width = 646;
}
);
note = t;
unicode = 116;
},
{
glyphname = u;
layers = (
{
layerId = m01;
shapes = (
{
closed = 1;
nodes = (
(586,25,o),
(602,40,o),
(609,60,cs),
(616,77,o),
(614,99,o),
(604,115,cs),
(596,130,o),
(580,140,o),
(564,147,cs),
(560,149,o),
(549,149,o),
(548,153,cs),
(541,173,o),
(512,299,o),
(506,320,cs),
(501,337,o),
(495,355,o),
(487,372,cs),
(463,419,o),
(402,430,o),
(359,400,cs),
(335,383,o),
(314,363,o),
(293,342,cs),
(227,276,o),
(172,198,o),
(106,131,c),
(104,162,o),
(109,193,o),
(113,224,cs),
(122,307,o),
(151,387,o),
(172,468,cs),
(176,482,o),
(188,521,o),
(181,533,cs),
(175,543,o),
(162,535,o),
(159,524,cs),
(157,515,o),
(153,504,o),
(162,501,c),
(151,471,o),
(74,293,o),
(63,263,cs),
(48,227,o),
(11,109,o),
(19,71,cs),
(23,53,o),
(32,34,o),
(47,23,cs),
(67,6,o),
(100,2,o),
(126,10,cs),
(137,13,o),
(148,20,o),
(158,26,cs),
(196,48,o),
(230,75,o),
(261,106,cs),
(299,144,o),
(337,183,o),
(374,223,c),
(379,168,o),
(386,111,o),
(409,61,cs),
(416,47,o),
(427,35,o),
(438,24,cs),
(469,-7,o),
(533,-12,o),
(569,13,cs)
);
}
);
width = 625;
}
);
note = u;
unicode = (117,249,250,251,252);
},
{
glyphname = v;
layers = (
{
layerId = m01;
shapes = (
{
closed = 1;
nodes = (
(417,120,o),
(428,146,o),
(436,173,cs),
(456,238,o),
(482,302,o),
(518,359,cs),
(520,362,o),
(536,380,o),
(538,383,cs),
(550,398,o),
(608,477,o),
(617,494,cs),
(628,513,o),
(632,536,o),
(636,558,cs),
(641,581,o),
(633,610,o),
(615,625,cs),
(608,631,o),
(600,635,o),
(591,637,cs),
(560,642,o),
(504,610,o),
(484,586,cs),
(452,548,o),
(423,506,o),
(403,461,cs),
(401,457,o),
(395,437,o),
(394,433,cs),
(385,407,o),
(373,381,o),
(365,354,cs),
(351,311,o),
(341,266,o),
(335,220,c),
(304,300,o),
(271,381,o),
(219,449,cs),
(186,494,o),
(103,583,o),
(48,579,cs),
(31,578,o),
(9,573,o),
(9,557,cs),
(9,551,o),
(11,542,o),
(17,541,cs),
(24,540,o),
(29,546,o),
(27,552,c),
(25,555,o),
(27,556,o),
(31,556,cs),
(48,558,o),
(66,550,o),
(80,540,cs),
(154,482,o),
(208,397,o),
(243,309,cs),
(255,280,o),
(313,120,o),
(321,89,cs),
(323,80,o),
(328,70,o),
(335,64,cs),
(361,42,o),
(396,62,o),
(407,93,cs)
);
}
);
width = 651;
}
);
note = v;
unicode = 118;
},
{
glyphname = w;
layers = (
{
layerId = m01;
shapes = (
{
closed = 1;
nodes = (
(487,20,o),
(507,31,o),
(524,45,cs),
(548,67,o),
(563,100,o),
(572,131,cs),
(582,168,o),
(587,207,o),
(584,244,cs),
(581,309,o),
(564,372,o),
(546,434,c),
(563,440,o),
(580,449,o),
(597,455,cs),
(620,463,o),
(628,492,o),
(612,511,cs),
(602,522,o),
(550,545,o),
(536,552,cs),
(504,566,o),
(464,574,o),
(431,563,cs),
(405,555,o),
(382,531,o),
(373,506,cs),
(365,485,o),
(365,460,o),
(370,438,cs),
(379,399,o),
(392,361,o),
(402,323,cs),
(415,271,o),
(425,214,o),
(415,161,c),
(394,177,o),
(382,201,o),
(370,224,cs),
(362,239,o),
(331,322,o),
(326,337,cs),
(323,344,o),
(314,374,o),
(309,379,cs),
(299,392,o),
(280,387,o),
(275,372,cs),
(270,357,o),
(235,286,o),
(227,272,c),
(227,271,o),
(222,267,o),
(221,266,cs),
(218,263,o),
(208,246,o),
(206,242,cs),
(187,212,o),
(166,181,o),
(139,158,cs),
(136,156,o),
(129,152,o),
(125,153,cs),
(121,154,o),
(111,164,o),
(108,168,cs),
(89,197,o),
(81,233,o),
(78,267,cs),
(73,326,o),
(80,385,o),
(87,443,cs),
(90,464,o),
(102,523,o),
(118,537,cs),
(121,539,o),
(125,540,o),
(129,541,cs),
(138,544,o),
(135,557,o),
(126,557,cs),
(95,557,o),
(73,506,o),
(63,475,cs),
(50,438,o),
(43,400,o),
(36,361,cs),
(28,314,o),
(24,265,o),
(30,217,cs),
(34,186,o),
(43,154,o),
(61,128,cs),
(69,117,o),
(78,106,o),
(90,99,cs),
(104,90,o),
(122,86,o),
(138,90,cs),
(163,95,o),
(186,114,o),
(202,134,cs),
(228,166,o),
(245,204,o),
(261,242,c),
(262,243,o),
(263,254,o),
(263,256,c),
(266,264,o),
(282,311,o),
(285,319,c),
(285,321,o),
(285,317,o),
(285,315,cs),
(282,273,o),
(288,230,o),
(294,188,cs),
(299,151,o),
(314,115,o),
(335,83,cs),
(349,61,o),
(370,40,o),
(393,28,cs),
(415,17,o),
(441,12,o),
(465,16,cs)
);
}
);
width = 641;
}
);
note = w;
unicode = 119;
},
{
glyphname = x;
layers = (
{
layerId = m01;
shapes = (
{
closed = 1;
nodes = (
(600,93,o),
(621,128,o),
(630,164,cs),
(635,181,o),
(637,199,o),
(635,216,cs),
(633,232,o),
(626,248,o),
(616,260,cs),
(615,261,o),
(614,266,o),
(613,267,c),
(607,285,o),
(585,292,o),
(569,283,cs),
(562,279,o),
(554,280,o),
(547,277,cs),
(536,273,o),
(525,267,o),
(516,259,cs),
(495,242,o),
(482,218,o),
(465,197,c),
(446,199,o),
(431,213,o),
(415,224,cs),
(408,229,o),
(383,259,o),
(377,266,cs),
(368,278,o),
(317,355,o),
(308,368,c),
(326,386,o),
(430,492,o),
(447,511,cs),
(478,545,o),
(509,580,o),
(535,618,c),
(540,617,o),
(544,620,o),
(545,625,cs),
(546,629,o),
(545,632,o),
(548,636,cs),
(559,649,o),
(546,668,o),
(530,662,cs),
(524,660,o),
(518,655,o),
(513,650,cs),
(505,643,o),
(459,597,o),
(451,589,cs),
(430,567,o),
(295,442,o),
(272,421,c),
(253,450,o),
(233,478,o),
(209,503,cs),
(188,526,o),
(160,545,o),
(131,551,cs),
(107,556,o),
(61,549,o),
(46,531,cs),
(41,525,o),
(33,521,o),
(29,515,cs),
(26,509,o),
(25,501,o),
(29,496,cs),
(32,492,o),
(30,487,o),
(31,482,cs),
(33,473,o),
(45,473,o),
(47,482,c),
(47,485,o),
(46,494,o),
(47,496,c),
(50,499,o),
(48,506,o),
(52,508,cs),
(59,510,o),
(83,511,o),
(90,509,cs),
(103,506,o),
(116,501,o),
(126,493,cs),
(145,476,o),
(158,454,o),
(171,433,cs),
(184,409,o),
(197,384,o),
(208,359,c),
(153,306,o),
(98,250,o),
(56,186,cs),
(47,173,o),
(41,159,o),
(33,145,cs),
(23,128,o),
(19,105,o),
(25,86,cs),
(28,77,o),
(33,69,o),
(41,63,cs),
(52,53,o),
(68,49,o),
(83,49,cs),
(103,50,o),
(168,74,o),
(185,86,cs),
(200,96,o),
(194,119,o),
(178,126,cs),
(173,129,o),
(152,128,o),
(146,128,cs),
(142,128,o),
(119,129,o),
(115,129,c),
(122,147,o),
(132,163,o),
(142,179,cs),
(170,220,o),
(203,257,o),
(237,293,c),
(251,263,o),
(264,232,o),
(279,202,cs),
(294,170,o),
(310,137,o),
(332,109,cs),
(355,81,o),
(385,58,o),
(419,45,cs),
(472,24,o),
(528,33,o),
(572,70,cs)
);
}
);
width = 652;
}
);
note = x;
unicode = 120;
},
{
glyphname = y;
layers = (
{
layerId = m01;
shapes = (
{
closed = 1;
nodes = (
(451,-72,o),
(511,-32,o),
(555,20,cs),
(601,73,o),
(633,140,o),
(651,208,cs),
(666,265,o),
(674,325,o),
(694,380,cs),
(706,411,o),
(722,440,o),
(741,468,cs),
(743,471,o),
(757,490,o),
(759,493,cs),
(770,510,o),
(776,531,o),
(777,551,cs),
(777,571,o),
(770,591,o),
(759,608,cs),
(743,631,o),
(711,631,o),
(689,613,cs),
(670,598,o),
(654,578,o),
(640,558,cs),
(615,521,o),
(596,480,o),
(582,438,c),
(552,410,o),
(521,385,o),
(490,360,cs),
(458,336,o),
(426,312,o),
(391,295,cs),
(381,290,o),
(362,285,o),
(354,293,cs),
(330,316,o),
(324,420,o),
(320,453,cs),
(316,481,o),
(309,511,o),
(288,529,cs),
(279,537,o),
(266,539,o),
(258,530,cs),
(246,515,o),
(245,490,o),
(263,481,c),
(270,468,o),
(271,453,o),
(272,439,cs),
(274,393,o),
(273,345,o),
(280,299,cs),
(285,272,o),
(292,242,o),
(311,221,cs),
(325,205,o),
(340,197,o),
(361,196,cs),
(383,195,o),
(405,203,o),
(424,214,cs),
(469,238,o),
(509,269,o),
(548,302,c),
(539,261,o),
(526,220,o),
(504,185,cs),
(480,147,o),
(446,114,o),
(407,92,cs),
(368,70,o),
(325,53,o),
(281,47,cs),
(253,44,o),
(222,45,o),
(195,54,cs),
(175,61,o),
(155,75,o),
(146,93,cs),
(139,107,o),
(140,124,o),
(142,140,cs),
(145,169,o),
(158,197,o),
(156,226,cs),
(155,251,o),
(153,279,o),
(137,297,cs),
(122,315,o),
(96,316,o),
(78,301,cs),
(56,283,o),
(44,255,o),
(36,228,cs),
(27,194,o),
(21,158,o),
(21,123,cs),
(20,74,o),
(32,23,o),
(57,-20,cs),
(75,-52,o),
(104,-79,o),
(136,-97,cs),
(163,-112,o),
(193,-120,o),
(223,-123,cs),
(279,-129,o),
(336,-116,o),
(388,-96,cs)
);
}
);
width = 791;
}
);
note = y;
unicode = (121,253,255);
},
{
glyphname = z;
layers = (
{
layerId = m01;
shapes = (
{
closed = 1;
nodes = (
(355,31,o),
(392,34,o),
(429,38,cs),
(444,39,o),
(458,46,o),
(471,52,cs),
(484,58,o),
(494,70,o),
(502,82,cs),
(520,107,o),
(514,149,o),
(492,170,cs),
(486,176,o),
(480,182,o),
(473,187,cs),
(460,194,o),
(445,198,o),
(431,202,cs),
(412,207,o),
(327,200,o),
(308,199,c),
(321,210,o),
(385,265,o),
(396,278,cs),
(400,283,o),
(421,305,o),
(425,309,cs),
(442,326,o),
(512,412,o),
(524,432,cs),
(534,447,o),
(543,463,o),
(547,480,cs),
(553,507,o),
(538,535,o),
(510,539,cs),
(494,541,o),
(477,537,o),
(462,533,cs),
(378,512,o),
(299,477,o),
(217,451,cs),
(188,442,o),
(158,432,o),
(128,435,cs),
(94,438,o),
(51,471,o),
(44,504,cs),
(40,523,o),
(41,543,o),
(46,562,cs),
(46,563,o),
(46,570,o),
(47,571,c),
(48,576,o),
(57,597,o),
(59,601,cs),
(64,610,o),
(50,618,o),
(45,609,cs),
(43,605,o),
(33,581,o),
(31,577,cs),
(29,574,o),
(26,571,o),
(25,568,cs),
(21,551,o),
(18,535,o),
(16,518,cs),
(14,493,o),
(24,466,o),
(38,445,cs),
(48,429,o),
(63,415,o),
(79,404,cs),
(99,391,o),
(123,384,o),
(147,384,cs),
(187,385,o),
(228,398,o),
(266,413,cs),
(285,420,o),
(397,466,o),
(416,473,cs),
(435,479,o),
(454,486,o),
(474,488,c),
(451,469,o),
(427,451,o),
(403,433,cs),
(390,425,o),
(325,386,o),
(312,379,cs),
(300,374,o),
(238,336,o),
(227,330,cs),
(215,323,o),
(160,287,o),
(150,278,cs),
(129,259,o),
(110,236,o),
(100,210,cs),
(88,177,o),
(91,139,o),
(109,108,cs),
(125,80,o),
(155,58,o),
(186,46,cs),
(226,29,o),
(273,28,o),
(317,30,cs)
);
}
);
width = 567;
}
);
note = z;
unicode = 122;
},
{
glyphname = asciitilde;
layers = (
{
layerId = m01;
shapes = (
{
closed = 1;
nodes = (
(53,335,o),
(51,356,o),
(52,360,cs),
(57,383,o),
(54,409,o),
(64,430,cs),
(77,457,o),
(91,483,o),
(108,506,c),
(112,493,o),
(117,479,o),
(124,467,cs),
(149,422,o),
(194,388,o),
(241,366,cs),
(284,346,o),
(336,342,o),
(383,351,cs),
(420,358,o),
(456,375,o),
(487,397,cs),
(519,420,o),
(549,448,o),
(569,481,cs),
(581,501,o),
(592,525,o),
(588,548,cs),
(583,577,o),
(559,597,o),
(529,597,cs),
(509,597,o),
(490,588,o),
(472,579,cs),
(447,566,o),
(426,549,o),
(403,534,cs),
(383,520,o),
(360,509,o),
(336,507,cs),
(315,506,o),
(293,510,o),
(274,519,cs),
(253,529,o),
(234,544,o),
(215,558,cs),
(199,570,o),
(185,585,o),
(169,599,cs),
(152,615,o),
(123,615,o),
(108,596,cs),
(104,592,o),
(102,586,o),
(100,580,cs),
(98,574,o),
(80,544,o),
(77,538,cs),
(63,512,o),
(50,484,o),
(40,456,cs),
(36,444,o),
(33,432,o),
(32,419,cs),
(32,411,o),
(34,369,o),
(35,360,c),
(36,357,o),
(35,337,o),
(36,333,cs),
(37,326,o),
(47,324,o),
(51,331,cs)
);
}
);
width = 616;
}
);
note = asciitilde;
unicode = 126;
},
{
glyphname = multiply;
layers = (
{
layerId = m01;
shapes = (
{
closed = 1;
nodes = (
(204,163,o),
(196,171,o),
(196,174,cs),
(198,192,o),
(205,210,o),
(213,226,cs),
(234,269,o),
(255,312,o),
(276,355,c),
(321,315,o),
(368,274,o),
(423,247,cs),
(456,231,o),
(494,218,o),
(531,217,cs),
(543,217,o),
(555,220,o),
(566,224,cs),
(581,230,o),
(593,243,o),
(602,256,cs),
(608,265,o),
(611,275,o),
(614,285,cs),
(621,311,o),
(599,337,o),
(573,330,c),
(571,330,o),
(568,328,o),
(566,329,cs),
(549,334,o),
(531,331,o),
(514,335,cs),
(494,341,o),
(477,352,o),
(460,363,cs),
(442,374,o),
(346,444,o),
(329,456,cs),
(328,457,o),
(331,461,o),
(332,463,cs),
(338,476,o),
(379,537,o),
(387,548,cs),
(393,556,o),
(428,599,o),
(435,606,cs),
(440,612,o),
(472,646,o),
(478,653,cs),
(482,658,o),
(493,672,o),
(499,673,cs),
(508,674,o),
(508,687,o),
(499,689,c),
(497,689,o),
(494,688,o),
(493,690,c),
(487,696,o),
(476,694,o),
(467,694,cs),
(443,693,o),
(418,682,o),
(398,669,cs),
(368,650,o),
(340,627,o),
(314,603,cs),
(288,579,o),
(266,552,o),
(244,524,c),
(228,538,o),
(125,624,o),
(109,638,cs),
(97,648,o),
(59,688,o),
(43,691,cs),
(34,693,o),
(26,686,o),
(26,677,cs),
(26,671,o),
(27,666,o),
(29,661,cs),
(38,639,o),
(96,550,o),
(111,531,cs),
(135,500,o),
(162,471,o),
(188,442,c),
(157,390,o),
(129,335,o),
(112,277,cs),
(104,250,o),
(95,183,o),
(111,160,cs),
(122,146,o),
(134,131,o),
(151,124,cs),
(160,120,o),
(170,117,o),
(180,115,cs),
(206,111,o),
(223,141,o),
(206,160,cs)
);
}
);
width = 639;
}
);
note = multiply;
unicode = 215;
},
{
glyphname = divide;
layers = (
{
layerId = m01;
shapes = (
{
closed = 1;
nodes = (
(399,605,o),
(400,637,o),
(400,645,cs),
(400,646,o),
(403,652,o),
(404,652,c),
(410,655,o),
(411,663,o),
(406,667,c),
(403,679,o),
(395,687,o),
(384,689,cs),
(367,692,o),
(349,693,o),
(333,688,cs),
(316,682,o),
(296,666,o),
(288,651,cs),
(269,614,o),
(285,569,o),
(326,558,cs),
(354,550,o),
(386,569,o),
(396,597,cs)
);
},
{
closed = 1;
nodes = (
(295,316,o),
(397,337,o),
(499,343,cs),
(536,345,o),
(574,344,o),
(611,342,cs),
(617,342,o),
(653,338,o),
(658,338,cs),
(666,337,o),
(715,335,o),
(723,335,cs),
(735,334,o),
(748,331,o),
(757,324,cs),
(771,311,o),
(794,317,o),
(800,335,cs),
(805,348,o),
(805,362,o),
(806,375,cs),
(807,390,o),
(799,404,o),
(792,417,cs),
(784,431,o),
(772,443,o),
(761,454,cs),
(757,458,o),
(735,471,o),
(731,474,cs),
(692,498,o),
(643,507,o),
(597,511,cs),
(534,516,o),
(470,511,o),
(407,503,cs),
(334,493,o),
(261,479,o),
(189,462,cs),
(146,452,o),
(102,441,o),
(63,421,cs),
(19,398,o),
(5,338,o),
(43,306,cs),
(61,292,o),
(86,287,o),
(108,288,cs),
(137,289,o),
(166,294,o),
(194,299,cs)
);
},
{
closed = 1;
nodes = (
(469,173,o),
(463,200,o),
(445,218,cs),
(435,228,o),
(418,229,o),
(404,228,cs),
(386,227,o),
(356,205,o),
(349,188,cs),
(343,175,o),
(336,162,o),
(334,148,cs),
(330,128,o),
(334,106,o),
(345,88,cs),
(352,76,o),
(364,65,o),
(377,59,cs),
(434,33,o),
(491,87,o),
(476,148,cs)
);
}
);
width = 829;
}
);
note = divide;
unicode = 247;
},
{
glyphname = minus;
layers = (
{
layerId = m01;
shapes = (
{
closed = 1;
nodes = (
(304,322,o),
(438,361,o),
(576,369,cs),
(584,370,o),
(592,369,o),
(600,371,cs),
(607,372,o),
(614,373,o),
(621,374,cs),
(624,374,o),
(637,378,o),
(640,379,c),
(663,382,o),
(686,389,o),
(709,393,cs),
(720,394,o),
(732,394,o),
(741,401,cs),
(755,413,o),
(751,437,o),
(733,444,cs),
(724,448,o),
(668,473,o),
(659,477,cs),
(640,484,o),
(620,490,o),
(600,495,cs),
(584,499,o),
(509,499,o),
(493,499,cs),
(448,499,o),
(403,490,o),
(359,480,cs),
(283,463,o),
(210,438,o),
(139,409,cs),
(125,403,o),
(62,371,o),
(50,362,c),
(14,362,o),
(12,310,o),
(48,303,cs),
(49,303,o),
(60,302,o),
(61,301,c),
(79,296,o),
(149,300,o),
(167,302,cs)
);
}
